<?xml version="1.0" encoding="UTF-8" standalone="no"?>
<svg
   xmlns:dc="http://purl.org/dc/elements/1.1/"
   xmlns:cc="http://creativecommons.org/ns#"
   xmlns:rdf="http://www.w3.org/1999/02/22-rdf-syntax-ns#"
   xmlns:svg="http://www.w3.org/2000/svg"
   xmlns="http://www.w3.org/2000/svg"
   xmlns:sodipodi="http://sodipodi.sourceforge.net/DTD/sodipodi-0.dtd"
   xmlns:inkscape="http://www.inkscape.org/namespaces/inkscape"
   viewBox="0 0 16 16"
   version="1.1"
   x="0px"
   y="0px"
   id="svg8481"
   inkscape:version="0.91 r13725"
   sodipodi:docname="close.svg">
  <metadata
     id="metadata8497">
    <rdf:RDF>
      <cc:Work
         rdf:about="">
        <dc:format>image/svg+xml</dc:format>
        <dc:type
           rdf:resource="http://purl.org/dc/dcmitype/StillImage" />
      </cc:Work>
    </rdf:RDF>
  </metadata>
  <defs />
  <sodipodi:namedview
     pagecolor="#ffffff"
     bordercolor="#666666"
     borderopacity="1"
     objecttolerance="10"
     gridtolerance="10"
     guidetolerance="10"
     inkscape:pageopacity="0"
     inkscape:pageshadow="2"
     inkscape:window-width="1920"
     inkscape:window-height="1016"
     id="namedview8493"
     showgrid="false"
     inkscape:zoom="14.75"
     inkscape:cx="8"
     inkscape:cy="8.2033898"
     inkscape:window-x="0"
     inkscape:window-y="27"
     inkscape:window-maximized="1"
     inkscape:current-layer="svg8481" />
  <desc
     id="desc8485">Created with Sketch.</desc>
  <path
     d="m 15.785807,12.798532 c 0,0 0,0 0,0 L 10.952753,7.9654782 15.785807,3.1324247 c 0,0 0,0 0,0 0.05177,-0.052273 0.08961,-0.1130102 0.114005,-0.1777297 0.06621,-0.176734 0.02838,-0.3838365 -0.114005,-0.5262194 L 13.502702,0.14537066 c -0.142383,-0.14238291 -0.349486,-0.1797211 -0.52622,-0.11400589 -0.06472,0.02389643 -0.125456,0.06173245 -0.177729,0.11350804 0,0 0,0 0,0 L 7.9656991,4.9784241 3.1326456,0.14537066 c 0,0 0,0 0,0 C 3.0803722,0.09359505 3.0196354,0.05575903 2.9549159,0.03186261 2.777684,-0.03435042 2.5710794,0.00348559 2.4286965,0.1458685 L 0.14559155,2.4284756 c -0.14238291,0.142383 -0.1797211,0.3494854 -0.11400589,0.5262194 0.02439428,0.064719 0.06173245,0.1254563 0.11400589,0.1777297 0,0 0,0 0,0 L 4.978645,7.9654782 0.14559155,12.798532 c 0,0 0,0 0,0 -0.05177561,0.05227 -0.08961163,0.11301 -0.11400589,0.177729 -0.06621303,0.176734 -0.02837702,0.383837 0.11400589,0.52622 l 2.28310495,2.283105 c 0.1423829,0.142383 0.3494854,0.179721 0.5262194,0.114006 0.064719,-0.0244 0.1254563,-0.06173 0.1777297,-0.114006 0,0 0,0 0,0 l 4.8330535,-4.833054 4.8330539,4.833054 c 0,0 0,0 0,0 0.05227,0.05177 0.11301,0.08961 0.177729,0.114006 0.177232,0.06621 0.383837,0.02838 0.52622,-0.114006 l 2.283105,-2.283105 c 0.142383,-0.142383 0.180219,-0.349486 0.114005,-0.52622 -0.02439,-0.06472 -0.06173,-0.125456 -0.114005,-0.177729 z"
     id="path8491"
     inkscape:connector-curvature="0" />
</svg>
