<?xml version="1.0" encoding="UTF-8" standalone="no"?>
<svg
   xmlns:dc="http://purl.org/dc/elements/1.1/"
   xmlns:cc="http://creativecommons.org/ns#"
   xmlns:rdf="http://www.w3.org/1999/02/22-rdf-syntax-ns#"
   xmlns:svg="http://www.w3.org/2000/svg"
   xmlns="http://www.w3.org/2000/svg"
   xmlns:sodipodi="http://sodipodi.sourceforge.net/DTD/sodipodi-0.dtd"
   xmlns:inkscape="http://www.inkscape.org/namespaces/inkscape"
   version="1.1"
   x="0px"
   y="0px"
   viewBox="0 0 95 95"
   enable-background="new 0 0 100 100"
   xml:space="preserve"
   id="svg5371"
   inkscape:version="0.91 r13725"
   sodipodi:docname="close_popup.svg"
   width="95"
   height="95"><metadata
     id="metadata5383"><rdf:RDF><cc:Work
         rdf:about=""><dc:format>image/svg+xml</dc:format><dc:type
           rdf:resource="http://purl.org/dc/dcmitype/StillImage" /><dc:title /></cc:Work></rdf:RDF></metadata><defs
     id="defs5381" /><sodipodi:namedview
     pagecolor="#ffffff"
     bordercolor="#666666"
     borderopacity="1"
     objecttolerance="10"
     gridtolerance="10"
     guidetolerance="10"
     inkscape:pageopacity="0"
     inkscape:pageshadow="2"
     inkscape:window-width="1920"
     inkscape:window-height="1016"
     id="namedview5379"
     showgrid="false"
     fit-margin-top="0"
     fit-margin-left="0"
     fit-margin-right="0"
     fit-margin-bottom="0"
     inkscape:zoom="2.36"
     inkscape:cx="-80.889831"
     inkscape:cy="50.042372"
     inkscape:window-x="0"
     inkscape:window-y="27"
     inkscape:window-maximized="1"
     inkscape:current-layer="svg5371" /><path
     sodipodi:nodetypes="sssss"
     inkscape:connector-curvature="0"
     d="m 47.5,2.5 c -24.8,0 -45,20.2 -45,45 0,24.8 20.2,45 45,45 24.8,0 45,-20.2 45,-45 0,-24.8 -20.2,-45 -45,-45 z"
     style="fill:#ffffff;fill-opacity:1;stroke:#333333;stroke-width:3;stroke-miterlimit:4;stroke-dasharray:none;stroke-opacity:1"
     class="circle" /><path
     inkscape:connector-curvature="0"
     d="m 67.8,27.2 c -1.3,-1.3 -3.4,-1.3 -4.7,0 L 47.5,42.8 31.8,27.2 c -1.3,-1.3 -3.4,-1.3 -4.7,0 -1.3,1.3 -1.3,3.4 0,4.7 L 42.8,47.5 27.2,63.2 c -1.3,1.3 -1.3,3.4 0,4.7 0.6,0.6 1.5,1 2.3,1 0.8,0 1.7,-0.3 2.3,-1 L 47.5,52.2 63.2,67.9 c 0.6,0.6 1.5,1 2.3,1 0.8,0 1.7,-0.3 2.3,-1 1.3,-1.3 1.3,-3.4 0,-4.7 L 52.2,47.5 67.9,31.8 c 1.2,-1.2 1.2,-3.3 -0.1,-4.6 z"
     class="cross"
     style="fill:#4d4d4d;fill-opacity:1" /></svg>