<?xml version="1.0" encoding="UTF-8" standalone="no"?>
<svg
   xmlns:dc="http://purl.org/dc/elements/1.1/"
   xmlns:cc="http://creativecommons.org/ns#"
   xmlns:rdf="http://www.w3.org/1999/02/22-rdf-syntax-ns#"
   xmlns:svg="http://www.w3.org/2000/svg"
   xmlns="http://www.w3.org/2000/svg"
   xmlns:sodipodi="http://sodipodi.sourceforge.net/DTD/sodipodi-0.dtd"
   xmlns:inkscape="http://www.inkscape.org/namespaces/inkscape"
   viewBox="0 0 533.01262 533.62733"
   version="1.1"
   x="0px"
   y="0px"
   inkscape:version="0.91 r13725"
   sodipodi:docname="loading.svg"
   width="533.01263"
   height="533.62732">
  <metadata
     id="metadata4866">
    <rdf:RDF>
      <cc:Work
         rdf:about="">
        <dc:format>image/svg+xml</dc:format>
        <dc:type
           rdf:resource="http://purl.org/dc/dcmitype/StillImage" />
        <dc:title></dc:title>
      </cc:Work>
    </rdf:RDF>
  </metadata>
  <defs />
  <sodipodi:namedview
     pagecolor="#ffffff"
     bordercolor="#666666"
     borderopacity="1"
     objecttolerance="10"
     gridtolerance="10"
     guidetolerance="10"
     inkscape:pageopacity="0"
     inkscape:pageshadow="2"
     inkscape:window-width="1920"
     inkscape:window-height="1016"
     id="namedview4862"
     showgrid="false"
     fit-margin-top="0"
     fit-margin-left="0"
     fit-margin-right="0"
     fit-margin-bottom="0"
     inkscape:zoom="0.20586404"
     inkscape:cx="-397.75052"
     inkscape:cy="-37.339748"
     inkscape:window-x="0"
     inkscape:window-y="27"
     inkscape:window-maximized="1" />
  <path
     inkscape:connector-curvature="0"
     d="m 197.68641,525.9888 c -17.08692,-4.58206 -31.15674,-8.4206 -31.26627,-8.53013 -0.18703,-0.18703 31.07226,-117.42575 31.39531,-117.74877 0.0826,-0.0826 2.23344,0.84859 4.77975,2.06923 15.67035,7.51198 32.81969,12.23513 50.8676,14.00958 3.66938,0.36076 6.76412,0.7484 6.87714,0.86142 0.22748,0.22751 -30.47593,115.26584 -31.15856,116.74362 -0.37076,0.80263 -4.56996,-0.18466 -31.49497,-7.40495 z m 174.06312,-11.41325 c -0.31588,-0.4 -3.73208,-6.22588 -7.59151,-12.94633 -3.85944,-6.72046 -17.36556,-30.14594 -30.01361,-52.05662 l -22.99645,-39.83762 5.93327,-2.11131 c 15.61994,-5.55826 30.19864,-13.7751 43.67459,-24.61591 3.47663,-2.79675 6.41785,-4.98823 6.53613,-4.86995 0.43471,0.43469 60.23141,104.20186 60.34224,104.71375 0.0848,0.39171 -54.42829,32.45131 -55.17912,32.45131 -0.0721,0 -0.38961,-0.32729 -0.70554,-0.72732 z M 50.567252,428.46064 c -1.14421,-1.45657 -31.57331,-54.50649 -31.57331,-55.04473 0,-0.52677 4.82826,-3.38064 43.63931,-25.79417 46.231178,-26.69868 60.306078,-34.77462 61.180078,-35.10413 0.76661,-0.28903 1.21794,0.4307 2.26096,3.60548 5.20715,15.84971 15.63106,33.98257 27.8105,48.37766 1.71299,2.02457 3.02538,3.76044 2.91646,3.85749 -0.10888,0.097 -19.83571,11.50621 -43.83733,25.35369 -24.001618,13.84748 -47.648308,27.49447 -52.548238,30.32664 -4.8999,2.83217 -8.99175,5.1494 -9.09299,5.1494 -0.10125,0 -0.44119,-0.3273 -0.75544,-0.72733 z M 457.7428,352.32573 c -32.1466,-8.63139 -58.5161,-15.76117 -58.59886,-15.84395 -0.0828,-0.0828 0.84816,-2.23385 2.06881,-4.78015 7.45922,-15.56027 12.22589,-32.79548 13.97961,-50.54745 0.34511,-3.49331 0.73109,-6.45508 0.8577,-6.58172 0.31397,-0.31397 116.30225,30.73802 116.94527,31.30819 0.28604,0.25366 -3.00467,13.63561 -7.45462,30.31495 -9.42684,35.3338 -8.46365,31.90583 -8.95237,31.86046 -0.21845,-0.0203 -26.69892,-7.09892 -58.84554,-15.73033 z M 58.560252,245.37379 C 26.718122,236.8114 0.37665194,229.69649 0.02372194,229.56287 -0.70425806,229.28726 15.558242,167.8185 16.436612,167.52571 c 0.5746,-0.19154 117.045788,30.91527 117.516488,31.38597 0.15715,0.15716 -1.26482,3.79035 -3.16,8.07377 -7.02218,15.87159 -10.74323,30.67148 -12.60084,50.11817 -0.23316,2.44096 -0.63292,3.91062 -1.05619,3.88285 -0.37453,-0.0246 -26.733648,-7.05029 -58.575818,-15.61268 z M 157.659,143.9346 c -4.46541,-7.76176 -18.09949,-31.39348 -30.29793,-52.514901 -12.19843,-21.12143 -22.32479,-38.79535 -22.50308,-39.27538 -0.24261,-0.6535 6.4886,-4.80233 26.7903,-16.51237 14.91292,-8.60177 27.50287,-15.67134 27.97766,-15.71015 0.56101,-0.0459 11.45506,18.26434 31.11495,52.2966 16.63842,28.801951 30.29596,52.581911 30.3501,52.844371 0.0541,0.26246 -2.25812,1.3367 -5.13831,2.38721 -17.04656,6.21749 -35.62713,17.26227 -47.77986,28.40168 l -2.39492,2.19526 -8.11891,-14.11232 z m 173.79239,-10.64515 c -14.3439,-7.22953 -33.09144,-12.43617 -51.18372,-14.21498 -3.66942,-0.36077 -6.76398,-0.74827 -6.87681,-0.8611 C 273.21905,118.04156 304.61501,0.20148914 304.88606,8.3914021e-4 305.07156,-0.13646086 367.10803,16.620379 367.36479,16.877159 c 0.14687,0.14683 -6.58364,25.88139 -14.95662,57.1879 -17.28191,64.617011 -16.37268,61.310291 -16.83039,61.207741 -0.18936,-0.0424 -2.04623,-0.93492 -4.12639,-1.98335 z" />
</svg>
