<?xml version="1.0" encoding="UTF-8" standalone="no"?>
<!-- Created with Inkscape (http://www.inkscape.org/) -->

<svg
   xmlns:dc="http://purl.org/dc/elements/1.1/"
   xmlns:cc="http://creativecommons.org/ns#"
   xmlns:rdf="http://www.w3.org/1999/02/22-rdf-syntax-ns#"
   xmlns:svg="http://www.w3.org/2000/svg"
   xmlns="http://www.w3.org/2000/svg"
   xmlns:sodipodi="http://sodipodi.sourceforge.net/DTD/sodipodi-0.dtd"
   xmlns:inkscape="http://www.inkscape.org/namespaces/inkscape"
   width="31.659546mm"
   height="7.429503mm"
   viewBox="0 0 31.659546 7.429503"
   version="1.1"
   id="svg8"
   inkscape:version="0.92.3 (2405546, 2018-03-11)"
   sodipodi:docname="logo.svg">
  <defs
     id="defs2" />
  <sodipodi:namedview
     id="base"
     pagecolor="#ffffff"
     bordercolor="#666666"
     borderopacity="1.0"
     inkscape:pageopacity="0.0"
     inkscape:pageshadow="2"
     inkscape:zoom="1.4"
     inkscape:cx="207.5423"
     inkscape:cy="-50.390318"
     inkscape:document-units="mm"
     inkscape:current-layer="svg8"
     showgrid="false"
     fit-margin-top="0"
     fit-margin-left="0"
     fit-margin-right="0"
     fit-margin-bottom="0"
     inkscape:window-width="1920"
     inkscape:window-height="1025"
     inkscape:window-x="0"
     inkscape:window-y="27"
     inkscape:window-maximized="1" />
  <metadata
     id="metadata5">
    <rdf:RDF>
      <cc:Work
         rdf:about="">
        <dc:format>image/svg+xml</dc:format>
        <dc:type
           rdf:resource="http://purl.org/dc/dcmitype/StillImage" />
        <dc:title></dc:title>
      </cc:Work>
    </rdf:RDF>
  </metadata>
  <path
     d="M 7.440082,1.746253 H 9.334498 L 7.059082,7.313086 H 5.418665 L 4.667248,5.196419 3.915832,7.313086 H 2.275416 L 0,1.746253 h 1.894416 l 1.344083,3.735916 0.34925,-1.195916 -0.994833,-2.54 h 1.598082 l 0.47625,1.629833 0.47625,-1.629833 h 1.598084 l -0.994834,2.54 0.34925,1.195916 z"
     id="path823"
     inkscape:connector-curvature="0" />
  <path
     d="m 12.263933,7.418919 q -0.751416,0 -1.322916,-0.232833 -0.560917,-0.243417 -0.9525,-0.635 -0.381,-0.402167 -0.582084,-0.92075 -0.1905,-0.529167 -0.1905,-1.100667 0,-0.5715 0.1905,-1.090083 0.201084,-0.529167 0.582084,-0.92075 0.391583,-0.402167 0.9525,-0.635 0.5715,-0.243417 1.322916,-0.243417 0.740834,0 1.312334,0.243417 0.5715,0.232833 0.9525,0.635 0.391583,0.391583 0.582083,0.92075 0.201083,0.518583 0.201083,1.090083 0,0.5715 -0.201083,1.100667 -0.1905,0.518583 -0.582083,0.92075 -0.381,0.391583 -0.9525,0.635 -0.5715,0.232833 -1.312334,0.232833 z m -0.98425,-2.88925 q 0,0.560917 0.275167,0.878417 0.275167,0.3175 0.709083,0.3175 0.433917,0 0.709084,-0.3175 0.275166,-0.3175 0.275166,-0.878417 0,-0.560916 -0.275166,-0.878416 -0.275167,-0.3175 -0.709084,-0.3175 -0.433916,0 -0.709083,0.3175 -0.275167,0.3175 -0.275167,0.878416 z"
     id="path825"
     inkscape:connector-curvature="0" />
  <path
     d="m 18.754493,7.418919 q -0.751417,0 -1.322917,-0.232833 -0.560916,-0.243417 -0.9525,-0.635 -0.381,-0.402167 -0.582083,-0.92075 -0.1905,-0.529167 -0.1905,-1.100667 0,-0.5715 0.1905,-1.090083 0.201083,-0.529167 0.582083,-0.92075 0.391584,-0.402167 0.9525,-0.635 0.5715,-0.243417 1.322917,-0.243417 0.740833,0 1.312333,0.243417 0.5715,0.232833 0.9525,0.635 0.391584,0.391583 0.582084,0.92075 0.201083,0.518583 0.201083,1.090083 0,0.5715 -0.201083,1.100667 -0.1905,0.518583 -0.582084,0.92075 -0.381,0.391583 -0.9525,0.635 -0.5715,0.232833 -1.312333,0.232833 z m -0.98425,-2.88925 q 0,0.560917 0.275167,0.878417 0.275166,0.3175 0.709083,0.3175 0.433917,0 0.709083,-0.3175 0.275167,-0.3175 0.275167,-0.878417 0,-0.560916 -0.275167,-0.878416 -0.275166,-0.3175 -0.709083,-0.3175 -0.433917,0 -0.709083,0.3175 -0.275167,0.3175 -0.275167,0.878416 z"
     id="path827"
     inkscape:connector-curvature="0" />
  <path
     d="m 24.800553,7.418919 q -0.73025,0 -1.42875,-0.232833 -0.6985,-0.243417 -1.185333,-0.6985 l 0.687916,-1.2065 q 0.518584,0.34925 0.994834,0.53975 0.486833,0.1905 0.889,0.1905 0.423333,0 0.423333,-0.264583 0,-0.148167 -0.169333,-0.254 Q 24.85347,5.386919 24.37722,5.249336 23.784553,5.080003 23.382386,4.921253 22.990803,4.751919 22.736803,4.561419 22.493386,4.370919 22.387553,4.138086 22.28172,3.905253 22.28172,3.587753 q 0,-0.423334 0.169333,-0.783167 0.169333,-0.359833 0.465667,-0.624417 0.306916,-0.264583 0.719666,-0.402166 0.423334,-0.148167 0.92075,-0.148167 0.613834,0 1.164167,0.15875 0.560917,0.15875 1.121833,0.645583 l -0.762,1.2065 q -0.518583,-0.338666 -0.867833,-0.47625 -0.34925,-0.148166 -0.656167,-0.148166 -0.179916,0 -0.296333,0.07408 -0.116417,0.0635 -0.116417,0.211667 0,0.15875 0.169334,0.264583 0.169333,0.09525 0.66675,0.22225 0.60325,0.15875 1.016,0.338667 0.41275,0.169333 0.656166,0.381 0.254,0.201083 0.359834,0.465666 0.105833,0.254 0.105833,0.592667 0,0.433917 -0.15875,0.772583 -0.15875,0.338667 -0.465667,0.582084 -0.296333,0.243416 -0.73025,0.370416 -0.423333,0.127 -0.963083,0.127 z"
     id="path829"
     inkscape:connector-curvature="0" />
  <path
     d="m 31.659545,7.006169 q -0.423333,0.179917 -0.910167,0.306917 -0.47625,0.116417 -0.941916,0.116417 -0.338667,0 -0.645584,-0.08467 -0.306916,-0.08467 -0.53975,-0.275167 -0.22225,-0.1905 -0.359833,-0.497416 -0.127,-0.306917 -0.127,-0.762 V 3.259666 H 27.447378 V 1.74625 h 0.687917 V 0 h 2.010833 v 1.74625 h 1.090084 v 1.513416 h -1.090084 v 1.8415 q 0,0.275167 0.116417,0.391584 0.116417,0.105833 0.3175,0.105833 0.148167,0 0.338667,-0.04233 0.1905,-0.05292 0.381,-0.137584 z"
     id="path831"
     inkscape:connector-curvature="0" />
</svg>
