<?xml version="1.0" encoding="UTF-8" standalone="no"?>
<svg
   xmlns:dc="http://purl.org/dc/elements/1.1/"
   xmlns:cc="http://creativecommons.org/ns#"
   xmlns:rdf="http://www.w3.org/1999/02/22-rdf-syntax-ns#"
   xmlns:svg="http://www.w3.org/2000/svg"
   xmlns="http://www.w3.org/2000/svg"
   xmlns:sodipodi="http://sodipodi.sourceforge.net/DTD/sodipodi-0.dtd"
   xmlns:inkscape="http://www.inkscape.org/namespaces/inkscape"
   version="1.1"
   x="0px"
   y="0px"
   viewBox="0 0 103.42373 102.57627"
   xml:space="preserve"
   id="svg2"
   inkscape:version="0.91 r13725"
   sodipodi:docname="next.svg"
   width="103.42373"
   height="102.57627"><metadata
     id="metadata12"><rdf:RDF><cc:Work
         rdf:about=""><dc:format>image/svg+xml</dc:format><dc:type
           rdf:resource="http://purl.org/dc/dcmitype/StillImage" /><dc:title /></cc:Work></rdf:RDF></metadata><defs
     id="defs10" /><sodipodi:namedview
     pagecolor="#ffffff"
     bordercolor="#666666"
     borderopacity="1"
     objecttolerance="10"
     gridtolerance="10"
     guidetolerance="10"
     inkscape:pageopacity="0"
     inkscape:pageshadow="2"
     inkscape:window-width="1920"
     inkscape:window-height="1016"
     id="namedview8"
     showgrid="false"
     fit-margin-top="0"
     fit-margin-left="0"
     fit-margin-right="0"
     fit-margin-bottom="0"
     inkscape:zoom="1"
     inkscape:cx="-515.40254"
     inkscape:cy="70.138771"
     inkscape:window-x="0"
     inkscape:window-y="27"
     inkscape:window-maximized="1"
     inkscape:current-layer="svg2" /><path
     inkscape:connector-curvature="0"
     id="path6"
     d="m 43.224147,74.849214 c -0.551943,0.551944 -0.551943,1.379858 0,1.931802 0.275972,0.275971 2.620936,0.413957 2.965901,0.413957 0.344964,0 0.689929,-0.137986 0.9659,-0.413957 L 69.164687,54.772277 c 0.965901,-0.965901 1.448851,-2.207773 1.448851,-3.518638 0,-1.310866 -0.48295,-2.552738 -1.448851,-3.518639 L 47.224941,25.795255 c -0.551943,-0.551944 -3.379858,-0.551944 -3.931801,0 -0.551944,0.551943 -0.551944,1.379858 0,1.931801 l 21.939745,22.008739 c 0.413958,0.413957 0.620937,0.9659 0.620937,1.586837 0,0.620936 -0.206979,1.172879 -0.620937,1.586837 z"
     sodipodi:nodetypes="cssssssssccscc" /></svg>