<?xml version="1.0" encoding="UTF-8" standalone="no"?>
<svg
   xmlns:dc="http://purl.org/dc/elements/1.1/"
   xmlns:cc="http://creativecommons.org/ns#"
   xmlns:rdf="http://www.w3.org/1999/02/22-rdf-syntax-ns#"
   xmlns:svg="http://www.w3.org/2000/svg"
   xmlns="http://www.w3.org/2000/svg"
   xmlns:sodipodi="http://sodipodi.sourceforge.net/DTD/sodipodi-0.dtd"
   xmlns:inkscape="http://www.inkscape.org/namespaces/inkscape"
   version="1.1"
   x="0px"
   y="0px"
   viewBox="0 0 100 100"
   enable-background="new 0 0 100 100"
   xml:space="preserve"
   id="svg2"
   inkscape:version="0.91 r13725"
   sodipodi:docname="add-after.svg"
   width="100"
   height="100"><metadata
     id="metadata10"><rdf:RDF><cc:Work
         rdf:about=""><dc:format>image/svg+xml</dc:format><dc:type
           rdf:resource="http://purl.org/dc/dcmitype/StillImage" /><dc:title></dc:title></cc:Work></rdf:RDF></metadata><defs
     id="defs8" /><sodipodi:namedview
     pagecolor="#ffffff"
     bordercolor="#666666"
     borderopacity="1"
     objecttolerance="10"
     gridtolerance="10"
     guidetolerance="10"
     inkscape:pageopacity="0"
     inkscape:pageshadow="2"
     inkscape:window-width="1920"
     inkscape:window-height="1016"
     id="namedview6"
     showgrid="false"
     fit-margin-top="0"
     fit-margin-left="0"
     fit-margin-right="0"
     fit-margin-bottom="0"
     inkscape:zoom="2.36"
     inkscape:cx="3.2295599"
     inkscape:cy="25.268245"
     inkscape:window-x="0"
     inkscape:window-y="27"
     inkscape:window-maximized="1"
     inkscape:current-layer="svg2" /><path
     d="m 3.495093,42.65643 22.49901,0 0,-22.499836 c 0,-1.931888 1.566507,-3.497568 3.497568,-3.497568 l 7.693657,0 c 1.931888,0 3.496742,1.56568 3.496742,3.497568 l 0,22.499836 22.500663,0 c 1.931887,0 3.496741,1.566507 3.496741,3.496741 l 0,7.693657 c 0,1.931061 -1.56568,3.497569 -3.496741,3.497569 l -22.49901,0 0,22.499837 c 0,1.931887 -1.564854,3.496741 -3.496741,3.496741 l -7.693658,0 c -1.931888,0 -3.497568,-1.565681 -3.497568,-3.496741 l 0,-22.49901 -22.49901,0 C 1.564859,57.345224 1.0060196e-6,55.777889 1.0060196e-6,53.847656 l 0,-7.693658 C -0.00199899,44.22211 1.564032,42.65643 3.495093,42.65643 Z"
     id="path4"
     inkscape:connector-curvature="0" /><polygon
     transform="matrix(-0.59376247,0,0,0.59376247,114.81311,20.941117)"
     points="41.295,47.999 72.416,16.879 63.537,8 23.584,47.955 23.63,47.999 23.584,48.045 63.537,88 72.416,79.122 "
     id="polygon4" /></svg>