<?xml version="1.0" encoding="UTF-8" standalone="no"?>
<svg
   xmlns:dc="http://purl.org/dc/elements/1.1/"
   xmlns:cc="http://creativecommons.org/ns#"
   xmlns:rdf="http://www.w3.org/1999/02/22-rdf-syntax-ns#"
   xmlns:svg="http://www.w3.org/2000/svg"
   xmlns="http://www.w3.org/2000/svg"
   xmlns:sodipodi="http://sodipodi.sourceforge.net/DTD/sodipodi-0.dtd"
   xmlns:inkscape="http://www.inkscape.org/namespaces/inkscape"
   version="1.1"
   x="0px"
   y="0px"
   viewBox="0 0 66.679474 66.681946"
   enable-background="new 0 0 100 100"
   xml:space="preserve"
   id="svg2"
   inkscape:version="0.91 r13725"
   sodipodi:docname="add.svg"
   width="66.679474"
   height="66.681946"><metadata
     id="metadata10"><rdf:RDF><cc:Work
         rdf:about=""><dc:format>image/svg+xml</dc:format><dc:type
           rdf:resource="http://purl.org/dc/dcmitype/StillImage" /><dc:title /></cc:Work></rdf:RDF></metadata><defs
     id="defs8" /><sodipodi:namedview
     pagecolor="#ffffff"
     bordercolor="#666666"
     borderopacity="1"
     objecttolerance="10"
     gridtolerance="10"
     guidetolerance="10"
     inkscape:pageopacity="0"
     inkscape:pageshadow="2"
     inkscape:window-width="1920"
     inkscape:window-height="1016"
     id="namedview6"
     showgrid="false"
     fit-margin-top="0"
     fit-margin-left="0"
     fit-margin-right="0"
     fit-margin-bottom="0"
     inkscape:zoom="2.36"
     inkscape:cx="3.2295608"
     inkscape:cy="11.151593"
     inkscape:window-x="0"
     inkscape:window-y="27"
     inkscape:window-maximized="1"
     inkscape:current-layer="svg2" /><path
     d="m 9.4640226,27.466118 17.9992084,0 0,-17.9998687 c 0,-1.5455104 1.253205,-2.7980544 2.798054,-2.7980544 l 6.154926,0 c 1.54551,0 2.797393,1.252544 2.797393,2.7980544 l 0,17.9998687 18.000531,0 c 1.545509,0 2.797393,1.253206 2.797393,2.797393 l 0,6.154925 c 0,1.544849 -1.252544,2.798056 -2.797393,2.798056 l -17.999208,0 0,17.999869 c 0,1.54551 -1.251883,2.797393 -2.797393,2.797393 l -6.154926,0 c -1.545511,0 -2.798055,-1.252545 -2.798055,-2.797393 l 0,-17.999208 -17.999208,0 c -1.5455096,0 -2.797396,-1.253868 -2.797396,-2.798054 l 0,-6.154926 c -0.0016,-1.545511 1.2512248,-2.798055 2.7960736,-2.798055 z"
     id="path4"
     inkscape:connector-curvature="0" /></svg>