<svg xmlns="http://www.w3.org/2000/svg" xmlns:xlink="http://www.w3.org/1999/xlink" version="1.1" x="0px" y="0px" viewBox="0 0 60 60" style="enable-background:new 0 0 60 60;" xml:space="preserve"><path d="M34.2,30l13.5-13.4c0.6-0.6,0.9-1.4,0.9-2.2c0-0.8-0.4-1.5-0.9-2c-1.3-1.1-3.2-1.1-4.2,0L30,25.8L16.6,12.3  c-0.6-0.6-1.4-0.9-2.2-0.9c-0.8,0-1.5,0.4-2,0.9c-0.5,0.6-0.8,1.3-0.8,2.1c0,0.9,0.3,1.6,0.9,2.1L25.8,30L12.3,43.4  c-0.6,0.6-0.9,1.4-0.9,2.2c0,0.8,0.4,1.5,0.9,2c0.6,0.5,1.3,0.8,2.1,0.8c0.8,0,1.6-0.3,2.1-0.9L30,34.2l13.4,13.5  c0.6,0.6,1.3,0.9,2.1,0.9c0,0,0.1,0,0.1,0c0.8,0,1.5-0.4,2-0.9c1.1-1.2,1.1-3.1,0.1-4.2L34.2,30z"></path></svg>