<?xml version="1.0" encoding="UTF-8" standalone="no"?>
<svg
   xmlns:dc="http://purl.org/dc/elements/1.1/"
   xmlns:cc="http://creativecommons.org/ns#"
   xmlns:rdf="http://www.w3.org/1999/02/22-rdf-syntax-ns#"
   xmlns:svg="http://www.w3.org/2000/svg"
   xmlns="http://www.w3.org/2000/svg"
   xmlns:sodipodi="http://sodipodi.sourceforge.net/DTD/sodipodi-0.dtd"
   xmlns:inkscape="http://www.inkscape.org/namespaces/inkscape"
   height="100px"
   width="100px"
   viewBox="0 0 54 44"
   x="0px"
   y="0px"
   version="1.1"
   id="svg10"
   sodipodi:docname="cancel.svg"
   inkscape:version="0.92.3 (2405546, 2018-03-11)">
  <metadata
     id="metadata16">
    <rdf:RDF>
      <cc:Work
         rdf:about="">
        <dc:format>image/svg+xml</dc:format>
        <dc:type
           rdf:resource="http://purl.org/dc/dcmitype/StillImage" />
      </cc:Work>
    </rdf:RDF>
  </metadata>
  <defs
     id="defs14" />
  <sodipodi:namedview
     pagecolor="#ffffff"
     bordercolor="#666666"
     borderopacity="1"
     objecttolerance="10"
     gridtolerance="10"
     guidetolerance="10"
     inkscape:pageopacity="0"
     inkscape:pageshadow="2"
     inkscape:window-width="1920"
     inkscape:window-height="1025"
     id="namedview12"
     showgrid="false"
     inkscape:zoom="2.36"
     inkscape:cx="0.63559322"
     inkscape:cy="50"
     inkscape:window-x="0"
     inkscape:window-y="27"
     inkscape:window-maximized="1"
     inkscape:current-layer="svg10" />
  <path
     d="M 38,12 H 6.83 L 15.41,3.41 A 2,2 0 1 0 12.58,0.59 l -12,12 A 1.79,1.79 0 0 0 0.33,12.9 1.19,1.19 0 0 0 0.25,13 l -0.1,0.2 a 1.17,1.17 0 0 0 -0.06,0.2 0.84,0.84 0 0 0 0,0.17 2,2 0 0 0 0,0.78 0.84,0.84 0 0 0 0,0.17 1.17,1.17 0 0 0 0.06,0.2 l 0.1,0.2 a 1.19,1.19 0 0 0 0.09,0.15 1.79,1.79 0 0 0 0.25,0.31 l 12,12 A 2,2 0 0 0 14,28 2,2 0 0 0 15.41,24.59 L 6.83,16 H 38 a 12,12 0 0 1 0,24 H 10 a 2,2 0 0 0 0,4 h 28 a 16,16 0 0 0 0,-32 z"
     id="path4"
     inkscape:connector-curvature="0" />
</svg>
