<?xml version="1.0" encoding="UTF-8" standalone="no"?>
<svg
   xmlns:dc="http://purl.org/dc/elements/1.1/"
   xmlns:cc="http://creativecommons.org/ns#"
   xmlns:rdf="http://www.w3.org/1999/02/22-rdf-syntax-ns#"
   xmlns:svg="http://www.w3.org/2000/svg"
   xmlns="http://www.w3.org/2000/svg"
   xmlns:sodipodi="http://sodipodi.sourceforge.net/DTD/sodipodi-0.dtd"
   xmlns:inkscape="http://www.inkscape.org/namespaces/inkscape"
   version="1.1"
   x="0px"
   y="0px"
   viewBox="0 0 100 100"
   id="svg4228"
   inkscape:version="0.91 r13725"
   sodipodi:docname="clear.svg">
  <metadata
     id="metadata4238">
    <rdf:RDF>
      <cc:Work
         rdf:about="">
        <dc:format>image/svg+xml</dc:format>
        <dc:type
           rdf:resource="http://purl.org/dc/dcmitype/StillImage" />
      </cc:Work>
    </rdf:RDF>
  </metadata>
  <defs
     id="defs4236" />
  <sodipodi:namedview
     pagecolor="#ffffff"
     bordercolor="#666666"
     borderopacity="1"
     objecttolerance="10"
     gridtolerance="10"
     guidetolerance="10"
     inkscape:pageopacity="0"
     inkscape:pageshadow="2"
     inkscape:window-width="1920"
     inkscape:window-height="1016"
     id="namedview4234"
     showgrid="false"
     inkscape:zoom="2.36"
     inkscape:cx="50"
     inkscape:cy="51.271186"
     inkscape:window-x="0"
     inkscape:window-y="27"
     inkscape:window-maximized="1"
     inkscape:current-layer="svg4228" />
  <g
     transform="matrix(1.1,0,0,1.1,-5.0010163,-1052.5982)"
     id="g4230">
    <path
       d="m 32.6875,20 a 3.0003,3.0003 0 0 0 -1.875,0.96875 l -25,27 a 3.0003,3.0003 0 0 0 0,4.0625 l 25,27 A 3.0003,3.0003 0 0 0 33,80 l 59,0 a 3.0003,3.0003 0 0 0 3,-3 l 0,-54 a 3.0003,3.0003 0 0 0 -3,-3 l -59,0 a 3.0003,3.0003 0 0 0 -0.3125,0 z M 34.28125,26 89,26 89,74 34.28125,74 12.0625,50 34.28125,26 Z m 12.375,8.96875 a 3.0003,3.0003 0 0 0 -1.78125,5.125 L 54.75,50 44.875,59.875 a 3.0003,3.0003 0 1 0 4.25,4.21875 l 9.875,-9.875 9.875,9.875 A 3.0003,3.0003 0 1 0 73.125,59.875 L 63.25,50 73.125,40.09375 A 3.0003,3.0003 0 0 0 70.65625,34.96875 3.0003,3.0003 0 0 0 68.875,35.875 L 59,45.75 49.125,35.875 a 3.0003,3.0003 0 0 0 -2.46875,-0.90625 z"
       transform="translate(0,952.36218)"
       id="path4232"
       inkscape:connector-curvature="0" />
  </g>
</svg>
