<?xml version="1.0" encoding="UTF-8" standalone="no"?>
<svg
   xmlns:dc="http://purl.org/dc/elements/1.1/"
   xmlns:cc="http://creativecommons.org/ns#"
   xmlns:rdf="http://www.w3.org/1999/02/22-rdf-syntax-ns#"
   xmlns:svg="http://www.w3.org/2000/svg"
   xmlns="http://www.w3.org/2000/svg"
   xmlns:sodipodi="http://sodipodi.sourceforge.net/DTD/sodipodi-0.dtd"
   xmlns:inkscape="http://www.inkscape.org/namespaces/inkscape"
   version="1.1"
   x="0px"
   y="0px"
   viewBox="0 0 44.873474 38"
   enable-background="new 0 0 64 64"
   xml:space="preserve"
   id="svg2"
   inkscape:version="0.91 r13725"
   sodipodi:docname="fields.svg"
   width="44.873474"
   height="38"><metadata
     id="metadata38"><rdf:RDF><cc:Work
         rdf:about=""><dc:format>image/svg+xml</dc:format><dc:type
           rdf:resource="http://purl.org/dc/dcmitype/StillImage" /><dc:title></dc:title></cc:Work></rdf:RDF></metadata><defs
     id="defs36" /><sodipodi:namedview
     pagecolor="#ffffff"
     bordercolor="#666666"
     borderopacity="1"
     objecttolerance="10"
     gridtolerance="10"
     guidetolerance="10"
     inkscape:pageopacity="0"
     inkscape:pageshadow="2"
     inkscape:window-width="1920"
     inkscape:window-height="1016"
     id="namedview34"
     showgrid="false"
     fit-margin-top="0"
     fit-margin-left="0"
     fit-margin-right="0"
     fit-margin-bottom="0"
     inkscape:zoom="11.313708"
     inkscape:cx="4.6827225"
     inkscape:cy="19.265165"
     inkscape:window-x="0"
     inkscape:window-y="27"
     inkscape:window-maximized="1"
     inkscape:current-layer="svg2" /><path
     d="m 38.375719,4.940067 -31.8779647,0 c -0.3665966,0 -0.6641242,0.3315184 -0.6641242,0.7399965 l 0,26.6398725 c 0,0.409218 0.2975276,0.739997 0.6641242,0.739997 l 31.8779647,0 c 0.367261,0 0.664125,-0.330779 0.664125,-0.739997 l 0,-26.6398725 c 0,-0.4084781 -0.296864,-0.7399965 -0.664125,-0.7399965 z m -11.290113,5.919972 0,20.719901 -9.297739,0 0,-20.719901 z m -19.9237274,0 9.2977394,0 0,20.719901 -9.2977394,0 z m 21.2519764,20.719901 0,-20.719901 9.29774,0 0,20.719901 z"
     id="path8"
     inkscape:connector-curvature="0"
     sodipodi:nodetypes="sssssssssccccccccccccccc" /></svg>