<?xml version="1.0" encoding="UTF-8" standalone="no"?>
<svg
   xmlns:dc="http://purl.org/dc/elements/1.1/"
   xmlns:cc="http://creativecommons.org/ns#"
   xmlns:rdf="http://www.w3.org/1999/02/22-rdf-syntax-ns#"
   xmlns:svg="http://www.w3.org/2000/svg"
   xmlns="http://www.w3.org/2000/svg"
   xmlns:sodipodi="http://sodipodi.sourceforge.net/DTD/sodipodi-0.dtd"
   xmlns:inkscape="http://www.inkscape.org/namespaces/inkscape"
   version="1.1"
   x="0px"
   y="0px"
   viewBox="0 0 78.526711 57.5"
   xml:space="preserve"
   id="svg2"
   inkscape:version="0.91 r13725"
   sodipodi:docname="filters.svg"
   width="78.526711"
   height="57.5"><metadata
     id="metadata12"><rdf:RDF><cc:Work
         rdf:about=""><dc:format>image/svg+xml</dc:format><dc:type
           rdf:resource="http://purl.org/dc/dcmitype/StillImage" /><dc:title></dc:title></cc:Work></rdf:RDF></metadata><defs
     id="defs10" /><sodipodi:namedview
     pagecolor="#ffffff"
     bordercolor="#666666"
     borderopacity="1"
     objecttolerance="10"
     gridtolerance="10"
     guidetolerance="10"
     inkscape:pageopacity="0"
     inkscape:pageshadow="2"
     inkscape:window-width="1920"
     inkscape:window-height="1016"
     id="namedview8"
     showgrid="false"
     fit-margin-top="0"
     fit-margin-left="0"
     fit-margin-right="0"
     fit-margin-bottom="0"
     inkscape:zoom="5.6568542"
     inkscape:cx="39.086576"
     inkscape:cy="28.692805"
     inkscape:window-x="0"
     inkscape:window-y="27"
     inkscape:window-maximized="1"
     inkscape:current-layer="svg2" /><g
     id="g4"
     transform="matrix(0.72330604,0,0,0.72330604,4.5446653,5.5680414)"><path
       d="m 40.7,60.8 14.5,0 c 1.7,0 3,-1.3 3,-3 L 58.2,35.5 86.8,7.8 C 87.4,6.9 87.4,5.7 86.9,4.8 86.4,3.9 85.4,3.3 84.3,3.3 l -72.6,0 c -1.1,0 -2.1,0.6 -2.6,1.5 -0.5,0.9 -0.5,2.1 0.1,3 l 28.6,27.7 0,22.4 c -0.1,1.6 1.3,2.9 2.9,2.9 z"
       id="path6"
       inkscape:connector-curvature="0"
       sodipodi:nodetypes="sssccsssscccs" /></g></svg>