<?xml version="1.0" encoding="UTF-8" standalone="no"?>
<svg
   xmlns:dc="http://purl.org/dc/elements/1.1/"
   xmlns:cc="http://creativecommons.org/ns#"
   xmlns:rdf="http://www.w3.org/1999/02/22-rdf-syntax-ns#"
   xmlns:svg="http://www.w3.org/2000/svg"
   xmlns="http://www.w3.org/2000/svg"
   xmlns:sodipodi="http://sodipodi.sourceforge.net/DTD/sodipodi-0.dtd"
   xmlns:inkscape="http://www.inkscape.org/namespaces/inkscape"
   viewBox="0 0 24 24"
   version="1.1"
   x="0px"
   y="0px"
   id="svg2"
   inkscape:version="0.91 r13725"
   sodipodi:docname="grid-size.svg"
   width="100%"
   height="100%">
  <metadata
     id="metadata28">
    <rdf:RDF>
      <cc:Work
         rdf:about="">
        <dc:format>image/svg+xml</dc:format>
        <dc:type
           rdf:resource="http://purl.org/dc/dcmitype/StillImage" />
      </cc:Work>
    </rdf:RDF>
  </metadata>
  <defs
     id="defs26" />
  <sodipodi:namedview
     pagecolor="#ffffff"
     bordercolor="#666666"
     borderopacity="1"
     objecttolerance="10"
     gridtolerance="10"
     guidetolerance="10"
     inkscape:pageopacity="0"
     inkscape:pageshadow="2"
     inkscape:window-width="1920"
     inkscape:window-height="1016"
     id="namedview24"
     showgrid="false"
     inkscape:zoom="9.8333333"
     inkscape:cx="-3.1016949"
     inkscape:cy="12.305085"
     inkscape:window-x="0"
     inkscape:window-y="27"
     inkscape:window-maximized="1"
     inkscape:current-layer="svg2" />
  <path
     inkscape:connector-curvature="0"
     id="path14"
     d="m 13,18 0,1 -6,0 0.4,-1 5.6,0 z" />
  <path
     inkscape:connector-curvature="0"
     id="path16"
     d="M 21,4 21,2.5 C 21,1.6715729 20.328427,1 19.5,1 L 1.5,1 C 0.67157287,1 0,1.6715729 0,2.5 l 0,13 C 0,16.328427 0.67157287,17 1.5,17 L 13,17 13,14 1,14 1,2.5 C 1,2.2238576 1.2238576,2 1.5,2 l 18,0 C 19.776142,2 20,2.2238576 20,2.5 l 0,1.5 1,0 z" />
  <path
     inkscape:connector-curvature="0"
     id="path18"
     d="m 6.5,20 6.5,0 0,-1 -6.5,0 C 6.2238576,19 6,19.223858 6,19.5 6,19.776142 6.2238576,20 6.5,20 Z" />
  <path
     d="m 15.5,5 7,0 C 23.328427,5 24,5.6715729 24,6.5 l 0,15 c 0,0.828427 -0.671573,1.5 -1.5,1.5 l -7,0 C 14.671573,23 14,22.328427 14,21.5 l 0,-15 C 14,5.6715729 14.671573,5 15.5,5 Z m -0.5,2 0,12 8,0 0,-12 -8,0 z m 5,14 c 0,-0.552285 -0.447715,-1 -1,-1 -0.552285,0 -1,0.447715 -1,1 0,0.552285 0.447715,1 1,1 0.552285,0 1,-0.447715 1,-1 z"
     id="path22"
     inkscape:connector-curvature="0" />
</svg>
