<?xml version="1.0" encoding="UTF-8" standalone="no"?>
<svg
   xmlns:dc="http://purl.org/dc/elements/1.1/"
   xmlns:cc="http://creativecommons.org/ns#"
   xmlns:rdf="http://www.w3.org/1999/02/22-rdf-syntax-ns#"
   xmlns:svg="http://www.w3.org/2000/svg"
   xmlns="http://www.w3.org/2000/svg"
   xmlns:sodipodi="http://sodipodi.sourceforge.net/DTD/sodipodi-0.dtd"
   xmlns:inkscape="http://www.inkscape.org/namespaces/inkscape"
   viewBox="0 0 39 29"
   version="1.1"
   x="0px"
   y="0px"
   id="svg4167"
   inkscape:version="0.91 r13725"
   sodipodi:docname="list.svg"
   width="39"
   height="29">
  <metadata
     id="metadata4183">
    <rdf:RDF>
      <cc:Work
         rdf:about="">
        <dc:format>image/svg+xml</dc:format>
        <dc:type
           rdf:resource="http://purl.org/dc/dcmitype/StillImage" />
        <dc:title>List v4.4</dc:title>
      </cc:Work>
    </rdf:RDF>
  </metadata>
  <defs
     id="defs4181" />
  <sodipodi:namedview
     pagecolor="#ffffff"
     bordercolor="#666666"
     borderopacity="1"
     objecttolerance="10"
     gridtolerance="10"
     guidetolerance="10"
     inkscape:pageopacity="0"
     inkscape:pageshadow="2"
     inkscape:window-width="1920"
     inkscape:window-height="1016"
     id="namedview4179"
     showgrid="false"
     fit-margin-top="0"
     fit-margin-left="0"
     fit-margin-right="0"
     fit-margin-bottom="0"
     inkscape:zoom="8.5"
     inkscape:cx="19.5"
     inkscape:cy="14.852941"
     inkscape:window-x="0"
     inkscape:window-y="27"
     inkscape:window-maximized="1"
     inkscape:current-layer="svg4167" />
  <title
     id="title4169">List v4.4</title>
  <desc
     id="desc4171">Created with Sketch.</desc>
  <g
     id="g4173"
     transform="matrix(0.8,0,0,0.8,-20.5,-25.5)">
    <g
       id="g4175"
       style="fill:#000000;fill-rule:nonzero">
      <path
         d="m 39.5,52 0,-4 30,0 0,4 -30,0 z m 0,12 0,-4 30,0 0,4 -30,0 z m 0,-24 0,-4 30,0 0,4 -30,0 z m -9,12.5 0,-5 5,0 0,5 -5,0 z m 0,12 0,-5 5,0 0,5 -5,0 z m 0,-24 0,-5 5,0 0,5 -5,0 z"
         id="path4177"
         inkscape:connector-curvature="0" />
    </g>
  </g>
</svg>
