<?xml version="1.0" encoding="UTF-8" standalone="no"?>
<svg
   xmlns:dc="http://purl.org/dc/elements/1.1/"
   xmlns:cc="http://creativecommons.org/ns#"
   xmlns:rdf="http://www.w3.org/1999/02/22-rdf-syntax-ns#"
   xmlns:svg="http://www.w3.org/2000/svg"
   xmlns="http://www.w3.org/2000/svg"
   xmlns:sodipodi="http://sodipodi.sourceforge.net/DTD/sodipodi-0.dtd"
   xmlns:inkscape="http://www.inkscape.org/namespaces/inkscape"
   version="1.1"
   x="0px"
   y="0px"
   viewBox="0 0 100 75.445"
   enable-background="new 0 0 100 75.445"
   xml:space="preserve"
   id="svg3551"
   inkscape:version="0.91 r13725"
   sodipodi:docname="locales.svg"><metadata
     id="metadata3571"><rdf:RDF><cc:Work
         rdf:about=""><dc:format>image/svg+xml</dc:format><dc:type
           rdf:resource="http://purl.org/dc/dcmitype/StillImage" /></cc:Work></rdf:RDF></metadata><defs
     id="defs3569" /><sodipodi:namedview
     pagecolor="#ffffff"
     bordercolor="#666666"
     borderopacity="1"
     objecttolerance="10"
     gridtolerance="10"
     guidetolerance="10"
     inkscape:pageopacity="0"
     inkscape:pageshadow="2"
     inkscape:window-width="1920"
     inkscape:window-height="1016"
     id="namedview3567"
     showgrid="false"
     inkscape:zoom="3.1281066"
     inkscape:cx="49.680318"
     inkscape:cy="38.681546"
     inkscape:window-x="0"
     inkscape:window-y="27"
     inkscape:window-maximized="1"
     inkscape:current-layer="svg3551" /><g
     id="g3573"
     transform="matrix(1.0249091,0,0,1.0249091,3.7221864,2.919666)"><g
       transform="matrix(0.90148606,0,0,0.90148606,0.02307985,0.17515778)"
       id="g3553"><path
         inkscape:connector-curvature="0"
         id="path3555"
         d="m 69.52,26.196 c 0.104,1.745 0.206,3.351 0.451,4.746 1.364,-1.431 2.551,-3.246 3.422,-5.235 -0.49,-0.071 -2.303,0.069 -3.873,0.489 z" /><path
         inkscape:connector-curvature="0"
         id="path3557"
         d="m 60.898,33.421 c 0,1.989 1.5,1.92 1.954,1.884 1.081,-0.032 2.27,-0.522 3.492,-1.325 -0.388,-1.85 -0.631,-4.016 -0.805,-6.388 -2.757,1.361 -4.641,3.489 -4.641,5.829 z" /><path
         inkscape:connector-curvature="0"
         id="path3559"
         d="M 99.763,29.503 C 101.242,16.194 89.562,3.89 73.682,2.022 72.308,1.861 70.953,1.778 69.613,1.778 c -14.156,0 -26.023,8.791 -27.377,20.948 -1.479,13.309 10.196,25.614 26.079,27.481 1.363,0.162 2.709,0.24 4.036,0.24 1.465,0 2.902,-0.1 4.308,-0.28 5.686,6.187 11.622,7.855 14.942,7.855 2.131,0 3.184,-0.688 2.409,-1.298 C 89.163,52.875 88.134,49.12 88.441,46.166 94.672,42.441 98.978,36.537 99.763,29.503 Z M 76.682,41.234 75.028,37.703 c 4.155,-1.036 6.711,-3.013 6.711,-6.202 0,-1.152 -0.388,-3.874 -4.156,-5.096 -1.535,3.49 -3.873,6.736 -6.597,9.075 0.14,0.454 1.032,2.051 1.205,2.399 l -3.596,2.305 c -0.176,-0.35 -1.064,-1.945 -1.204,-2.363 -1.746,0.977 -3.667,1.605 -5.623,1.605 -3.069,0 -5.093,-1.957 -5.093,-5.201 0,-4.818 3.701,-8.623 8.658,-10.648 -0.073,-1.501 -0.073,-3.037 -0.073,-4.643 -2.617,0.071 -5.444,0.141 -6.839,0.105 l -0.212,-4.084 c 1.606,0.035 4.536,0.035 7.124,0.035 0.067,-1.5 0.103,-3.245 0.17,-4.712 l 4.547,0.348 c -0.067,0.348 -0.182,3.108 -0.286,4.225 3.806,-0.175 8.586,-0.628 12.463,-1.466 l 0.381,4.224 c -3.837,0.697 -8.865,1.047 -13.052,1.187 -0.036,1.222 -0.071,2.409 -0.071,3.562 1.465,-0.35 3.597,-0.559 5.235,-0.455 0.14,-0.523 0.245,-1.048 0.278,-1.57 l 4.296,1.082 c -0.106,0.385 -0.211,0.769 -0.278,1.153 5.059,1.397 7.293,4.921 7.293,8.831 0.003,4.786 -3.081,8.245 -9.627,9.835 z" /></g><g
       transform="matrix(0.90148606,0,0,0.90148606,0.02307985,0.17515778)"
       id="g3561"><path
         inkscape:connector-curvature="0"
         id="path3563"
         d="m 39.309,22.324 c 0.132,-1.267 0.725,-3.235 0.978,-3.988 -2.833,-0.803 -6.475,-1.413 -9.623,-1.413 -1.346,0 -2.708,0.083 -4.089,0.244 -15.961,1.869 -27.699,14.173 -26.214,27.482 0.79,7.035 5.118,12.939 11.38,16.666 0.308,2.95 -0.727,6.707 -5.599,10.558 -0.778,0.607 0.281,1.296 2.423,1.296 3.336,0 9.304,-1.667 15.016,-7.854 1.413,0.18 2.858,0.277 4.331,0.277 1.334,0 2.687,-0.078 4.056,-0.238 C 42.572,64.112 51.254,58.716 55.998,49.871 45.301,44.531 38.043,34.448 39.309,22.324 Z m -5.629,33.941 -2.15,-7.937 -8.053,0 -2.072,7.937 -5.864,0 8.522,-30.062 7.271,0 8.405,30.062 -6.059,0 z" /><path
         inkscape:connector-curvature="0"
         id="path3565"
         d="m 27.542,30.972 -0.117,0 c -0.391,1.877 -0.899,4.339 -1.33,6.099 l -1.798,6.88 6.411,0 -1.798,-6.841 c -0.469,-1.877 -0.977,-4.301 -1.368,-6.138 z" /></g></g></svg>