<?xml version="1.0" encoding="UTF-8" standalone="no"?>
<svg
   xmlns:dc="http://purl.org/dc/elements/1.1/"
   xmlns:cc="http://creativecommons.org/ns#"
   xmlns:rdf="http://www.w3.org/1999/02/22-rdf-syntax-ns#"
   xmlns:svg="http://www.w3.org/2000/svg"
   xmlns="http://www.w3.org/2000/svg"
   xmlns:sodipodi="http://sodipodi.sourceforge.net/DTD/sodipodi-0.dtd"
   xmlns:inkscape="http://www.inkscape.org/namespaces/inkscape"
   version="1.1"
   x="0px"
   y="0px"
   viewBox="0 0 92 92"
   enable-background="new 0 0 92 92"
   xml:space="preserve"
   id="svg3479"
   inkscape:version="0.91 r13725"
   sodipodi:docname="open-url.svg"><metadata
     id="metadata3487"><rdf:RDF><cc:Work
         rdf:about=""><dc:format>image/svg+xml</dc:format><dc:type
           rdf:resource="http://purl.org/dc/dcmitype/StillImage" /><dc:title></dc:title></cc:Work></rdf:RDF></metadata><defs
     id="defs3485" /><sodipodi:namedview
     pagecolor="#ffffff"
     bordercolor="#666666"
     borderopacity="1"
     objecttolerance="10"
     gridtolerance="10"
     guidetolerance="10"
     inkscape:pageopacity="0"
     inkscape:pageshadow="2"
     inkscape:window-width="1920"
     inkscape:window-height="1016"
     id="namedview3483"
     showgrid="false"
     inkscape:zoom="1"
     inkscape:cx="54.855829"
     inkscape:cy="16.742296"
     inkscape:window-x="0"
     inkscape:window-y="27"
     inkscape:window-maximized="1"
     inkscape:current-layer="svg3479" /><path
     d="M 46,0 C 20.6,0 0,20.6 0,46 c 0,25.4 20.6,46 46,46 11.023627,0 21.137313,-3.886158 29.060547,-10.355469 -0.131013,-0.194439 -0.290806,-0.419139 -0.355469,-0.607422 -6.835103,4.210024 -15.532796,4.163415 -22.259766,-0.234375 -1.120834,1.320329 -2.082202,2.334156 -2.746093,2.998047 -0.2,0 -0.399219,-3.9e-4 -0.699219,0.09961 l 0,-5.902344 C 45.190603,74.128188 43.205063,69.154915 43,64.128906 l 0,19.771485 c -0.2,0 -0.399219,-0.09961 -0.699219,-0.09961 -2.7,-2.7 -9.7,-10.501562 -13.5,-22.101562 4.2,0.3 8.999219,0.5 14.199219,0.5 l 0,0.214843 c 0.205077,-5.024599 2.190093,-9.982903 6,-13.820312 l 0,-12.792969 c 5.8,0.1 11.099219,0.29961 15.699219,0.59961 0.391104,1.95552 0.683856,4.00538 0.849609,6.130859 2.081543,0.176723 4.141322,0.655083 6.103516,1.455078 C 71.555845,41.601256 71.294695,39.208106 70.900391,37 c 5.9,0.6 10.098828,1.199609 12.298828,1.599609 C 83.699219,40.999609 84,43.5 84,46 c 0,2.5 -0.299219,5.000391 -0.699219,7.400391 -0.302366,0.05497 -0.734182,0.121581 -1.111328,0.183593 3.469716,6.621625 3.153085,14.736689 -0.974609,21.052735 0.143988,0.162333 0.254078,0.288037 0.394536,0.447267 C 88.094203,67.156167 92,57.038218 92,46 92,20.6 71.4,0 46,0 Z m -3,8.0996094 0,21.7011716 c -5.2,0.1 -9.899609,0.2 -14.099609,0.5 3.8,-11.4 10.80039,-19.401562 13.40039,-22.1015622 0.3,0 0.499219,-0.099609 0.699219,-0.099609 z m 6,0 c 0.2,0 0.399609,0.099609 0.599609,0.099609 2.7,2.7000006 9.6,10.7015626 13.5,22.1015626 -4.2,-0.3 -8.899609,-0.5 -14.099609,-0.5 z M 32.599609,10.400391 c -3.6,4.8 -7.699609,11.698828 -10.099609,20.298828 -5,0.4 -9.000391,1.00039 -11.900391,1.40039 3.9,-9.9 12,-17.899218 22,-21.699218 z m 26.800782,0 c 10.1,3.8 18.1,11.798828 22,21.798828 -2.8,-0.4 -6.800391,-0.898438 -11.900391,-1.398438 -2.4,-8.6 -6.599609,-15.50039 -10.099609,-20.40039 z M 43,35.800781 43,56.199219 C 37.2,56.099219 31.899219,55.9 27.199219,55.5 c -0.5,-2.9 -0.898438,-6.1 -0.898438,-9.5 0,-3.4 0.4,-6.599609 1,-9.599609 4.6,-0.3 9.799219,-0.59961 15.699219,-0.59961 z M 21,37 c -0.5,2.9 -0.800781,5.899609 -0.800781,9.099609 0,3.2 0.301172,6.2 0.701172,9 C 15.100391,54.499609 10.799609,53.9 8.5996094,53.5 8.2996094,51 8,48.5 8,46 8,43.5 8.2992187,40.999609 8.6992188,38.599609 10.899219,38.199609 15.1,37.6 21,37 Z M 10.599609,59.800781 c 2.8,0.4 6.800782,0.898438 11.800782,1.398438 2.4,8.6 6.4,15.500781 10,20.300781 -10,-3.9 -17.900782,-11.799219 -21.800782,-21.699219 z"
     id="path3481"
     inkscape:connector-curvature="0"
     sodipodi:nodetypes="ssscccccccccccccccccccsccccsscccccccccccccccccccccscccsccscccccc" /><path
     d="M 63.658203 46.568359 C 59.412292 46.568359 55.165986 48.185578 51.929688 51.421875 C 45.457098 57.894469 45.457098 68.405678 51.929688 74.933594 C 57.849066 80.908296 67.142002 81.351331 73.669922 76.427734 L 85.785156 89.814453 C 87.002226 91.142165 89.104563 91.198171 90.376953 89.925781 C 91.649343 88.65339 91.595298 86.551051 90.267578 85.333984 L 76.878906 73.164062 C 81.802496 66.691468 81.304146 57.341256 75.384766 51.421875 C 72.148471 48.185578 67.904114 46.568359 63.658203 46.568359 z M 63.628906 50.951172 C 66.74073 50.951172 69.853602 52.140715 72.232422 54.519531 C 76.990052 59.277164 76.990052 66.966976 72.232422 71.724609 C 67.474782 76.482243 59.784974 76.482243 55.027344 71.724609 C 50.325024 67.022297 50.325024 59.277164 55.027344 54.519531 C 57.406159 52.140715 60.517082 50.951172 63.628906 50.951172 z "
     id="path4" /></svg>