<?xml version="1.0" encoding="UTF-8" standalone="no"?>
<svg
   xmlns:dc="http://purl.org/dc/elements/1.1/"
   xmlns:cc="http://creativecommons.org/ns#"
   xmlns:rdf="http://www.w3.org/1999/02/22-rdf-syntax-ns#"
   xmlns:svg="http://www.w3.org/2000/svg"
   xmlns="http://www.w3.org/2000/svg"
   xmlns:sodipodi="http://sodipodi.sourceforge.net/DTD/sodipodi-0.dtd"
   xmlns:inkscape="http://www.inkscape.org/namespaces/inkscape"
   version="1.1"
   viewBox="0 0 88 69.278313"
   xml:space="preserve"
   id="svg4848"
   inkscape:version="0.91 r13725"
   sodipodi:docname="save.svg"
   width="100%"
   height="100%"><metadata
     id="metadata4858"><rdf:RDF><cc:Work
         rdf:about=""><dc:format>image/svg+xml</dc:format><dc:type
           rdf:resource="http://purl.org/dc/dcmitype/StillImage" /><dc:title /></cc:Work></rdf:RDF></metadata><defs
     id="defs4856" /><sodipodi:namedview
     pagecolor="#ffffff"
     bordercolor="#666666"
     borderopacity="1"
     objecttolerance="10"
     gridtolerance="10"
     guidetolerance="10"
     inkscape:pageopacity="0"
     inkscape:pageshadow="2"
     inkscape:window-width="1920"
     inkscape:window-height="1016"
     id="namedview4854"
     showgrid="false"
     inkscape:zoom="2.36"
     inkscape:cx="16.338983"
     inkscape:cy="32.356136"
     inkscape:window-x="0"
     inkscape:window-y="27"
     inkscape:window-maximized="1"
     inkscape:current-layer="svg4848"
     fit-margin-top="0"
     fit-margin-left="0"
     fit-margin-right="0"
     fit-margin-bottom="0" /><g
     id="g4850"
     transform="matrix(0.7,0,0,0.7,10.999812,-12.698236)"><path
       d="m 85.024,23.344 -4.793,-3.856 c -2.361,-1.899 -3.735,-1.878 -5.758,0.62 l -34.83,42.985 -16.21,-13.47 c -2.236,-1.877 -3.636,-1.776 -5.475,0.523 l -3.698,4.812 c -1.878,2.361 -1.638,3.705 0.582,5.559 l 23.101,19.107 c 2.379,1.998 3.718,1.795 5.557,-0.441 L 85.626,29.1 c 1.978,-2.377 1.857,-3.798 -0.602,-5.756 z"
       id="path4852"
       inkscape:connector-curvature="0" /></g><path
     d="m 0,43.922838 0,25.355472 88,0 0,-25.355472 -7.5,0 0,19.003906 -73,0 0,-19.003906 z"
     id="rect5439"
     inkscape:connector-curvature="0"
     sodipodi:nodetypes="ccccccccc" /></svg>