<?xml version="1.0" encoding="UTF-8" standalone="no"?>
<svg
   xmlns:dc="http://purl.org/dc/elements/1.1/"
   xmlns:cc="http://creativecommons.org/ns#"
   xmlns:rdf="http://www.w3.org/1999/02/22-rdf-syntax-ns#"
   xmlns:svg="http://www.w3.org/2000/svg"
   xmlns="http://www.w3.org/2000/svg"
   xmlns:sodipodi="http://sodipodi.sourceforge.net/DTD/sodipodi-0.dtd"
   xmlns:inkscape="http://www.inkscape.org/namespaces/inkscape"
   version="1.1"
   x="0px"
   y="0px"
   viewBox="0 0 100 100"
   xml:space="preserve"
   id="svg2"
   inkscape:version="0.91 r13725"
   sodipodi:docname="toggle-rulers.svg"
   width="100%"
   height="100%"><metadata
     id="metadata10"><rdf:RDF><cc:Work
         rdf:about=""><dc:format>image/svg+xml</dc:format><dc:type
           rdf:resource="http://purl.org/dc/dcmitype/StillImage" /></cc:Work></rdf:RDF></metadata><defs
     id="defs8" /><sodipodi:namedview
     pagecolor="#ffffff"
     bordercolor="#666666"
     borderopacity="1"
     objecttolerance="10"
     gridtolerance="10"
     guidetolerance="10"
     inkscape:pageopacity="0"
     inkscape:pageshadow="2"
     inkscape:window-width="1920"
     inkscape:window-height="1016"
     id="namedview6"
     showgrid="false"
     inkscape:zoom="2.36"
     inkscape:cx="50.847458"
     inkscape:cy="51.271186"
     inkscape:window-x="0"
     inkscape:window-y="27"
     inkscape:window-maximized="1"
     inkscape:current-layer="svg2" /><path
     d="m 89.8,36.8 -7.1,0 0,9.4 -3.2,0 0,-9.4 -9.2,0 0,9.4 -3.2,0 0,-9.4 -9.2,0 0,9.4 -3.2,0 0,-9.4 -9.2,0 0,9.4 -3.2,0 0,-9.4 -9.2,0 0,9.4 -3.1,0 0,-9.4 -9.2,0 0,9.4 -3.2,0 0,-9.4 -7.4,0 c -1.9,0 -3.5,1.5 -3.5,3.5 l 0,19.6 c 0,1.9 1.5,3.5 3.5,3.5 l 79.6,0 c 1.9,0 3.5,-1.5 3.5,-3.5 l 0,-19.7 c 0,-1.9 -1.6,-3.4 -3.5,-3.4 z"
     id="path4"
     inkscape:connector-curvature="0" /></svg>