<svg xmlns="http://www.w3.org/2000/svg" xmlns:xlink="http://www.w3.org/1999/xlink" version="1.1" x="0px" y="0px" viewBox="0 0 100 100" enable-background="new 0 0 100 100" xml:space="preserve"><g><g><polygon points="92.336,92.336 82.027,92.336 82.027,86.445 86.445,86.445 86.445,82.027 92.336,82.027   "></polygon></g><g><path d="M69.217,92.336H56.405v-5.891h12.812V92.336z M43.594,92.336H30.782v-5.891h12.812V92.336z"></path></g><g><polygon points="17.971,92.336 7.664,92.336 7.664,82.027 13.554,82.027 13.554,86.445 17.971,86.445   "></polygon></g><g><path d="M13.554,69.215h-5.89V56.404h5.89V69.215z M13.554,43.593h-5.89V30.782h5.89V43.593z"></path></g><g><polygon points="13.554,17.971 7.664,17.971 7.664,7.664 17.971,7.664 17.971,13.554 13.554,13.554   "></polygon></g><g><path d="M69.217,13.554H56.405v-5.89h12.812V13.554z M43.594,13.554H30.782v-5.89h12.812V13.554z"></path></g><g><polygon points="92.336,17.971 86.445,17.971 86.445,13.554 82.027,13.554 82.027,7.664 92.336,7.664   "></polygon></g><g><path d="M92.336,69.215h-5.891V56.404h5.891V69.215z M92.336,43.593h-5.891V30.782h5.891V43.593z"></path></g></g></svg>