<?xml version="1.0" encoding="UTF-8" standalone="no"?>
<svg
   xmlns:dc="http://purl.org/dc/elements/1.1/"
   xmlns:cc="http://creativecommons.org/ns#"
   xmlns:rdf="http://www.w3.org/1999/02/22-rdf-syntax-ns#"
   xmlns:svg="http://www.w3.org/2000/svg"
   xmlns="http://www.w3.org/2000/svg"
   xmlns:sodipodi="http://sodipodi.sourceforge.net/DTD/sodipodi-0.dtd"
   xmlns:inkscape="http://www.inkscape.org/namespaces/inkscape"
   version="1.1"
   x="0px"
   y="0px"
   viewBox="0 0 79.999969 62.00042"
   id="svg3596"
   inkscape:version="0.91 r13725"
   sodipodi:docname="websites.svg"
   width="79.999969"
   height="62.00042">
  <metadata
     id="metadata3606">
    <rdf:RDF>
      <cc:Work
         rdf:about="">
        <dc:format>image/svg+xml</dc:format>
        <dc:type
           rdf:resource="http://purl.org/dc/dcmitype/StillImage" />
        <dc:title></dc:title>
      </cc:Work>
    </rdf:RDF>
  </metadata>
  <defs
     id="defs3604" />
  <sodipodi:namedview
     pagecolor="#ffffff"
     bordercolor="#666666"
     borderopacity="1"
     objecttolerance="10"
     gridtolerance="10"
     guidetolerance="10"
     inkscape:pageopacity="0"
     inkscape:pageshadow="2"
     inkscape:window-width="1920"
     inkscape:window-height="1016"
     id="namedview3602"
     showgrid="false"
     fit-margin-top="0"
     fit-margin-left="0"
     fit-margin-right="0"
     fit-margin-bottom="0"
     inkscape:zoom="2.36"
     inkscape:cx="1.8643907"
     inkscape:cy="32.271406"
     inkscape:window-x="0"
     inkscape:window-y="27"
     inkscape:window-maximized="1"
     inkscape:current-layer="svg3596" />
  <g
     transform="translate(-10.000016,-971.36198)"
     id="g3598">
    <path
       d="m 49.946123,971.36242 c -0.41963,0.009 -0.81114,0.14803 -1.1875,0.40625 l -38,30.00003 c -0.8742898,0.7021 -0.9983298,1.9978 -0.34375,2.8437 0.64516,0.8338 2.01747,0.9673 2.84375,0.3125 l 36.75,-28.99998 36.75,28.99998 c 0.82628,0.6548 2.16085,0.5162 2.8125,-0.3125 0.64676,-0.8225 0.57722,-2.1888 -0.3125,-2.8437 l -38,-30.00003 c -0.44512,-0.29323 -0.89287,-0.415 -1.3125,-0.40625 z m 0.0625,8 -27,20.99998 0,33 19,0 0,-20 16,0 0,20 19,0 0,-33 -27,-20.99998 z"
       visibility="visible"
       display="inline"
       overflow="visible"
       id="path3600"
       inkscape:connector-curvature="0"
       style="display:inline;overflow:visible;visibility:visible" />
  </g>
</svg>
