<?xml version="1.0" encoding="UTF-8" standalone="no"?>
<svg
   xmlns:dc="http://purl.org/dc/elements/1.1/"
   xmlns:cc="http://creativecommons.org/ns#"
   xmlns:rdf="http://www.w3.org/1999/02/22-rdf-syntax-ns#"
   xmlns:svg="http://www.w3.org/2000/svg"
   xmlns="http://www.w3.org/2000/svg"
   xmlns:sodipodi="http://sodipodi.sourceforge.net/DTD/sodipodi-0.dtd"
   xmlns:inkscape="http://www.inkscape.org/namespaces/inkscape"
   version="1.1"
   x="0px"
   y="0px"
   viewBox="0 0 42 32"
   xml:space="preserve"
   id="svg5458"
   inkscape:version="0.91 r13725"
   sodipodi:docname="type-woost-models-rendering-renderer-Renderer.svg"
   width="42"
   height="32"><metadata
     id="metadata5466"><rdf:RDF><cc:Work
         rdf:about=""><dc:format>image/svg+xml</dc:format><dc:type
           rdf:resource="http://purl.org/dc/dcmitype/StillImage" /><dc:title></dc:title></cc:Work></rdf:RDF></metadata><defs
     id="defs5464" /><sodipodi:namedview
     pagecolor="#ffffff"
     bordercolor="#666666"
     borderopacity="1"
     objecttolerance="10"
     gridtolerance="10"
     guidetolerance="10"
     inkscape:pageopacity="0"
     inkscape:pageshadow="2"
     inkscape:window-width="1920"
     inkscape:window-height="1016"
     id="namedview5462"
     showgrid="false"
     fit-margin-top="0"
     fit-margin-left="0"
     fit-margin-right="0"
     fit-margin-bottom="0"
     inkscape:zoom="2.36"
     inkscape:cx="20.576271"
     inkscape:cy="17.271186"
     inkscape:window-x="1920"
     inkscape:window-y="27"
     inkscape:window-maximized="1"
     inkscape:current-layer="svg5458" /><path
     d="m 37.15,5.8 -7.055,0 -1.02,-2.38 C 28.82,2.825 28.225,2.4 27.545,2.4 l -13.09,0 c -0.68,0 -1.275,0.425 -1.53,1.02 l -1.02,2.38 -7.055,0 c -0.935,0 -1.7,0.765 -1.7,1.7 l 0,20.4 c 0,0.935 0.765,1.7 1.7,1.7 l 32.3,0 c 0.935,0 1.7,-0.765 1.7,-1.7 l 0,-20.4 c 0,-0.935 -0.765,-1.7 -1.7,-1.7 z M 7.4,11.75 c -0.935,0 -1.7,-0.765 -1.7,-1.7 0,-0.935 0.765,-1.7 1.7,-1.7 0.935,0 1.7,0.765 1.7,1.7 0,0.935 -0.765,1.7 -1.7,1.7 z M 21,26.2 c -4.675,0 -8.5,-3.825 -8.5,-8.5 0,-4.675 3.825,-8.5 8.5,-8.5 4.675,0 8.5,3.825 8.5,8.5 0,4.675 -3.825,8.5 -8.5,8.5 z m 6.8,-8.5 c 0,3.74 -3.06,6.8 -6.8,6.8 -3.74,0 -6.8,-3.06 -6.8,-6.8 0,-3.74 3.06,-6.8 6.8,-6.8 3.74,0 6.8,3.06 6.8,6.8 z"
     id="path5460"
     inkscape:connector-curvature="0" /></svg>