<?xml version="1.0" encoding="UTF-8" standalone="no"?>
<svg
   xmlns:dc="http://purl.org/dc/elements/1.1/"
   xmlns:cc="http://creativecommons.org/ns#"
   xmlns:rdf="http://www.w3.org/1999/02/22-rdf-syntax-ns#"
   xmlns:svg="http://www.w3.org/2000/svg"
   xmlns="http://www.w3.org/2000/svg"
   xmlns:sodipodi="http://sodipodi.sourceforge.net/DTD/sodipodi-0.dtd"
   xmlns:inkscape="http://www.inkscape.org/namespaces/inkscape"
   version="1.1"
   x="0px"
   y="0px"
   viewBox="2 -87.6 285.7962 248.58581"
   enable-background="new 2 -87.6 326 425.2"
   xml:space="preserve"
   id="svg4192"
   inkscape:version="0.91 r13725"
   sodipodi:docname="type-woost-models-theme-Theme.svg"
   width="285.7962"
   height="248.58582"><metadata
     id="metadata4208"><rdf:RDF><cc:Work
         rdf:about=""><dc:format>image/svg+xml</dc:format><dc:type
           rdf:resource="http://purl.org/dc/dcmitype/StillImage" /><dc:title></dc:title></cc:Work></rdf:RDF></metadata><defs
     id="defs4206" /><sodipodi:namedview
     pagecolor="#ffffff"
     bordercolor="#666666"
     borderopacity="1"
     objecttolerance="10"
     gridtolerance="10"
     guidetolerance="10"
     inkscape:pageopacity="0"
     inkscape:pageshadow="2"
     inkscape:window-width="1920"
     inkscape:window-height="1016"
     id="namedview4204"
     showgrid="false"
     fit-margin-top="0"
     fit-margin-left="0"
     fit-margin-right="0"
     fit-margin-bottom="0"
     inkscape:zoom="1.9849482"
     inkscape:cx="142.84097"
     inkscape:cy="124.28582"
     inkscape:window-x="1920"
     inkscape:window-y="27"
     inkscape:window-maximized="1"
     inkscape:current-layer="svg4192" /><g
     id="g4194"
     transform="translate(-20.159034,-88.299998)"><path
       d="m 239.5,5.8 c 25.2,6.6 43.8,21.4 56,44.3 9.5,17.9 13.3,37 12.3,57.2 -1.5,28.7 -11.3,54.2 -29.6,76.3 -11.3,13.7 -25.2,24.1 -42.3,29.7 -6.9,2.3 -14,3.3 -21.2,1.3 -5.9,-1.6 -8.5,-4.9 -8.5,-11 0,-5.5 1.8,-10.7 3.1,-16 1.9,-8.1 4.1,-16.2 2.5,-24.6 -3.4,-17.5 -12.8,-27.2 -31.5,-24.7 -7.7,1 -15.3,2.3 -23.1,2.9 -17.4,1.3 -29.5,-4.5 -36.9,-21.1 -5.7,-12.8 -7.7,-26.4 -8.2,-40.2 -0.8,-25.3 9.6,-45.5 29.8,-60.5 C 160,6 180.7,1 197.4,0.7 c 17.9,0 30.1,2 42.1,5.1 z m -67.7,51 c 9.9,0 18.3,-8.2 18.4,-18 0.1,-10.4 -8,-18.7 -18.5,-18.8 -10.1,-0.1 -18.3,8.1 -18.3,18.3 -0.1,10.2 8.1,18.5 18.4,18.5 z m 74.7,-22.5 c -0.3,-10.1 -8.9,-18.4 -18.7,-18.1 -10.3,0.3 -18.4,8.7 -18.2,18.9 0.2,10 8.6,18.2 18.7,18 10.3,-0.2 18.5,-8.6 18.2,-18.8 z M 268,59.4 c -10,0 -18.1,8.4 -18.1,18.6 0.1,10 8.4,18.2 18.5,18.2 C 278.7,96.1 286.8,88 286.7,77.6 286.6,67.3 278.5,59.4 268,59.4 Z m 1.3,90.5 c 10.3,0 18.4,-8.1 18.4,-18.5 0,-10 -8.3,-18.3 -18.4,-18.3 -10.3,0 -18.4,8.1 -18.4,18.5 0.1,10.2 8.2,18.3 18.4,18.3 z"
       id="path4196"
       inkscape:connector-curvature="0" /><path
       d="m 169.3,248.7 c 3.6,-1.5 5.2,-5.8 3.2,-9.3 -6.9,-12.3 -14,-24.5 -20.9,-36.8 -6.6,-11.6 -13.2,-23.3 -19.8,-34.9 -9,-15.7 -17.9,-31.4 -26.9,-47.1 -1.1,-1.8 -2,-3.7 -3.2,-5.5 -2.1,-3.2 -6,-4 -9.2,-1.9 -5.2,3.4 -10.5,6.9 -15.7,10.4 -4.4,2.9 -5,6.7 -1.8,10.8 18.4,23.9 36.8,47.8 55.1,71.7 10.1,13.1 20.1,26.1 30.2,39.2 2.8,3.7 5.7,4.8 9,3.4 z"
       id="path4198"
       inkscape:connector-curvature="0" /><path
       d="m 32.5,77.8 c 4.3,9.6 10.4,19 20.5,25 8.3,4.9 15.9,4.4 23.6,-1.6 C 82.3,96.9 84.5,88.1 82.2,80 80,72.1 75,66.6 68,62.9 65.6,61.6 63,60.5 60.4,59.5 46.1,54 35.2,44.7 27.2,31.8 26.7,31 26.2,30.2 25.7,29.5 25,28.6 24.1,28.8 23.2,28.9 c -1.1,0.2 -1.1,1.1 -1,1.9 1.4,15.9 3.8,31.4 10.3,47 z"
       id="path4200"
       inkscape:connector-curvature="0" /><path
       d="m 87.6,97.3 c -8.4,5.6 -16.5,11 -24.6,16.3 -1.2,0.8 -0.8,1.5 -0.3,2.3 1.5,2.3 3.1,4.6 4.6,6.9 0.6,1 1.3,1.1 2.2,0.5 8.1,-5.4 16.1,-10.7 24.2,-16.1 0.9,-0.6 1.2,-1.2 0.5,-2.3 -1.6,-2.3 -3,-4.6 -4.5,-7 -0.6,-0.9 -1.4,-1.2 -2.1,-0.6 z"
       id="path4202"
       inkscape:connector-curvature="0" /></g></svg>