<?xml version="1.0" encoding="UTF-8" standalone="no"?>
<svg
   xmlns:dc="http://purl.org/dc/elements/1.1/"
   xmlns:cc="http://creativecommons.org/ns#"
   xmlns:rdf="http://www.w3.org/1999/02/22-rdf-syntax-ns#"
   xmlns:svg="http://www.w3.org/2000/svg"
   xmlns="http://www.w3.org/2000/svg"
   xmlns:sodipodi="http://sodipodi.sourceforge.net/DTD/sodipodi-0.dtd"
   xmlns:inkscape="http://www.inkscape.org/namespaces/inkscape"
   version="1.1"
   x="0px"
   y="0px"
   viewBox="0 0 72 72"
   enable-background="new 0 0 72 72"
   xml:space="preserve"
   id="svg2"
   inkscape:version="0.91 r13725"
   sodipodi:docname="type-woost-models-blockclone.svg"><metadata
     id="metadata14"><rdf:RDF><cc:Work
         rdf:about=""><dc:format>image/svg+xml</dc:format><dc:type
           rdf:resource="http://purl.org/dc/dcmitype/StillImage" /></cc:Work></rdf:RDF></metadata><defs
     id="defs12" /><sodipodi:namedview
     pagecolor="#ffffff"
     bordercolor="#666666"
     borderopacity="1"
     objecttolerance="10"
     gridtolerance="10"
     guidetolerance="10"
     inkscape:pageopacity="0"
     inkscape:pageshadow="2"
     inkscape:window-width="758"
     inkscape:window-height="480"
     id="namedview10"
     showgrid="false"
     inkscape:zoom="3.2777778"
     inkscape:cx="36"
     inkscape:cy="36.915254"
     inkscape:window-x="0"
     inkscape:window-y="27"
     inkscape:window-maximized="0"
     inkscape:current-layer="svg2" /><path
     inkscape:connector-curvature="0"
     d="m 59.810759,61.793052 -47.608078,0 c -0.692482,0 -1.298403,0.605921 -1.298403,1.298402 l 0,2.337124 c 0,0.692481 0.605921,1.298402 1.298403,1.298402 l 47.694638,0 c 0.692482,0 1.298403,-0.605921 1.298403,-1.298402 l 0,-2.337124 c 0,-0.692481 -0.605921,-1.298402 -1.384963,-1.298402 z" /><path
     inkscape:connector-curvature="0"
     d="m 64.138767,43.615422 -19.822273,0 c -0.692482,0 -1.298402,-0.605922 -1.298402,-1.298402 l 0,-8.482895 c 0,-0.4328 0.17312,-0.865601 0.51936,-1.038721 3.635526,-2.510245 6.05921,-7.703853 5.88609,-12.551221 C 49.250422,13.146251 43.710572,5.7020788 36.872321,5.2692782 29.081908,4.7499173 22.503338,12.71345 22.503338,20.590424 c 0,4.674247 2.337124,9.694735 5.88609,12.11842 0.34624,0.25968 0.51936,0.692481 0.51936,1.125281 l 0,8.482895 c 0,0.69248 -0.605921,1.298402 -1.298402,1.298402 l -19.7357127,0 c -0.6924811,0 -1.2984021,0.605921 -1.2984021,1.298402 l 0,12.724341 c 0,0.692481 0.605921,1.298402 1.2984021,1.298402 l 56.3506537,0 c 0.692481,0 1.298402,-0.605921 1.298402,-1.298402 l 0,-12.724341 c 0,-0.692481 -0.605921,-1.298402 -1.384962,-1.298402 z" /></svg>