<?xml version="1.0" encoding="UTF-8" standalone="no"?>
<svg
   xmlns:dc="http://purl.org/dc/elements/1.1/"
   xmlns:cc="http://creativecommons.org/ns#"
   xmlns:rdf="http://www.w3.org/1999/02/22-rdf-syntax-ns#"
   xmlns:svg="http://www.w3.org/2000/svg"
   xmlns="http://www.w3.org/2000/svg"
   xmlns:sodipodi="http://sodipodi.sourceforge.net/DTD/sodipodi-0.dtd"
   xmlns:inkscape="http://www.inkscape.org/namespaces/inkscape"
   xml:space="preserve"
   style="clip-rule:evenodd;fill-rule:evenodd;image-rendering:optimizeQuality;shape-rendering:geometricPrecision;text-rendering:geometricPrecision"
   viewBox="0 0 5120.8228 5122.8525"
   x="0px"
   y="0px"
   id="svg2"
   version="1.1"
   inkscape:version="0.91 r13725"
   sodipodi:docname="config.svg"
   width="5120.8228"
   height="5122.8525"><metadata
     id="metadata16"><rdf:RDF><cc:Work
         rdf:about=""><dc:format>image/svg+xml</dc:format><dc:type
           rdf:resource="http://purl.org/dc/dcmitype/StillImage" /><dc:title /></cc:Work></rdf:RDF></metadata><sodipodi:namedview
     pagecolor="#ffffff"
     bordercolor="#666666"
     borderopacity="1"
     objecttolerance="10"
     gridtolerance="10"
     guidetolerance="10"
     inkscape:pageopacity="0"
     inkscape:pageshadow="2"
     inkscape:window-width="1920"
     inkscape:window-height="1016"
     id="namedview14"
     showgrid="false"
     fit-margin-top="0"
     fit-margin-left="0"
     fit-margin-right="0"
     fit-margin-bottom="0"
     inkscape:zoom="0.034568625"
     inkscape:cx="-795.14403"
     inkscape:cy="2647.2839"
     inkscape:window-x="0"
     inkscape:window-y="27"
     inkscape:window-maximized="1"
     inkscape:current-layer="svg2" /><defs
     id="defs4"></defs><g
     id="g8"
     transform="translate(-853,-851.14754)"><path
       d="M 3496,2213 1084,4625 c -154,154 -231,356 -231,559 0,202 76,404 229,557 1,1 2,3 4,4 154,153 355,229 557,229 203,0 405,-77 559,-231 L 4614,3331 c 175,17 352,-4 520,-61 174,-59 338,-158 476,-297 170,-170 281,-379 332,-598 52,-225 40,-462 -34,-682 -4,-12 -10,-24 -20,-34 -31,-31 -82,-31 -113,0 l -755,755 -4,1 -253,-68 -245,-66 -66,-245 -66,-245 278,-278 471,-471 c 9,-9 17,-21 21,-34 13,-42 -10,-87 -52,-100 l 0,0 c -217,-68 -449,-75 -669,-21 -213,52 -415,161 -581,328 -138,138 -237,302 -297,476 -57,167 -77,345 -61,520 z M 1952,4875 c 85,85 127,196 127,308 0,111 -42,223 -127,308 -85,85 -196,127 -308,127 -111,0 -223,-42 -308,-127 -85,-85 -127,-196 -127,-308 0,-111 42,-223 127,-308 85,-85 196,-127 308,-127 111,0 223,42 308,127 z"
       id="path10"
       inkscape:connector-curvature="0"/></g></svg>
