<?xml version="1.0" encoding="UTF-8" standalone="no"?>
<svg
   xmlns:dc="http://purl.org/dc/elements/1.1/"
   xmlns:cc="http://creativecommons.org/ns#"
   xmlns:rdf="http://www.w3.org/1999/02/22-rdf-syntax-ns#"
   xmlns:svg="http://www.w3.org/2000/svg"
   xmlns="http://www.w3.org/2000/svg"
   xmlns:sodipodi="http://sodipodi.sourceforge.net/DTD/sodipodi-0.dtd"
   xmlns:inkscape="http://www.inkscape.org/namespaces/inkscape"
   version="1.1"
   x="0px"
   y="0px"
   viewBox="0 0 100 100"
   enable-background="new 0 0 100 100"
   xml:space="preserve"
   id="svg2"
   inkscape:version="0.92.3 (2405546, 2018-03-11)"
   sodipodi:docname="type-woost-models-newslisting-NewsListing.svg"
   width="100%"
   height="100%"><metadata
     id="metadata10"><rdf:RDF><cc:Work
         rdf:about=""><dc:format>image/svg+xml</dc:format><dc:type
           rdf:resource="http://purl.org/dc/dcmitype/StillImage" /><dc:title /></cc:Work></rdf:RDF></metadata><defs
     id="defs8" /><sodipodi:namedview
     pagecolor="#ffffff"
     bordercolor="#666666"
     borderopacity="1"
     objecttolerance="10"
     gridtolerance="10"
     guidetolerance="10"
     inkscape:pageopacity="0"
     inkscape:pageshadow="2"
     inkscape:window-width="1920"
     inkscape:window-height="1025"
     id="namedview6"
     showgrid="false"
     fit-margin-top="0"
     fit-margin-left="0"
     fit-margin-right="0"
     fit-margin-bottom="0"
     inkscape:zoom="2.36"
     inkscape:cx="41.296606"
     inkscape:cy="48.881356"
     inkscape:window-x="1920"
     inkscape:window-y="27"
     inkscape:window-maximized="1"
     inkscape:current-layer="svg2" /><path
     d="M 86.850754,21.326236 H 85.452966 C 84.817608,16.451695 81.132533,12.724105 76.685028,12.724105 H 13.149246 c -4.9557904,0 -8.8950086,4.444433 -8.8950086,10.03582 v 54.480151 c 0,5.591386 3.9392182,10.035819 8.8950086,10.035819 h 73.701508 c 4.955791,0 8.895009,-4.444433 8.895009,-10.035819 V 31.362053 c 0,-5.591383 -3.939218,-10.035817 -8.895009,-10.035817 z M 81.767891,81.541141 H 13.149246 c -2.160216,0 -3.8121458,-1.863794 -3.8121458,-4.301065 V 22.759925 c 0,-2.437272 1.6519298,-4.301065 3.8121458,-4.301065 h 63.535782 c 2.160217,0 3.812147,1.863793 3.812147,4.301065 v 54.480151 c 0,2.088884 1.270716,4.301065 1.270716,4.301065 z M 41.104991,55.734754 H 15.690677 V 27.060988 h 25.414314 z m 7.624293,-28.673766 h 25.414312 v 2.867376 H 48.729284 Z m 0,8.60213 h 25.414312 v 2.867376 H 48.729284 Z m 0,8.602129 h 25.414312 v 2.867377 H 48.729284 Z m 0,8.602129 h 25.414312 v 2.867378 H 48.729284 Z m -34.309322,8.60213 h 59.723634 v 2.867376 H 14.419962 Z m 0,8.60213 h 59.723634 v 2.867376 H 14.419962 Z"
     id="path4"
     inkscape:connector-curvature="0"
     style="stroke-width:1.13583887" /></svg>