<?xml version="1.0" encoding="UTF-8" standalone="no"?>
<svg
   xmlns:dc="http://purl.org/dc/elements/1.1/"
   xmlns:cc="http://creativecommons.org/ns#"
   xmlns:rdf="http://www.w3.org/1999/02/22-rdf-syntax-ns#"
   xmlns:svg="http://www.w3.org/2000/svg"
   xmlns="http://www.w3.org/2000/svg"
   xmlns:sodipodi="http://sodipodi.sourceforge.net/DTD/sodipodi-0.dtd"
   xmlns:inkscape="http://www.inkscape.org/namespaces/inkscape"
   data-name="Layer 1"
   viewBox="0 0 99.998421 73.75"
   x="0px"
   y="0px"
   id="svg4418"
   version="1.1"
   inkscape:version="0.91 r13725"
   sodipodi:docname="type-woost-models-emailtemplate-EmailTemplate.svg"
   width="99.998421"
   height="73.75">
  <metadata
     id="metadata4430">
    <rdf:RDF>
      <cc:Work
         rdf:about="">
        <dc:format>image/svg+xml</dc:format>
        <dc:type
           rdf:resource="http://purl.org/dc/dcmitype/StillImage" />
        <dc:title>mail50</dc:title>
      </cc:Work>
    </rdf:RDF>
  </metadata>
  <defs
     id="defs4428" />
  <sodipodi:namedview
     pagecolor="#ffffff"
     bordercolor="#666666"
     borderopacity="1"
     objecttolerance="10"
     gridtolerance="10"
     guidetolerance="10"
     inkscape:pageopacity="0"
     inkscape:pageshadow="2"
     inkscape:window-width="1920"
     inkscape:window-height="1016"
     id="namedview4426"
     showgrid="false"
     fit-margin-top="0"
     fit-margin-left="0"
     fit-margin-right="0"
     fit-margin-bottom="0"
     inkscape:zoom="2.36"
     inkscape:cx="-55.929327"
     inkscape:cy="38.151186"
     inkscape:window-x="1920"
     inkscape:window-y="27"
     inkscape:window-maximized="1"
     inkscape:current-layer="svg4418" />
  <title
     id="title4420">mail50</title>
  <path
     d="m 12.677876,66.5175 0,-43.11 c 2.025,1.1175 3.75,1.98 5.415,3 9.8025,6.165 19.6125,12.3075 29.3325,18.6 1.8975,1.23 3.18,1.2375 5.0925,0 11.31,-7.245 22.7175,-14.3925 34.59,-21.8325 l 0,43.35 -74.43,0 z"
     id="path4422"
     inkscape:connector-curvature="0" />
  <path
     d="m 12.921961,4.9718765 74.152499,0 c 1.140003,4.0875 0,6.7050005 -3.6375,8.9400005 -10.5,6.465 -20.79,13.245 -31.08,20.025 -1.77,1.1625 -3,1.1475 -4.725,0 -10.2975,-6.7875 -20.5875,-13.575 -31.079999,-20.0625 -3.6375,-2.2125 -4.7625,-4.8375005 -3.63,-8.9025005 z"
     id="path4424"
     inkscape:connector-curvature="0" />
</svg>
