<?xml version="1.0" encoding="UTF-8" standalone="no"?>
<svg
   xmlns:dc="http://purl.org/dc/elements/1.1/"
   xmlns:cc="http://creativecommons.org/ns#"
   xmlns:rdf="http://www.w3.org/1999/02/22-rdf-syntax-ns#"
   xmlns:svg="http://www.w3.org/2000/svg"
   xmlns="http://www.w3.org/2000/svg"
   xmlns:sodipodi="http://sodipodi.sourceforge.net/DTD/sodipodi-0.dtd"
   xmlns:inkscape="http://www.inkscape.org/namespaces/inkscape"
   height="100px"
   width="100px"
   fill="#000000"
   version="1.1"
   x="0px"
   y="0px"
   viewBox="0 0 100 100"
   enable-background="new 0 0 100 100"
   xml:space="preserve"
   id="svg14"
   sodipodi:docname="type-woost-admin-models-admin-Admin.svg"
   inkscape:version="0.92.3 (2405546, 2018-03-11)"><metadata
     id="metadata20"><rdf:RDF><cc:Work
         rdf:about=""><dc:format>image/svg+xml</dc:format><dc:type
           rdf:resource="http://purl.org/dc/dcmitype/StillImage" /></cc:Work></rdf:RDF></metadata><defs
     id="defs18" /><sodipodi:namedview
     pagecolor="#ffffff"
     bordercolor="#666666"
     borderopacity="1"
     objecttolerance="10"
     gridtolerance="10"
     guidetolerance="10"
     inkscape:pageopacity="0"
     inkscape:pageshadow="2"
     inkscape:window-width="1920"
     inkscape:window-height="1025"
     id="namedview16"
     showgrid="false"
     inkscape:zoom="2.36"
     inkscape:cx="0.63559322"
     inkscape:cy="50"
     inkscape:window-x="0"
     inkscape:window-y="27"
     inkscape:window-maximized="1"
     inkscape:current-layer="svg14" /><path
     d="M 4.994763,45.46581 2.250561,42.721608 C 1.9564557,42.427502 1.9025559,41.902565 2.1322158,41.55456 L 9.8738651,29.827842 c 0.2296599,-0.346833 0.7569399,-0.631564 1.1740779,-0.631564 h 2.26965 c 0.415965,0 0.801466,-0.33746 0.855366,-0.74991 l 0.306994,-2.332924 c 0.0539,-0.41245 0.35152,-0.978398 0.659687,-1.258442 l 7.171014,-6.499611 c 0.308166,-0.280045 0.901064,-0.516735 1.31703,-0.526109 l 2.36456,-0.05742 c 0.415965,-0.01055 0.992459,-0.264812 1.279534,-0.564776 0,0 4.951749,-5.169692 11.985671,-8.2970508 3.742519,-1.6650296 9.718365,-2.76646 10.428436,-2.0575606 C 51.137664,8.3042535 35.892227,18.911965 33.747954,24.65815 v 3.40506 c 0,0.415966 -0.247236,0.991288 -0.548372,1.277191 l -7.604556,7.219056 c -0.302308,0.287075 -0.888175,0.543684 -1.304141,0.571806 l -1.586528,0.1078 c -0.414794,0.02812 -0.795608,0.389015 -0.843649,0.802638 l -0.193336,1.62871 c -0.04921,0.413623 -0.363238,0.953792 -0.698354,1.199856 L 9.2505024,49.509465"
     id="path2"
     inkscape:connector-curvature="0" /><path
     d="m 88.684721,82.020408 c 1.215088,1.137754 1.246725,3.032448 0.06913,4.20887 l -6.152777,6.152777 c -1.177593,1.177593 -3.071116,1.145956 -4.20887,-0.06913 L 30.720192,41.40575 c -1.137754,-1.215089 -1.106117,-3.173057 0.07148,-4.349478 l 2.634059,-2.634059 c 1.177593,-1.177593 3.134389,-1.20923 4.349478,-0.07148 z"
     id="path4"
     inkscape:connector-curvature="0" /><path
     d="m 98.003525,31.647546 c 0.04452,-0.352692 -0.13475,-1.885321 -0.399562,-3.40506 -0.264812,-1.51974 -0.591726,-2.903558 -0.727647,-3.075803 -0.135921,-0.172245 -1.612306,1.052218 -2.788728,2.230982 l -2.728969,2.731313 c -1.176422,1.177593 -2.398541,2.284882 -2.716081,2.459471 -0.31754,0.174588 -2.424318,-0.09491 -4.049514,-0.458148 l -3.129702,-0.699526 c -1.625196,-0.363238 -3.112127,-0.69601 -3.305463,-0.740536 -0.193336,-0.04453 -0.52728,-0.226145 -0.558917,-0.356207 -0.03164,-0.131235 -0.438229,-1.945079 -0.801467,-3.570275 L 76.09795,23.634054 c -0.363238,-1.625195 -0.633908,-3.239845 -0.6011,-3.589022 0.03281,-0.349177 1.424829,-2.000151 2.602422,-3.176572 l 2.731313,-2.728969 c 1.177593,-1.176422 2.20872,-2.320034 2.291913,-2.541492 0.08319,-0.221458 -1.618166,-0.710071 -3.137905,-0.974883 -1.51974,-0.264812 -3.051196,-0.444087 -3.40506,-0.399562 -0.352692,0.04453 -2.008353,1.445921 -3.185946,2.622342 l -4.556875,4.55336 c -1.177593,1.176421 -2.284882,2.39854 -2.459471,2.71608 -0.174588,0.31754 0.04218,2.434864 0.342147,4.072949 l 1.090885,5.969987 c 0.298792,1.638084 0.544856,2.977377 0.544856,2.977377 0.0012,0.0012 -0.980742,0.944418 -2.181769,2.097404 l -7.527222,7.224915 c -1.201028,1.152986 -1.211574,3.050024 -0.02226,4.214728 l 2.957457,2.898871 c 1.189311,1.165876 3.105097,1.136582 4.256912,-0.06444 l 7.152266,-7.452231 c 1.152987,-1.201028 3.435526,-1.939221 5.07361,-1.640428 l 5.974674,1.090884 c 1.638085,0.298793 3.26328,0.516735 3.612457,0.483927 0.349177,-0.03281 2.000151,-1.424829 3.176572,-2.602422 l 4.55336,-4.556875 c 1.176421,-1.174078 2.577816,-2.828567 2.622342,-3.182431 z"
     id="path6"
     inkscape:connector-curvature="0" /><path
     d="m 15.77472,83.60928 c -1.201028,1.152986 -1.220948,3.059398 -0.04336,4.23582 l 4.650614,4.650613 c 1.177593,1.177593 3.084005,1.157674 4.23582,-0.04335 L 47.069402,69.061025 c 1.152987,-1.201027 1.161189,-3.174228 0.01758,-4.38463 l -3.43201,-3.63472 c -1.143613,-1.210402 -3.06057,-1.257271 -4.261598,-0.104284 z"
     id="path8"
     inkscape:connector-curvature="0" /></svg>