<?xml version="1.0" encoding="UTF-8" standalone="no"?>
<svg
   xmlns:dc="http://purl.org/dc/elements/1.1/"
   xmlns:cc="http://creativecommons.org/ns#"
   xmlns:rdf="http://www.w3.org/1999/02/22-rdf-syntax-ns#"
   xmlns:svg="http://www.w3.org/2000/svg"
   xmlns="http://www.w3.org/2000/svg"
   xmlns:sodipodi="http://sodipodi.sourceforge.net/DTD/sodipodi-0.dtd"
   xmlns:inkscape="http://www.inkscape.org/namespaces/inkscape"
   height="100px"
   width="100px"
   version="1.1"
   x="0px"
   y="0px"
   viewBox="0 0 100 100"
   enable-background="new 0 0 100 100"
   xml:space="preserve"
   id="svg8"
   sodipodi:docname="type-woost-models-uri-URI.svg"
   inkscape:version="0.92.3 (2405546, 2018-03-11)"><metadata
     id="metadata14"><rdf:RDF><cc:Work
         rdf:about=""><dc:format>image/svg+xml</dc:format><dc:type
           rdf:resource="http://purl.org/dc/dcmitype/StillImage" /></cc:Work></rdf:RDF></metadata><defs
     id="defs12" /><sodipodi:namedview
     pagecolor="#ffffff"
     bordercolor="#666666"
     borderopacity="1"
     objecttolerance="10"
     gridtolerance="10"
     guidetolerance="10"
     inkscape:pageopacity="0"
     inkscape:pageshadow="2"
     inkscape:window-width="1920"
     inkscape:window-height="1025"
     id="namedview10"
     showgrid="false"
     inkscape:zoom="2.36"
     inkscape:cx="0.63559322"
     inkscape:cy="50"
     inkscape:window-x="0"
     inkscape:window-y="27"
     inkscape:window-maximized="1"
     inkscape:current-layer="svg8" /><path
     d="M 89.1,10.9 C 78,-0.3 59.8,-0.3 48.7,10.9 v 0 L 35.8,23.7 c -0.3,0.3 -0.6,0.6 -0.9,0.9 6.2,-1.8 12.8,-1.7 18.9,0.3 l 4.4,-4.4 v 0 c 5.8,-5.8 15.4,-5.8 21.2,0 5.8,5.8 5.8,15.4 0,21.2 v 0 l -4.4,4.4 -3.3,3.3 v 0 l -5.1,5.1 c -2.2,2.2 -5,3.6 -8,4.1 0,0 0,0 0,0 -1.4,0.2 -2.8,0.3 -4.2,0.1 -3.3,-0.3 -6.5,-1.8 -9,-4.3 -2.5,-2.5 -3.9,-5.7 -4.3,-9 0,0 0,0 0,0 -1.8,0.5 -3.5,1.4 -4.9,2.8 l -6.6,6.6 c 1.4,3.4 3.5,6.5 6.2,9.2 2.7,2.7 5.9,4.8 9.2,6.2 v 0 c 1.4,0.6 2.9,1.1 4.4,1.4 v 0 c 6.6,1.6 13.7,0.8 19.9,-2.5 0,0 0,0 0,0 0,0 0,0 0,0 0,0 0,0 0,0 2.2,-1.1 4.2,-2.6 6.1,-4.3 0.3,-0.3 0.6,-0.6 0.9,-0.9 L 89.1,51.1 v 0 c 11.2,-10.9 11.2,-29.1 0,-40.2 z m -43,64.2 -4.4,4.4 c -5.8,5.8 -15.4,5.8 -21.2,0 -5.8,-5.8 -5.8,-15.4 0,-21.2 l 4.4,-4.4 3.3,-3.3 v 0 l 5.1,-5.1 v 0 c 2.2,-2.2 5,-3.6 8,-4.1 0,0 0,0 0,0 0,0 0,0 0,0 1.4,-0.2 2.8,-0.3 4.2,-0.1 0,0 0,0 0,0 3.3,0.3 6.5,1.8 9,4.3 2.5,2.5 3.9,5.7 4.3,9 1.8,-0.5 3.5,-1.4 4.9,-2.8 l 6.6,-6.6 v 0 C 68.9,41.8 66.8,38.7 64.1,36 61.4,33.3 58.2,31.2 54.9,29.8 53.5,29.2 52,28.7 50.5,28.4 43.9,26.8 36.8,27.7 30.6,30.9 c 0,0 0,0 0,0 -2.2,1.1 -4.2,2.6 -6.1,4.3 -0.3,0.3 -0.6,0.6 -0.9,0.9 v 0 L 10.9,48.7 c -11.2,11.1 -11.2,29.3 0,40.4 11.2,11.2 29.3,11.2 40.5,0 L 64.2,76.3 c 0.3,-0.3 0.6,-0.6 0.9,-0.9 -6.2,1.7 -12.9,1.7 -19,-0.3 z"
     id="path2"
     inkscape:connector-curvature="0" /></svg>
