<?xml version="1.0" encoding="UTF-8" standalone="no"?>
<svg
   xmlns:dc="http://purl.org/dc/elements/1.1/"
   xmlns:cc="http://creativecommons.org/ns#"
   xmlns:rdf="http://www.w3.org/1999/02/22-rdf-syntax-ns#"
   xmlns:svg="http://www.w3.org/2000/svg"
   xmlns="http://www.w3.org/2000/svg"
   xmlns:sodipodi="http://sodipodi.sourceforge.net/DTD/sodipodi-0.dtd"
   xmlns:inkscape="http://www.inkscape.org/namespaces/inkscape"
   version="1.1"
   viewBox="0 0 231 213"
   overflow="visible"
   enable-background="new 0 0 231 213"
   xml:space="preserve"
   x="0px"
   y="0px"
   id="svg5375"
   sodipodi:docname="type-woost-models-iframeblock-IFrameBlock.svg"
   inkscape:version="0.92.3 (2405546, 2018-03-11)"><metadata
     id="metadata5381"><rdf:RDF><cc:Work
         rdf:about=""><dc:format>image/svg+xml</dc:format><dc:type
           rdf:resource="http://purl.org/dc/dcmitype/StillImage" /></cc:Work></rdf:RDF></metadata><defs
     id="defs5379" /><sodipodi:namedview
     pagecolor="#ffffff"
     bordercolor="#666666"
     borderopacity="1"
     objecttolerance="10"
     gridtolerance="10"
     guidetolerance="10"
     inkscape:pageopacity="0"
     inkscape:pageshadow="2"
     inkscape:window-width="1920"
     inkscape:window-height="1025"
     id="namedview5377"
     showgrid="false"
     inkscape:zoom="1.1079812"
     inkscape:cx="115.5"
     inkscape:cy="106.5"
     inkscape:window-x="0"
     inkscape:window-y="27"
     inkscape:window-maximized="1"
     inkscape:current-layer="svg5375" /><path
     inkscape:connector-curvature="0"
     d="M 194.50377,18.050847 H 36.496229 c -9.09991,0 -16.545292,7.445382 -16.545292,16.545292 V 50.314167 H 211.04906 V 34.596139 c 0,-9.09991 -7.44538,-16.545292 -16.54529,-16.545292 z"
     id="path5371"
     style="stroke-width:0.82726461" /><path
     inkscape:connector-curvature="0"
     d="M 19.950937,64.377666 V 190.94915 H 211.04906 V 64.377666 Z m 67.008434,89.344574 c 0,4.54996 -3.722691,8.27265 -8.272646,8.27265 H 45.59614 c -4.549955,0 -8.272646,-3.72269 -8.272646,-8.27265 V 93.331927 c 0,-4.549955 3.722691,-8.272646 8.272646,-8.272646 h 33.090585 c 4.549955,0 8.272646,3.722691 8.272646,8.272646 z m 107.544399,0 c 0,4.54996 -3.72269,8.27265 -8.27264,8.27265 h -62.04485 c -4.54996,0 -8.27265,-3.72269 -8.27265,-8.27265 v -14.06349 c 0,-4.54996 3.72269,-8.27265 8.27265,-8.27265 h 62.04485 c 4.54995,0 8.27264,3.72269 8.27264,8.27265 z m 0,-46.32681 c 0,4.54995 -3.72269,8.27264 -8.27264,8.27264 h -62.04485 c -4.54996,0 -8.27265,-3.72269 -8.27265,-8.27264 V 93.331927 c 0,-4.549955 3.72269,-8.272646 8.27265,-8.272646 h 62.04485 c 4.54995,0 8.27264,3.722691 8.27264,8.272646 z"
     id="path5373"
     style="stroke-width:0.82726461" /></svg>