<svg xmlns="http://www.w3.org/2000/svg" xmlns:xlink="http://www.w3.org/1999/xlink" version="1.1" x="0px" y="0px" viewBox="0 0 24 29" style="enable-background:new 0 0 24 29;" xml:space="preserve"><g><polygon points="18.494,19.67 16.099,23.209 12,21.701 7.9,23.209 5.506,19.669 4.375,19.374 1.628,25.893 6.091,25.604 9,29    12,21.881 15,29 17.909,25.604 22.372,25.893 19.625,19.375  "></polygon><path d="M2.486,13.979l-0.195,3.818l3.832,0.998L8.29,22L12,20.636L15.709,22l2.168-3.203l3.831-0.999l-0.194-3.819L24,11   l-2.486-2.979l0.195-3.818l-3.832-0.998L15.709,0L12,1.364L8.291,0L6.123,3.203L2.292,4.202l0.194,3.818L0,11L2.486,13.979z M12,6   c2.762,0,5,2.238,5,5s-2.238,5-5,5c-2.762,0-5-2.238-5-5S9.238,6,12,6z"></path></g></svg>