<?xml version="1.0" encoding="UTF-8" standalone="no"?>
<svg
   xmlns:dc="http://purl.org/dc/elements/1.1/"
   xmlns:cc="http://creativecommons.org/ns#"
   xmlns:rdf="http://www.w3.org/1999/02/22-rdf-syntax-ns#"
   xmlns:svg="http://www.w3.org/2000/svg"
   xmlns="http://www.w3.org/2000/svg"
   xmlns:sodipodi="http://sodipodi.sourceforge.net/DTD/sodipodi-0.dtd"
   xmlns:inkscape="http://www.inkscape.org/namespaces/inkscape"
   version="1.1"
   x="0px"
   y="0px"
   viewBox="0 0 512 512"
   enable-background="new 0 0 512 512"
   xml:space="preserve"
   id="svg4216"
   inkscape:version="0.91 r13725"
   sodipodi:docname="type-woost-models-grid-Grid.svg"><metadata
     id="metadata4224"><rdf:RDF><cc:Work
         rdf:about=""><dc:format>image/svg+xml</dc:format><dc:type
           rdf:resource="http://purl.org/dc/dcmitype/StillImage" /></cc:Work></rdf:RDF></metadata><defs
     id="defs4222" /><sodipodi:namedview
     pagecolor="#ffffff"
     bordercolor="#666666"
     borderopacity="1"
     objecttolerance="10"
     gridtolerance="10"
     guidetolerance="10"
     inkscape:pageopacity="0"
     inkscape:pageshadow="2"
     inkscape:window-width="1920"
     inkscape:window-height="1016"
     id="namedview4220"
     showgrid="false"
     inkscape:zoom="1"
     inkscape:cx="142.5"
     inkscape:cy="129.53496"
     inkscape:window-x="1920"
     inkscape:window-y="27"
     inkscape:window-maximized="1"
     inkscape:current-layer="svg4216" /><path
     d="M443.5,143.5V106H406V68.5h-37.5V106h-93.8V68.5h-37.5V106h-93.8V68.5H106V106H68.5v37.5H106v93.8H68.5v37.5H106v93.8H68.5  V406H106v37.5h37.5V406h93.8v37.5h37.5V406h93.8v37.5H406V406h37.5v-37.5H406v-93.8h37.5v-37.5H406v-93.8H443.5z M237.3,368.5h-93.8  v-93.8h93.8V368.5z M237.3,237.3h-93.8v-93.8h93.8V237.3z M368.5,368.5h-93.8v-93.8h93.8V368.5z M368.5,237.3h-93.8v-93.8h93.8  V237.3z"
     id="path4218" /></svg>