<svg xmlns="http://www.w3.org/2000/svg" xmlns:xlink="http://www.w3.org/1999/xlink" version="1.1" x="0px" y="0px" viewBox="0 0 100.297 100" enable-background="new 0 0 100.297 100" xml:space="preserve"><path d="M17.841,69.125l-7.87,7.87L23.152,90.18l7.871-7.872c3.054,1.813,6.336,3.169,9.802,4.051v11.143h18.646  V86.358c3.462-0.882,6.746-2.238,9.803-4.051l7.869,7.872l13.184-13.185l-7.87-7.87c1.813-3.057,3.17-6.342,4.048-9.803h11.145  V40.68H86.504c-0.881-3.462-2.234-6.746-4.048-9.804l7.87-7.871L77.143,9.823l-7.869,7.87c-3.054-1.812-6.339-3.166-9.803-4.049V2.5  H40.825v11.144c-3.463,0.879-6.747,2.235-9.802,4.049L23.152,9.82L9.971,23.005l7.867,7.87c-1.81,3.057-3.167,6.339-4.046,9.805  H2.648v18.643h11.143C14.673,62.788,16.029,66.072,17.841,69.125z M50.138,28.933c11.622,0,21.079,9.451,21.079,21.067  c0,11.616-9.457,21.066-21.079,21.066c-11.612,0-21.059-9.45-21.059-21.066C29.079,38.383,38.526,28.933,50.138,28.933z"></path></svg>
