<?xml version="1.0" encoding="UTF-8" standalone="no"?>
<svg
   xmlns:dc="http://purl.org/dc/elements/1.1/"
   xmlns:cc="http://creativecommons.org/ns#"
   xmlns:rdf="http://www.w3.org/1999/02/22-rdf-syntax-ns#"
   xmlns:svg="http://www.w3.org/2000/svg"
   xmlns="http://www.w3.org/2000/svg"
   xmlns:sodipodi="http://sodipodi.sourceforge.net/DTD/sodipodi-0.dtd"
   xmlns:inkscape="http://www.inkscape.org/namespaces/inkscape"
   version="1.1"
   x="0px"
   y="0px"
   viewBox="0 0 100 100"
   enable-background="new 0 0 100 100"
   xml:space="preserve"
   id="svg2"
   inkscape:version="0.91 r13725"
   sodipodi:docname="type-woost-models-newslisting-NewsListing.svg"
   width="100%"
   height="100%"><metadata
     id="metadata10"><rdf:RDF><cc:Work
         rdf:about=""><dc:format>image/svg+xml</dc:format><dc:type
           rdf:resource="http://purl.org/dc/dcmitype/StillImage" /><dc:title /></cc:Work></rdf:RDF></metadata><defs
     id="defs8" /><sodipodi:namedview
     pagecolor="#ffffff"
     bordercolor="#666666"
     borderopacity="1"
     objecttolerance="10"
     gridtolerance="10"
     guidetolerance="10"
     inkscape:pageopacity="0"
     inkscape:pageshadow="2"
     inkscape:window-width="1920"
     inkscape:window-height="1016"
     id="namedview6"
     showgrid="false"
     fit-margin-top="0"
     fit-margin-left="0"
     fit-margin-right="0"
     fit-margin-bottom="0"
     inkscape:zoom="2.36"
     inkscape:cx="115.02542"
     inkscape:cy="48.881356"
     inkscape:window-x="1920"
     inkscape:window-y="27"
     inkscape:window-maximized="1"
     inkscape:current-layer="svg2" /><path
     d="m 84.461394,26.233522 -1.307157,0 C 82.560075,22.19322 79.113936,19.103578 74.954802,19.103578 l -59.416196,0 c -4.634463,0 -8.318267,3.683804 -8.318267,8.318268 l 0,45.156308 c 0,4.634464 3.683804,8.318268 8.318267,8.318268 l 68.922788,0 c 4.634463,0 8.318267,-3.683804 8.318267,-8.318268 l 0,-38.026365 c 0,-4.634463 -3.683804,-8.318267 -8.318267,-8.318267 z m -4.753296,49.909604 -64.169492,0 c -2.02015,0 -3.564971,-1.544821 -3.564971,-3.564972 l 0,-45.156308 c 0,-2.020151 1.544821,-3.564972 3.564971,-3.564972 l 59.416196,0 c 2.020151,0 3.564972,1.544821 3.564972,3.564972 l 0,45.156308 c 0,1.731388 1.188324,3.564972 1.188324,3.564972 z m -38.026365,-21.38983 -23.766479,0 0,-23.766479 23.766479,0 0,23.766479 z m 7.129943,-23.766479 23.766478,0 0,2.376648 -23.766478,0 0,-2.376648 z m 0,7.129944 23.766478,0 0,2.376648 -23.766478,0 0,-2.376648 z m 0,7.129943 23.766478,0 0,2.376648 -23.766478,0 0,-2.376648 z m 0,7.129944 23.766478,0 0,2.376648 -23.766478,0 0,-2.376648 z m -32.084746,7.129943 55.851224,0 0,2.376648 -55.851224,0 0,-2.376648 z m 0,7.129944 55.851224,0 0,2.376648 -55.851224,0 0,-2.376648 z"
     id="path4"
     inkscape:connector-curvature="0" /></svg>