<?xml version="1.0" encoding="UTF-8" standalone="no"?>
<svg
   xmlns:dc="http://purl.org/dc/elements/1.1/"
   xmlns:cc="http://creativecommons.org/ns#"
   xmlns:rdf="http://www.w3.org/1999/02/22-rdf-syntax-ns#"
   xmlns:svg="http://www.w3.org/2000/svg"
   xmlns="http://www.w3.org/2000/svg"
   xmlns:sodipodi="http://sodipodi.sourceforge.net/DTD/sodipodi-0.dtd"
   xmlns:inkscape="http://www.inkscape.org/namespaces/inkscape"
   version="1.1"
   x="0px"
   y="0px"
   viewBox="0 0 100 100"
   enable-background="new 0 0 100 100"
   xml:space="preserve"
   id="svg2"
   inkscape:version="0.91 r13725"
   sodipodi:docname="type-woost-models-textblock-TextBlock.svg"><metadata
     id="metadata10"><rdf:RDF><cc:Work
         rdf:about=""><dc:format>image/svg+xml</dc:format><dc:type
           rdf:resource="http://purl.org/dc/dcmitype/StillImage" /><dc:title></dc:title></cc:Work></rdf:RDF></metadata><defs
     id="defs8" /><sodipodi:namedview
     pagecolor="#ffffff"
     bordercolor="#666666"
     borderopacity="1"
     objecttolerance="10"
     gridtolerance="10"
     guidetolerance="10"
     inkscape:pageopacity="0"
     inkscape:pageshadow="2"
     inkscape:window-width="1920"
     inkscape:window-height="1016"
     id="namedview6"
     showgrid="false"
     inkscape:zoom="2.36"
     inkscape:cx="50.847458"
     inkscape:cy="51.271186"
     inkscape:window-x="0"
     inkscape:window-y="27"
     inkscape:window-maximized="1"
     inkscape:current-layer="svg2" /><path
     d="m 84.52496,14.375336 -16.463344,0 -10.667636,0 -14.784968,0 -10.667637,0 -16.464841,0 c -1.139378,0 -2.064655,0.92378 -2.064655,2.064655 l 0,9.72589 0,10.526897 c 0,1.140876 0.92378,2.064656 2.064655,2.064656 l 2.376076,0 c 1.104942,0 2.030219,-0.812985 2.184432,-1.907448 0.501566,-3.561868 2.659049,-10.85329 11.902836,-10.684105 l 6.870707,0 c 1.140875,0 2.064655,0.923781 2.064655,2.064655 l 0,1.967337 0,16.418428 0,26.295536 c 0,2.432969 -1.971829,4.404797 -4.404798,4.404797 l -5.840625,0 0,2.853686 0,0.296449 0,0.82646 0,2.26678 c 0,1.139378 0.923781,2.064656 2.064656,2.064656 l 34.611052,0 c 1.140876,0 2.064655,-0.923781 2.064655,-2.064656 l 0,-2.967474 0,-3.275901 -5.840624,0 c -2.43297,0 -4.404798,-1.971828 -4.404798,-4.404797 l 0,-26.295536 0,-16.419926 0,-1.965839 c 0,-1.140874 0.92378,-2.064655 2.064655,-2.064655 l 6.870706,0 c 9.243788,-0.167688 11.40127,7.122237 11.902836,10.684105 0.154213,1.094463 1.07949,1.907448 2.184433,1.907448 l 2.376075,0 c 1.140876,0 2.064656,-0.92378 2.064656,-2.064656 l 0,-10.526897 0,-9.72589 c 0.0015,-1.140875 -0.92378,-2.064655 -2.063159,-2.064655 z"
     id="path4"
     inkscape:connector-curvature="0"
     style="fill:#000000" /></svg>