<?xml version="1.0" encoding="UTF-8" standalone="no"?>
<svg
   xmlns:dc="http://purl.org/dc/elements/1.1/"
   xmlns:cc="http://creativecommons.org/ns#"
   xmlns:rdf="http://www.w3.org/1999/02/22-rdf-syntax-ns#"
   xmlns:svg="http://www.w3.org/2000/svg"
   xmlns="http://www.w3.org/2000/svg"
   xmlns:sodipodi="http://sodipodi.sourceforge.net/DTD/sodipodi-0.dtd"
   xmlns:inkscape="http://www.inkscape.org/namespaces/inkscape"
   version="1.1"
   x="0px"
   y="0px"
   viewBox="17 -18 100 100"
   enable-background="new 17 -18 100 100"
   xml:space="preserve"
   id="svg2"
   inkscape:version="0.91 r13725"
   sodipodi:docname="type-woost-models-extension-Extension.svg"><metadata
     id="metadata10"><rdf:RDF><cc:Work
         rdf:about=""><dc:format>image/svg+xml</dc:format><dc:type
           rdf:resource="http://purl.org/dc/dcmitype/StillImage" /></cc:Work></rdf:RDF></metadata><defs
     id="defs8" /><sodipodi:namedview
     pagecolor="#ffffff"
     bordercolor="#666666"
     borderopacity="1"
     objecttolerance="10"
     gridtolerance="10"
     guidetolerance="10"
     inkscape:pageopacity="0"
     inkscape:pageshadow="2"
     inkscape:window-width="1920"
     inkscape:window-height="1016"
     id="namedview6"
     showgrid="false"
     inkscape:zoom="2.36"
     inkscape:cx="50.423729"
     inkscape:cy="51.271186"
     inkscape:window-x="1920"
     inkscape:window-y="27"
     inkscape:window-maximized="1"
     inkscape:current-layer="svg2" /><path
     d="m 107.885,29.875 -13.09,-13.09 c -1.275,-1.275 -2.55,-2.55 -1.275,-3.74 2.465,-2.55 6.29,-1.275 10.03,-5.015 3.74,-3.74 3.74,-8.755 0,-12.58 -3.74,-3.74 -8.755,-3.74 -12.58,0 -3.74,3.74 -2.465,7.565 -5.015,10.03 -1.19,1.275 -2.465,0 -3.74,-1.275 L 69.125,-8.885 C 67,-11.01 67,-11.01 64.875,-8.885 l -13.09,13.09 c -1.275,1.275 -2.55,2.55 -1.275,3.74 2.465,2.465 6.29,1.275 10.03,5.015 3.74,3.74 3.74,8.755 0,12.58 -3.74,3.74 -8.755,3.74 -12.58,0 -3.74,-3.74 -2.55,-7.565 -5.015,-10.03 -1.19,-1.275 -2.465,0 -3.74,1.275 l -13.09,13.09 C 23.99,32 23.99,32 26.115,34.125 l 13.09,13.09 c 1.275,1.275 2.55,2.55 1.275,3.74 -2.465,2.55 -6.29,1.275 -10.03,5.015 -3.74,3.74 -3.74,8.755 0,12.58 3.74,3.74 8.755,3.74 12.58,0 3.74,-3.74 2.465,-7.565 5.015,-10.03 1.19,-1.275 2.465,0 3.74,1.275 l 13.09,13.09 c 2.125,2.125 2.125,2.125 4.25,0 l 13.09,-13.09 c 1.275,-1.275 2.55,-2.55 1.275,-3.74 C 81.025,53.59 77.2,54.78 73.46,51.04 c -3.74,-3.74 -3.74,-8.755 0,-12.58 3.74,-3.74 8.755,-3.74 12.58,0 3.74,3.74 2.55,7.565 5.015,10.03 1.19,1.275 2.465,0 3.74,-1.275 l 13.09,-13.09 c 2.125,-2.125 2.125,-2.125 0,-4.25 z"
     id="path4"
     inkscape:connector-curvature="0" /></svg>