<svg xmlns="http://www.w3.org/2000/svg" xmlns:xlink="http://www.w3.org/1999/xlink" version="1.1" x="0px" y="0px" viewBox="0 0 50 50" enable-background="new 0 0 50 50" xml:space="preserve"><g><path d="M19.594,23.823h10.888c2.588,0,4.701-2.113,4.701-4.697V8.233c0-2.586-2.113-4.699-4.701-4.699H19.594   c-2.585,0-4.699,2.113-4.699,4.699v10.893C14.895,21.71,17.009,23.823,19.594,23.823z"></path><path d="M18.418,26.175H7.452c-2.587,0-4.7,2.113-4.7,4.701v10.889c0,2.586,2.113,4.701,4.7,4.701h10.967   c2.508,0,4.621-2.115,4.621-4.701V30.876C23.04,28.288,20.926,26.175,18.418,26.175z"></path><path d="M42.549,26.175H31.656c-2.582,0-4.701,2.113-4.701,4.701v10.889c0,2.586,2.119,4.701,4.701,4.701h10.893   c2.582,0,4.699-2.115,4.699-4.701V30.876C47.248,28.288,45.131,26.175,42.549,26.175z"></path></g></svg>
