<?xml version="1.0" encoding="UTF-8" standalone="no"?>
<svg
   xmlns:dc="http://purl.org/dc/elements/1.1/"
   xmlns:cc="http://creativecommons.org/ns#"
   xmlns:rdf="http://www.w3.org/1999/02/22-rdf-syntax-ns#"
   xmlns:svg="http://www.w3.org/2000/svg"
   xmlns="http://www.w3.org/2000/svg"
   xmlns:sodipodi="http://sodipodi.sourceforge.net/DTD/sodipodi-0.dtd"
   xmlns:inkscape="http://www.inkscape.org/namespaces/inkscape"
   version="1.1"
   x="0px"
   y="0px"
   viewBox="0 0 52 52"
   enable-background="new 0 0 52 52"
   xml:space="preserve"
   id="svg2"
   inkscape:version="0.91 r13725"
   sodipodi:docname="type-woost-models-style-Style.svg"><metadata
     id="metadata12"><rdf:RDF><cc:Work
         rdf:about=""><dc:format>image/svg+xml</dc:format><dc:type
           rdf:resource="http://purl.org/dc/dcmitype/StillImage" /></cc:Work></rdf:RDF></metadata><defs
     id="defs10" /><sodipodi:namedview
     pagecolor="#ffffff"
     bordercolor="#666666"
     borderopacity="1"
     objecttolerance="10"
     gridtolerance="10"
     guidetolerance="10"
     inkscape:pageopacity="0"
     inkscape:pageshadow="2"
     inkscape:window-width="1920"
     inkscape:window-height="1016"
     id="namedview8"
     showgrid="false"
     inkscape:zoom="4.5384615"
     inkscape:cx="2.9745763"
     inkscape:cy="26.661017"
     inkscape:window-x="0"
     inkscape:window-y="27"
     inkscape:window-maximized="1"
     inkscape:current-layer="svg2" /><path
     inkscape:connector-curvature="0"
     id="path6"
     d="M 24,27.76001 24,32 l 2,0 c 1.099976,0 2,0.899902 2,2 l 0,14 c 0,1.099854 -0.900024,2 -2,2 l -6,0 c -1.100037,0 -2,-0.900146 -2,-2 l 0,-14 c 0,-1.100098 0.899963,-2 2,-2 l 2,0 0,-5.77002 26,-7 L 48,11 l -4,0 0,5 c 0,1.099854 -0.900024,2 -2,2 L 4,18 C 2.8999634,18 2,17.099854 2,16 L 2,4 C 2,2.8999023 2.8999634,2 4,2 l 38,0 c 1.099976,0 2,0.8999023 2,2 l 0,5 6,0 0,11.76001 -26,7 z" /></svg>