<svg xmlns="http://www.w3.org/2000/svg" xmlns:xlink="http://www.w3.org/1999/xlink" version="1.1" x="0px" y="0px" viewBox="0 0 48 48" enable-background="new 0 0 48 48" xml:space="preserve"><g><path d="M3,37.5h42c1.7,0,3-1.3,3-3V5.1c0-1.7-1.3-3-3-3H3c-1.7,0-3,1.3-3,3v29.4C0,36.2,1.3,37.5,3,37.5z M4,6.1h40v27.4H4V6.1z"></path><path d="M29.3,18.1l-8.4-5.8c-1.3-0.9-3.1,0-3.1,1.7v11.5c0,1.6,1.8,2.6,3.1,1.7l8.4-5.8C30.5,20.6,30.5,18.9,29.3,18.1z"></path><path d="M7.4,41.5H1.5C0.7,41.5,0,42.1,0,43c0,0.8,0.7,1.5,1.5,1.5h5.9c-0.2-0.5-0.2-1-0.2-1.5C7.1,42.4,7.2,41.9,7.4,41.5z"></path><path d="M46.5,41.5H16.9c0.1,0.5,0.2,1,0.2,1.5c0,0.5-0.1,1-0.2,1.5h29.6c0.8,0,1.5-0.7,1.5-1.5C48,42.1,47.3,41.5,46.5,41.5z"></path><circle cx="12.1" cy="42.9" r="3"></circle></g></svg>