<svg xmlns="http://www.w3.org/2000/svg" xmlns:xlink="http://www.w3.org/1999/xlink" xmlns:sketch="http://www.bohemiancoding.com/sketch/ns" viewBox="0 0 22 22" version="1.1" x="0px" y="0px"><title>effect-effect-filter-color</title><desc>Created with Sketch.</desc><g stroke="none" stroke-width="1" fill="none" fill-rule="evenodd" sketch:type="MSPage"><g sketch:type="MSArtboardGroup" transform="translate(-110.000000, -153.000000)" fill="#000000"><path d="M127.723875,157.861912 C127.915624,157.670162 128.222413,157.666064 128.427934,157.871584 L129.128416,158.572066 C129.325507,158.769158 129.324146,159.090068 129.138088,159.276125 L125.242641,163.171573 L123.828427,161.757359 L127.723875,157.861912 Z M124.535534,163.87868 L114.281833,174.132381 C114.086931,174.327282 113.777587,174.333936 113.572066,174.128416 L112.871584,173.427934 C112.674493,173.230842 112.672886,172.9129 112.867619,172.718167 L123.12132,162.464466 L124.535534,163.87868 Z M124.452548,155.452548 L124,157 L123.547452,155.452548 L122,155 L123.547452,154.547452 L124,153 L124.452548,154.547452 L126,155 L124.452548,155.452548 Z M115.065685,157.065685 L114.5,159 L113.934315,157.065685 L112,156.5 L113.934315,155.934315 L114.5,154 L115.065685,155.934315 L117,156.5 L115.065685,157.065685 Z M120.905097,160.905097 L120,164 L119.094903,160.905097 L116,160 L119.094903,159.094903 L120,156 L120.905097,159.094903 L124,160 L120.905097,160.905097 Z M129.065685,166.065685 L128.5,168 L127.934315,166.065685 L126,165.5 L127.934315,164.934315 L128.5,163 L129.065685,164.934315 L131,165.5 L129.065685,166.065685 Z" sketch:type="MSShapeGroup"></path></g></g></svg>