<svg xmlns="http://www.w3.org/2000/svg" xmlns:xlink="http://www.w3.org/1999/xlink" version="1.1" x="0px" y="0px" viewBox="0 0 80 80" enable-background="new 0 0 80 80" xml:space="preserve"><path d="M72.5,15.953c0,2.761-2.239,5-5,5h-55c-2.762,0-5-2.239-5-5l0,0c0-2.761,2.238-5,5-5h55  C70.261,10.953,72.5,13.192,72.5,15.953L72.5,15.953z"></path><path d="M72.5,38.544c0,2.761-2.239,5-5,5h-55c-2.762,0-5-2.239-5-5l0,0c0-2.761,2.238-5,5-5h55  C70.261,33.544,72.5,35.783,72.5,38.544L72.5,38.544z"></path><path d="M72.5,61.135c0,2.762-2.239,5-5,5h-55c-2.762,0-5-2.238-5-5l0,0c0-2.762,2.238-5,5-5h55  C70.261,56.135,72.5,58.373,72.5,61.135L72.5,61.135z"></path></svg>