<svg height='100px' width='100px' xmlns="http://www.w3.org/2000/svg" xmlns:xlink="http://www.w3.org/1999/xlink" version="1.1" x="0px" y="0px" viewBox="0 0 100 100" enable-background="new 0 0 100 100" xml:space="preserve"><path d="M77.744,49.715H38.679V27.643c0-6.236,5.091-11.321,11.321-11.321c6.229,0,11.321,5.085,11.321,11.321v11.321h11.321V27.643  C72.643,15.188,62.455,5,50,5C37.545,5,27.357,15.188,27.357,27.643v22.072h-5.091c-3.399,0-6.23,2.83-6.23,6.23v32.83  C16.036,90.473,33.018,95,50,95c16.981,0,33.964-4.527,33.964-6.225v-32.83C83.964,52.551,81.134,50.284,77.744,49.715z"></path></svg>
