<svg xmlns="http://www.w3.org/2000/svg" xmlns:xlink="http://www.w3.org/1999/xlink" version="1.1" x="0px" y="0px" viewBox="0 0 1024 1024" style="enable-background:new 0 0 1024 1024;" xml:space="preserve"><g><g><g><path d="M120,143.3c43.5,0,87,0,130.5,0c6.1,0,12.2,0,18.2,0c-13.3-13.3-26.7-26.7-40-40c0,7.3,0,14.6,0,21.9     c0,19.8,0,39.6,0,59.3c0,29.4,0,58.7,0,88.1c0,35.7,0,71.4,0,107.1c0,39.3,0,78.5,0,117.8c0,39.5,0,78.9,0,118.4     c0,37,0,73.9,0,110.9c0,31.1,0,62.2,0,93.3c0,22.5,0,44.9,0,67.4c0,10.6-0.1,21.3,0,31.9c0,0.4,0,0.9,0,1.3     c13.3-13.3,26.7-26.7,40-40c-43.9,0-87.9,0-131.8,0c-6.9,0-14.1,0.5-21-0.3c3.5,0.5,7.1,1,10.6,1.4c-3.1-0.5-6.1-1.3-9-2.5     c3.2,1.3,6.4,2.7,9.6,4c-2.4-1.1-4.6-2.4-6.8-4c2.7,2.1,5.4,4.2,8.1,6.3c-2.4-1.9-4.5-4-6.4-6.4c2.1,2.7,4.2,5.4,6.3,8.1     c-1.6-2.1-2.9-4.4-4-6.8c1.3,3.2,2.7,6.4,4,9.6c-1.2-2.9-2-5.9-2.5-9c0.5,3.5,1,7.1,1.4,10.6c-0.8-7.7-0.3-15.7-0.3-23.5     c0-18.1,0-36.2,0-54.3c0-26.9,0-53.9,0-80.8c0-33.1,0-66.2,0-99.3c0-36.1,0-72.3,0-108.4c0-36.5,0-73,0-109.5     c0-34.2,0-68.3,0-102.5c0-28.7,0-57.3,0-86c0-20.5,0-41.1,0-61.6c0-9.6-0.1-19.1,0-28.7c0-1.7,0.1-3.4,0.3-5.1     c-0.5,3.5-1,7.1-1.4,10.6c0.5-3.1,1.3-6.1,2.5-9c-1.3,3.2-2.7,6.4-4,9.6c1.1-2.4,2.4-4.6,4-6.8c-2.1,2.7-4.2,5.4-6.3,8.1     c1.9-2.4,4-4.5,6.4-6.4c-2.7,2.1-5.4,4.2-8.1,6.3c2.1-1.6,4.4-2.9,6.8-4c-3.2,1.3-6.4,2.7-9.6,4c2.9-1.2,5.9-2,9-2.5     c-3.5,0.5-7.1,1-10.6,1.4C117.3,143.4,118.6,143.3,120,143.3c10.4-0.2,20.9-4.3,28.3-11.7c6.9-6.9,12.2-18.3,11.7-28.3     c-1-21.3-17.6-40.5-40-40C87.8,64,60.9,84.1,50.4,114.4c-2.5,7.3-3.4,15.3-3.4,23c0,4.8,0,9.5,0,14.3c0,23.4,0,46.8,0,70.2     c0,36.9,0,73.7,0,110.6c0,44.6,0,89.1,0,133.7c0,46.6,0,93.3,0,139.9c0,42.7,0,85.4,0,128c0,32.8,0,65.5,0,98.3     c0,17.2,0,34.4,0,51.6c0,20.9,6.6,41.7,22.4,56.3c14.5,13.4,32.6,20.5,52.3,20.5c5.5,0,11,0,16.6,0c40.4,0,80.8,0,121.3,0     c3.1,0,6.2,0,9.2,0c21.6,0,40-18.3,40-40c0-7.3,0-14.6,0-21.9c0-19.8,0-39.6,0-59.3c0-29.4,0-58.7,0-88.1c0-35.7,0-71.4,0-107.1     c0-39.3,0-78.5,0-117.8c0-39.5,0-78.9,0-118.4c0-37,0-73.9,0-110.9c0-31.1,0-62.2,0-93.3c0-22.5,0-44.9,0-67.4     c0-10.6,0.1-21.3,0-31.9c0-0.4,0-0.9,0-1.3c0-21.6-18.3-40-40-40c-43.5,0-87,0-130.5,0c-6.1,0-12.2,0-18.2,0     c-20.9,0-41,18.4-40,40C81,125,97.6,143.3,120,143.3z"></path></g></g><g><g><path d="M897,136.3c0,6.7,0,13.5,0,20.2c0,18.3,0,36.7,0,55c0,27,0,53.9,0,80.9c0,33,0,66.1,0,99.1     c0,36.2,0,72.3,0,108.5c0,36.5,0,72.9,0,109.4c0,34,0,67.9,0,101.9c0,28.5,0,57,0,85.5c0,20.5,0,41,0,61.4c0,9.5,0.1,19,0,28.5     c0,1.7-0.1,3.4-0.3,5.1c0.5-3.5,1-7.1,1.4-10.6c-0.5,3.1-1.3,6.1-2.5,9c1.3-3.2,2.7-6.4,4-9.6c-1.1,2.4-2.4,4.6-4,6.8     c2.1-2.7,4.2-5.4,6.3-8.1c-1.9,2.4-4,4.5-6.4,6.4c2.7-2.1,5.4-4.2,8.1-6.3c-2.1,1.6-4.4,2.9-6.8,4c3.2-1.3,6.4-2.7,9.6-4     c-2.9,1.2-5.9,2-9,2.5c3.5-0.5,7.1-1,10.6-1.4c-5.8,0.6-11.7,0.3-17.6,0.3c-11.8,0-23.7,0-35.5,0c-27,0-53.9,0-80.9,0     c-6.3,0-12.6,0-18.9,0c13.3,13.3,26.7,26.7,40,40c0-7.3,0-14.6,0-21.9c0-19.8,0-39.6,0-59.3c0-29.4,0-58.7,0-88.1     c0-35.7,0-71.4,0-107.1c0-39.3,0-78.5,0-117.8c0-39.5,0-78.9,0-118.4c0-37,0-73.9,0-110.9c0-31.1,0-62.2,0-93.3     c0-22.5,0-44.9,0-67.4c0-10.6,0.1-21.3,0-31.9c0-0.4,0-0.9,0-1.3c-13.3,13.3-26.7,26.7-40,40c43.9,0,87.9,0,131.8,0     c6.9,0,14.1-0.5,21,0.3c-3.5-0.5-7.1-1-10.6-1.4c3.1,0.5,6.1,1.3,9,2.5c-3.2-1.3-6.4-2.7-9.6-4c2.4,1.1,4.6,2.4,6.8,4     c-2.7-2.1-5.4-4.2-8.1-6.3c2.4,1.9,4.5,4,6.4,6.4c-2.1-2.7-4.2-5.4-6.3-8.1c1.6,2.1,2.9,4.4,4,6.8c-1.3-3.2-2.7-6.4-4-9.6     c1.2,2.9,2,5.9,2.5,9c-0.5-3.5-1-7.1-1.4-10.6C896.9,133.5,897,134.9,897,136.3c0.2,10.4,4.3,20.9,11.7,28.3     c6.9,6.9,18.3,12.2,28.3,11.7c21.3-1,40.5-17.6,40-40c-0.8-40.4-33.1-72.5-73.5-73c-8.6-0.1-17.2,0-25.8,0c-32.3,0-64.6,0-96.9,0     c-8.5,0-17,0-25.5,0c-21.6,0-40,18.3-40,40c0,7.3,0,14.6,0,21.9c0,19.8,0,39.6,0,59.3c0,29.4,0,58.7,0,88.1     c0,35.7,0,71.4,0,107.1c0,39.3,0,78.5,0,117.8c0,39.5,0,78.9,0,118.4c0,37,0,73.9,0,110.9c0,31.1,0,62.2,0,93.3     c0,22.5,0,44.9,0,67.4c0,10.6-0.1,21.3,0,31.9c0,0.4,0,0.9,0,1.3c0,21.6,18.3,40,40,40c32.8,0,65.6,0,98.4,0     c15.8,0,31.6,0,47.3,0c14,0,27.7-2.8,39.8-10c22.3-13.1,35.8-37.3,36.2-63c0.2-10.6,0-21.2,0-31.8c0-27.2,0-54.3,0-81.5     c0-38.4,0-76.7,0-115.1c0-44.1,0-88.2,0-132.3c0-45,0-90,0-135c0-39.9,0-79.9,0-119.8c0-30,0-60.1,0-90.1c0-14.6,0.1-29.3,0-43.9     c0-0.6,0-1.3,0-1.9c0-20.9-18.4-41-40-40C915.3,97.3,897,113.9,897,136.3z"></path></g></g><g><rect x="269" y="103" width="486" height="818"></rect><g><path d="M715.3,103.3c0,7.3,0,14.6,0,21.9c0,19.8,0,39.6,0,59.3c0,29.4,0,58.7,0,88.1c0,35.7,0,71.4,0,107.1     c0,39.3,0,78.5,0,117.8c0,39.5,0,78.9,0,118.4c0,37,0,73.9,0,110.9c0,31.1,0,62.2,0,93.3c0,22.5,0,44.9,0,67.4     c0,10.6-0.1,21.3,0,31.9c0,0.4,0,0.9,0,1.3c13.3-13.3,26.7-26.7,40-40c-16.2,0-32.5,0-48.7,0c-38.6,0-77.2,0-115.9,0     c-46.9,0-93.7,0-140.6,0c-40.5,0-81,0-121.5,0c-19.7,0-39.4-0.4-59,0c-0.3,0-0.6,0-0.8,0c13.3,13.3,26.7,26.7,40,40     c0-7.3,0-14.6,0-21.9c0-19.8,0-39.6,0-59.3c0-29.4,0-58.7,0-88.1c0-35.7,0-71.4,0-107.1c0-39.3,0-78.5,0-117.8     c0-39.5,0-78.9,0-118.4c0-37,0-73.9,0-110.9c0-31.1,0-62.2,0-93.3c0-22.5,0-44.9,0-67.4c0-10.6,0.1-21.3,0-31.9     c0-0.4,0-0.9,0-1.3c-13.3,13.3-26.7,26.7-40,40c16.2,0,32.5,0,48.7,0c38.6,0,77.2,0,115.9,0c46.9,0,93.7,0,140.6,0     c40.5,0,81,0,121.5,0c19.7,0,39.4,0.3,59,0c0.3,0,0.6,0,0.8,0c20.9,0,41-18.4,40-40c-1-21.7-17.6-40-40-40c-16.2,0-32.5,0-48.7,0     c-38.6,0-77.2,0-115.9,0c-46.9,0-93.7,0-140.6,0c-40.5,0-81,0-121.5,0c-19.7,0-39.4-0.3-59,0c-0.3,0-0.6,0-0.8,0     c-21.6,0-40,18.3-40,40c0,7.3,0,14.6,0,21.9c0,19.8,0,39.6,0,59.3c0,29.4,0,58.7,0,88.1c0,35.7,0,71.4,0,107.1     c0,39.3,0,78.5,0,117.8c0,39.5,0,78.9,0,118.4c0,37,0,73.9,0,110.9c0,31.1,0,62.2,0,93.3c0,22.5,0,44.9,0,67.4     c0,10.6-0.1,21.3,0,31.9c0,0.4,0,0.9,0,1.3c0,21.6,18.3,40,40,40c16.2,0,32.5,0,48.7,0c38.6,0,77.2,0,115.9,0     c46.9,0,93.7,0,140.6,0c40.5,0,81,0,121.5,0c19.7,0,39.4,0.3,59,0c0.3,0,0.6,0,0.8,0c21.6,0,40-18.3,40-40c0-7.3,0-14.6,0-21.9     c0-19.8,0-39.6,0-59.3c0-29.4,0-58.7,0-88.1c0-35.7,0-71.4,0-107.1c0-39.3,0-78.5,0-117.8c0-39.5,0-78.9,0-118.4     c0-37,0-73.9,0-110.9c0-31.1,0-62.2,0-93.3c0-22.5,0-44.9,0-67.4c0-10.6,0.1-21.3,0-31.9c0-0.4,0-0.9,0-1.3c0-20.9-18.4-41-40-40     C733.6,64.3,715.3,80.9,715.3,103.3z"></path></g></g><g><g><path d="M937,226.8c-20.5,0-40.9,0-61.4,0c-32.6,0-65.2,0-97.9,0c-7.5,0-15,0-22.5,0c-20.9,0-41,18.4-40,40     c1,21.7,17.6,40,40,40c20.5,0,40.9,0,61.4,0c32.6,0,65.2,0,97.9,0c7.5,0,15,0,22.5,0c20.9,0,41-18.4,40-40     C976,245.1,959.4,226.8,937,226.8L937,226.8z"></path></g></g><g><g><path d="M268.7,226.8c-20.5,0-40.9,0-61.4,0c-32.6,0-65.2,0-97.9,0c-7.5,0-15,0-22.5,0c-20.9,0-41,18.4-40,40     c1,21.7,17.6,40,40,40c20.5,0,40.9,0,61.4,0c32.6,0,65.2,0,97.9,0c7.5,0,15,0,22.5,0c20.9,0,41-18.4,40-40     C307.8,245.1,291.2,226.8,268.7,226.8L268.7,226.8z"></path></g></g><g><g><path d="M937,390.3c-20.5,0-40.9,0-61.4,0c-32.6,0-65.2,0-97.9,0c-7.5,0-15,0-22.5,0c-20.9,0-41,18.4-40,40     c1,21.7,17.6,40,40,40c20.5,0,40.9,0,61.4,0c32.6,0,65.2,0,97.9,0c7.5,0,15,0,22.5,0c20.9,0,41-18.4,40-40     C976,408.6,959.4,390.3,937,390.3L937,390.3z"></path></g></g><g><g><path d="M268.7,390.3c-20.5,0-40.9,0-61.4,0c-32.6,0-65.2,0-97.9,0c-7.5,0-15,0-22.5,0c-20.9,0-41,18.4-40,40     c1,21.7,17.6,40,40,40c20.5,0,40.9,0,61.4,0c32.6,0,65.2,0,97.9,0c7.5,0,15,0,22.5,0c20.9,0,41-18.4,40-40     C307.8,408.6,291.2,390.3,268.7,390.3L268.7,390.3z"></path></g></g><g><g><path d="M937,553.7c-20.5,0-40.9,0-61.4,0c-32.6,0-65.2,0-97.9,0c-7.5,0-15,0-22.5,0c-20.9,0-41,18.4-40,40     c1,21.7,17.6,40,40,40c20.5,0,40.9,0,61.4,0c32.6,0,65.2,0,97.9,0c7.5,0,15,0,22.5,0c20.9,0,41-18.4,40-40     C976,572.1,959.4,553.7,937,553.7L937,553.7z"></path></g></g><g><g><path d="M268.7,553.7c-20.5,0-40.9,0-61.4,0c-32.6,0-65.2,0-97.9,0c-7.5,0-15,0-22.5,0c-20.9,0-41,18.4-40,40     c1,21.7,17.6,40,40,40c20.5,0,40.9,0,61.4,0c32.6,0,65.2,0,97.9,0c7.5,0,15,0,22.5,0c20.9,0,41-18.4,40-40     C307.8,572.1,291.2,553.7,268.7,553.7L268.7,553.7z"></path></g></g><g><g><path d="M937,717.2c-20.5,0-40.9,0-61.4,0c-32.6,0-65.2,0-97.9,0c-7.5,0-15,0-22.5,0c-20.9,0-41,18.4-40,40     c1,21.7,17.6,40,40,40c20.5,0,40.9,0,61.4,0c32.6,0,65.2,0,97.9,0c7.5,0,15,0,22.5,0c20.9,0,41-18.4,40-40     C976,735.6,959.4,717.2,937,717.2L937,717.2z"></path></g></g><g><g><path d="M268.7,717.2c-20.5,0-40.9,0-61.4,0c-32.6,0-65.2,0-97.9,0c-7.5,0-15,0-22.5,0c-20.9,0-41,18.4-40,40     c1,21.7,17.6,40,40,40c20.5,0,40.9,0,61.4,0c32.6,0,65.2,0,97.9,0c7.5,0,15,0,22.5,0c20.9,0,41-18.4,40-40     C307.8,735.6,291.2,717.2,268.7,717.2L268.7,717.2z"></path></g></g></g></svg>