<?xml version="1.0" encoding="UTF-8" standalone="no"?>
<svg
   xmlns:dc="http://purl.org/dc/elements/1.1/"
   xmlns:cc="http://creativecommons.org/ns#"
   xmlns:rdf="http://www.w3.org/1999/02/22-rdf-syntax-ns#"
   xmlns:svg="http://www.w3.org/2000/svg"
   xmlns="http://www.w3.org/2000/svg"
   xmlns:sodipodi="http://sodipodi.sourceforge.net/DTD/sodipodi-0.dtd"
   xmlns:inkscape="http://www.inkscape.org/namespaces/inkscape"
   version="1.1"
   x="0px"
   y="0px"
   viewBox="0 0 49.411022 62.413918"
   id="svg4102"
   inkscape:version="0.91 r13725"
   sodipodi:docname="cache.svg"
   width="49.411022"
   height="62.413918">
  <metadata
     id="metadata4112">
    <rdf:RDF>
      <cc:Work
         rdf:about="">
        <dc:format>image/svg+xml</dc:format>
        <dc:type
           rdf:resource="http://purl.org/dc/dcmitype/StillImage" />
        <dc:title></dc:title>
      </cc:Work>
    </rdf:RDF>
  </metadata>
  <defs
     id="defs4110" />
  <sodipodi:namedview
     pagecolor="#ffffff"
     bordercolor="#666666"
     borderopacity="1"
     objecttolerance="10"
     gridtolerance="10"
     guidetolerance="10"
     inkscape:pageopacity="0"
     inkscape:pageshadow="2"
     inkscape:window-width="1920"
     inkscape:window-height="1016"
     id="namedview4108"
     showgrid="false"
     fit-margin-top="0"
     fit-margin-left="0"
     fit-margin-right="0"
     fit-margin-bottom="0"
     inkscape:zoom="2.36"
     inkscape:cx="-19.15042"
     inkscape:cy="39.045949"
     inkscape:window-x="0"
     inkscape:window-y="27"
     inkscape:window-maximized="1"
     inkscape:current-layer="svg4102" />
  <path
     inkscape:connector-curvature="0"
     d="m 49.411021,4.551016 0,7.216609 0,0 0,0 0,2.535565 -2.535565,0 0,0 0,0 -7.281623,0 0,-3.705827 3.445766,0 C 37.968469,6.17638 31.532033,3.705827 24.70551,3.705827 c -7.346638,0 -14.238175,2.860637 -19.4393353,8.061798 l -1.30029,1.30029 -2.600581,-2.600581 1.300291,-1.300289 C 8.5168997,3.250725 16.383653,0 24.70551,0 32.572267,0 39.983918,2.860638 45.705195,8.126813 l 0,-3.575797 3.705826,0 z m -45.7051953,53.311888 0,-3.575797 c 5.91632,5.396204 13.4580023,8.126812 20.9996843,8.126812 7.996786,0 15.993568,-3.055683 22.039918,-9.102029 l 1.300287,-1.30029 -2.600578,-2.600582 -1.300289,1.300291 C 33.807541,61.048614 17.163828,61.373688 6.3714207,51.75154 l 3.445769,0 0,-3.705826 -7.216609,0 0,0 0,0 -2.6005807,0 0,2.535567 0,0 0,0 0,7.281623 3.7058257,0 z M 42.844558,27.111046 40.439022,28.086264 c 0.390085,2.01545 0.390085,4.160929 0,6.241391 l 2.405536,0.975216 c 0.845186,0.390089 1.30029,1.365306 0.910203,2.210495 l -1.105247,2.665595 c -0.390087,0.845188 -1.365305,1.300289 -2.210492,0.910202 l -2.405539,-0.975216 c -1.17026,1.755391 -2.665593,3.250725 -4.420985,4.420986 l 0.975218,2.405536 c 0.390087,0.845189 -0.06501,1.88542 -0.910204,2.210492 l -2.665594,1.105246 c -0.845189,0.390088 -1.885421,-0.06501 -2.210493,-0.910203 l -0.975219,-2.405535 c -2.015449,0.390087 -4.160928,0.390087 -6.241394,0 l -0.975216,2.405535 c -0.390087,0.845189 -1.365304,1.300291 -2.210492,0.910203 L 15.733511,49.150961 C 14.888322,48.760876 14.43322,47.785658 14.823307,46.940469 l 0.975218,-2.405536 c -1.755392,-1.170261 -3.250726,-2.665595 -4.420988,-4.420986 l -2.4055363,0.975216 c -0.845189,0.390087 -1.885419,-0.065 -2.210492,-0.910202 l -1.105248,-2.665595 c -0.390086,-0.845189 0.06501,-1.88542 0.910202,-2.210495 l 2.405538,-0.975216 c -0.390086,-2.015448 -0.390086,-4.160927 0,-6.241391 L 6.5664627,27.111046 C 5.7212757,26.72096 5.2661747,25.745741 5.6562607,24.900555 l 1.105248,-2.665596 c 0.390087,-0.845187 1.365303,-1.300291 2.210492,-0.910203 l 2.4055363,0.975218 c 1.170262,-1.755391 2.665596,-3.250725 4.420988,-4.420987 l -0.975218,-2.405536 c -0.390087,-0.845189 0.06501,-1.885419 0.910204,-2.210493 l 2.665593,-1.105246 c 0.845188,-0.390087 1.885419,0.06501 2.210492,0.910203 l 0.975216,2.405536 c 2.015452,-0.390088 4.160928,-0.390088 6.241394,0 l 0.975219,-2.405536 c 0.390087,-0.845189 1.365304,-1.30029 2.210493,-0.910203 l 2.665594,1.105246 c 0.845189,0.390088 1.300291,1.365304 0.910204,2.210493 l -0.975218,2.405536 c 1.755392,1.170262 3.250725,2.665596 4.420985,4.420987 l 2.405539,-0.975218 c 0.845187,-0.390088 1.885419,0.06501 2.210492,0.910203 l 1.105247,2.665596 c 0.325071,0.845186 -0.06502,1.820405 -0.910203,2.210491 z M 27.631165,24.185394 c -3.900873,-1.625363 -8.321859,0.260059 -9.947221,4.095913 -1.625363,3.900871 0.260058,8.321857 4.095914,9.947219 3.900868,1.62536 8.321857,-0.260059 9.94722,-4.095914 1.625362,-3.90087 -0.195045,-8.321854 -4.095913,-9.947218 z"
     id="path4193" />
</svg>
