<?xml version="1.0" encoding="UTF-8" standalone="no"?>
<svg
   xmlns:dc="http://purl.org/dc/elements/1.1/"
   xmlns:cc="http://creativecommons.org/ns#"
   xmlns:rdf="http://www.w3.org/1999/02/22-rdf-syntax-ns#"
   xmlns:svg="http://www.w3.org/2000/svg"
   xmlns="http://www.w3.org/2000/svg"
   xmlns:sodipodi="http://sodipodi.sourceforge.net/DTD/sodipodi-0.dtd"
   xmlns:inkscape="http://www.inkscape.org/namespaces/inkscape"
   version="1.1"
   x="0px"
   y="0px"
   viewBox="0 0 20 20"
   enable-background="new 0 0 20 20"
   xml:space="preserve"
   id="svg2"
   inkscape:version="0.91 r13725"
   sodipodi:docname="type-woost-models-blockscatalog-BlocksCatalog.svg"><metadata
     id="metadata10"><rdf:RDF><cc:Work
         rdf:about=""><dc:format>image/svg+xml</dc:format><dc:type
           rdf:resource="http://purl.org/dc/dcmitype/StillImage" /></cc:Work></rdf:RDF></metadata><defs
     id="defs8" /><sodipodi:namedview
     pagecolor="#ffffff"
     bordercolor="#666666"
     borderopacity="1"
     objecttolerance="10"
     gridtolerance="10"
     guidetolerance="10"
     inkscape:pageopacity="0"
     inkscape:pageshadow="2"
     inkscape:window-width="1920"
     inkscape:window-height="1016"
     id="namedview6"
     showgrid="false"
     inkscape:zoom="11.8"
     inkscape:cx="-3.6864402"
     inkscape:cy="10.338983"
     inkscape:window-x="0"
     inkscape:window-y="27"
     inkscape:window-maximized="1"
     inkscape:current-layer="svg2" /><path
     d="m 17.681356,3.8898305 -1.39661,0 c -0.08729,0 -0.174577,0.087288 -0.174577,0.1745763 l 0,12.9186442 -11.3474571,0 c -0.5237288,0 -0.8728814,-0.349153 -0.8728814,-0.872882 0,-0.523728 0.3491526,-0.872881 0.8728814,-0.872881 l 9.4271191,0 c 0.08729,0 0.174576,-0.08729 0.174576,-0.174576 l 0,-13.6169493 c 0,-0.087288 -0.08729,-0.1745763 -0.174576,-0.1745763 l -10.3000005,0 c -0.9601695,0 -1.7457627,0.7855933 -1.7457627,1.7457628 l 0,13.0059318 0,0 c 0,0.523729 0.087288,1.047458 0.5237288,1.571187 0.5237288,0.698305 1.3966102,1.134746 2.2694915,1.134746 l 12.0457629,0 c 0.523729,0 0.872881,-0.349153 0.872881,-0.872882 l 0,-13.7915252 c 0,-0.087288 -0.08729,-0.1745763 -0.174576,-0.1745763 z"
     id="path4"
     inkscape:connector-curvature="0" /></svg>