<?xml version="1.0" encoding="UTF-8" standalone="no"?>
<svg
   xmlns:dc="http://purl.org/dc/elements/1.1/"
   xmlns:cc="http://creativecommons.org/ns#"
   xmlns:rdf="http://www.w3.org/1999/02/22-rdf-syntax-ns#"
   xmlns:svg="http://www.w3.org/2000/svg"
   xmlns="http://www.w3.org/2000/svg"
   xmlns:sodipodi="http://sodipodi.sourceforge.net/DTD/sodipodi-0.dtd"
   xmlns:inkscape="http://www.inkscape.org/namespaces/inkscape"
   version="1.1"
   x="0px"
   y="0px"
   viewBox="0 0 100 100"
   enable-background="new 0 0 100 100"
   xml:space="preserve"
   id="svg2"
   inkscape:version="0.91 r13725"
   sodipodi:docname="type-woost-models-containerblock-ContainerBlock.svg"
   width="100%"
   height="100%"><metadata
     id="metadata10"><rdf:RDF><cc:Work
         rdf:about=""><dc:format>image/svg+xml</dc:format><dc:type
           rdf:resource="http://purl.org/dc/dcmitype/StillImage" /></cc:Work></rdf:RDF></metadata><defs
     id="defs8" /><sodipodi:namedview
     pagecolor="#ffffff"
     bordercolor="#666666"
     borderopacity="1"
     objecttolerance="10"
     gridtolerance="10"
     guidetolerance="10"
     inkscape:pageopacity="0"
     inkscape:pageshadow="2"
     inkscape:window-width="1920"
     inkscape:window-height="1016"
     id="namedview6"
     showgrid="false"
     inkscape:zoom="2.36"
     inkscape:cx="46.398305"
     inkscape:cy="51.271186"
     inkscape:window-x="0"
     inkscape:window-y="27"
     inkscape:window-maximized="1"
     inkscape:current-layer="svg2" /><path
     d="M 66.554776,53.994953 50,46.276527 83.108448,30.838573 99.661017,38.556998 83.108448,46.275424 66.554776,53.994953 Z M 83.108448,15.399514 66.554776,7.6810885 50,15.399514 83.108448,30.837469 99.661017,23.120147 83.108448,15.399514 Z M 33.446328,38.556998 16.892655,30.838573 0.33898305,38.556998 33.446328,53.994953 50,46.276527 33.446328,38.556998 Z m 0,-15.437955 L 50,15.399514 33.446328,7.6810885 0.33898305,23.120147 16.892655,30.838573 33.446328,23.119043 Z m 49.66212,27.693191 -14.81664,6.908399 -1.737032,0.810026 L 64.817744,57.720633 50,50.812234 l -14.815537,6.908399 -1.738135,0.810026 -1.737032,-0.810026 -14.815537,-6.908399 0,24.211401 L 50,92.318911 83.108448,75.023635 l 0,-24.211401 z"
     id="path4"
     inkscape:connector-curvature="0" /></svg>