<?xml version="1.0" encoding="UTF-8" standalone="no"?>
<svg
   xmlns:dc="http://purl.org/dc/elements/1.1/"
   xmlns:cc="http://creativecommons.org/ns#"
   xmlns:rdf="http://www.w3.org/1999/02/22-rdf-syntax-ns#"
   xmlns:svg="http://www.w3.org/2000/svg"
   xmlns="http://www.w3.org/2000/svg"
   xmlns:sodipodi="http://sodipodi.sourceforge.net/DTD/sodipodi-0.dtd"
   xmlns:inkscape="http://www.inkscape.org/namespaces/inkscape"
   version="1.1"
   x="0px"
   y="0px"
   viewBox="0 0 758.83649 719.59406"
   xml:space="preserve"
   id="svg4292"
   inkscape:version="0.91 r13725"
   sodipodi:docname="access-levels.svg"
   width="758.83649"
   height="719.59406"><metadata
     id="metadata4300"><rdf:RDF><cc:Work
         rdf:about=""><dc:format>image/svg+xml</dc:format><dc:type
           rdf:resource="http://purl.org/dc/dcmitype/StillImage" /><dc:title></dc:title></cc:Work></rdf:RDF></metadata><defs
     id="defs4298" /><sodipodi:namedview
     pagecolor="#ffffff"
     bordercolor="#666666"
     borderopacity="1"
     objecttolerance="10"
     gridtolerance="10"
     guidetolerance="10"
     inkscape:pageopacity="0"
     inkscape:pageshadow="2"
     inkscape:window-width="754"
     inkscape:window-height="480"
     id="namedview4296"
     showgrid="false"
     fit-margin-top="0"
     fit-margin-left="0"
     fit-margin-right="0"
     fit-margin-bottom="0"
     inkscape:zoom="0.236"
     inkscape:cx="378.3439"
     inkscape:cy="359.39199"
     inkscape:window-x="0"
     inkscape:window-y="27"
     inkscape:window-maximized="0"
     inkscape:current-layer="svg4292" /><path
     d="m 757.9439,169.80206 c -9.4,-78.300003 -79.1,-152.600003 -156.8,-167.0000032 -33.2,-6.2 -65.1,-2.90000003 -92.7,17.9000002 -33.1,24.9 -47.5,73.1 -34.2,114.800003 7.1,22.1 16.7,43.3 25.8,66.6 -18.4,18.4 -38.4,38.6 -58.6,58.5 -70.2,69.7 -140.4,139.4 -210.9,208.9 -0.7,0.7 -1.8,1.8 -3.4,3.3 0,-0.1 0,-0.3 -0.1,-0.3 -5.3,-5 -73.3,-67.7 -73.3,-67.7 l -30,31 10,14.7 c 0,0 -26,31.5 -31.8,25.7 -22.399997,-22.5 -22.699997,-22.4 -43.199997,1.3 -5.5,6.4 -5.6,11.9 0.1,17.8 5.2,5.4 10.6,10.6 16,16.1 -8.4,8.4 -15.3,15.3 -22.9,22.9 -2.9,-2.5 -4.7,-3.9 -6.3,-5.5 -20.2,-21.2 -19,-18.5 -38.8000005,0.5 -8.7,8.4 -9.4,15.1 -0.4,23.7 16.7000005,15.9 32.7000005,32.5 49.0000005,48.8 22.3,22.2 22,19.4 -0.2,41.5 -19.3,19.2 -20.3,46 -2.7,63.9 17.5,17.9 41.5,16.3 61.899997,-4.1 38.6,-38.7 77.1,-77.5 115.9,-116 3.5,-3.5 47.4,-47.4 50.5,-50.5 90.1,-90.6 180.4,-181 270.5,-271.6 6.1,-6.1 10.5,-6.7 18.5,-2.8 17.3,8.4 34.9,17.1 53.4,22.1 77.9,20.7 144.1,-35.9 134.7,-114.5 z m -64.1,36.5 c -3.1,13.3 -16.1,19.8 -32.3,16.3 -32.8,-7.1 -61.9,-22.8 -83.2,-44.7 -22.5,-23.3 -36.6,-51 -43.1,-82.600003 -2.8,-13.7 5.5,-27.6 18,-30.6 16.2,-3.9 33.2,5.1 36.5,19.3 10.3,45.200003 38,73.300003 83,84.300003 16.1,3.9 25.3,20.4 21.1,38 z"
     id="path4294"
     inkscape:connector-curvature="0" /></svg>