<?xml version="1.0" encoding="UTF-8" standalone="no"?>
<svg
   xmlns:dc="http://purl.org/dc/elements/1.1/"
   xmlns:cc="http://creativecommons.org/ns#"
   xmlns:rdf="http://www.w3.org/1999/02/22-rdf-syntax-ns#"
   xmlns:svg="http://www.w3.org/2000/svg"
   xmlns="http://www.w3.org/2000/svg"
   xmlns:sodipodi="http://sodipodi.sourceforge.net/DTD/sodipodi-0.dtd"
   xmlns:inkscape="http://www.inkscape.org/namespaces/inkscape"
   height="77.199997"
   width="77.099998"
   version="1.1"
   x="0px"
   y="0px"
   viewBox="0 0 77.099998 77.199997"
   xml:space="preserve"
   id="svg836"
   sodipodi:docname="create.svg"
   inkscape:version="0.92.3 (2405546, 2018-03-11)"><metadata
     id="metadata842"><rdf:RDF><cc:Work
         rdf:about=""><dc:format>image/svg+xml</dc:format><dc:type
           rdf:resource="http://purl.org/dc/dcmitype/StillImage" /><dc:title></dc:title></cc:Work></rdf:RDF></metadata><defs
     id="defs840" /><sodipodi:namedview
     pagecolor="#ffffff"
     bordercolor="#666666"
     borderopacity="1"
     objecttolerance="10"
     gridtolerance="10"
     guidetolerance="10"
     inkscape:pageopacity="0"
     inkscape:pageshadow="2"
     inkscape:window-width="1920"
     inkscape:window-height="1025"
     id="namedview838"
     showgrid="false"
     fit-margin-top="0"
     fit-margin-left="0"
     fit-margin-right="0"
     fit-margin-bottom="0"
     inkscape:zoom="8"
     inkscape:cx="15.0375"
     inkscape:cy="38.6"
     inkscape:window-x="1920"
     inkscape:window-y="27"
     inkscape:window-maximized="1"
     inkscape:current-layer="svg836" /><path
     d="m 0,60.3 c 0,9.3 7.6,16.9 16.9,16.9 h 43.3 c 9.3,0 16.9,-7.6 16.9,-16.9 V 16.9 C 77.1,7.6 69.5,0 60.2,0 H 16.9 C 7.6,0 0,7.6 0,16.9 Z"
     id="path834"
     inkscape:connector-curvature="0"
     sodipodi:nodetypes="sssssssss" /><path
     d="M 17.919145,33.523572 H 33.472147 V 17.970001 c 0,-1.335467 1.082887,-2.417782 2.417781,-2.417782 h 5.318433 c 1.335465,0 2.417209,1.082315 2.417209,2.417782 v 15.553571 h 15.554145 c 1.335464,0 2.417209,1.082888 2.417209,2.41721 v 5.318431 c 0,1.334895 -1.082315,2.417783 -2.417209,2.417783 H 43.626713 v 15.553572 c 0,1.335466 -1.081744,2.41721 -2.417209,2.41721 h -5.318433 c -1.335466,0 -2.417781,-1.082316 -2.417781,-2.41721 V 43.677567 H 17.920288 c -1.335466,0 -2.417213,-1.083459 -2.417213,-2.417781 v -5.318432 c -0.0014,-1.335466 1.081176,-2.417782 2.41607,-2.417782 z"
     id="path4"
     inkscape:connector-curvature="0"
     style="fill:#ffffff;stroke-width:0.86409366" /></svg>