<?xml version="1.0" encoding="UTF-8" standalone="no"?>
<svg
   xmlns:dc="http://purl.org/dc/elements/1.1/"
   xmlns:cc="http://creativecommons.org/ns#"
   xmlns:rdf="http://www.w3.org/1999/02/22-rdf-syntax-ns#"
   xmlns:svg="http://www.w3.org/2000/svg"
   xmlns="http://www.w3.org/2000/svg"
   xmlns:sodipodi="http://sodipodi.sourceforge.net/DTD/sodipodi-0.dtd"
   xmlns:inkscape="http://www.inkscape.org/namespaces/inkscape"
   height="77.199997"
   width="77.099998"
   version="1.1"
   x="0px"
   y="0px"
   viewBox="0 0 77.099998 77.199997"
   xml:space="preserve"
   id="svg836"
   sodipodi:docname="read.svg"
   inkscape:version="0.92.3 (2405546, 2018-03-11)"><metadata
     id="metadata842"><rdf:RDF><cc:Work
         rdf:about=""><dc:format>image/svg+xml</dc:format><dc:type
           rdf:resource="http://purl.org/dc/dcmitype/StillImage" /><dc:title></dc:title></cc:Work></rdf:RDF></metadata><defs
     id="defs840" /><sodipodi:namedview
     pagecolor="#ffffff"
     bordercolor="#666666"
     borderopacity="1"
     objecttolerance="10"
     gridtolerance="10"
     guidetolerance="10"
     inkscape:pageopacity="0"
     inkscape:pageshadow="2"
     inkscape:window-width="1920"
     inkscape:window-height="1025"
     id="namedview838"
     showgrid="false"
     fit-margin-top="0"
     fit-margin-left="0"
     fit-margin-right="0"
     fit-margin-bottom="0"
     inkscape:zoom="8"
     inkscape:cx="15.0375"
     inkscape:cy="38.6"
     inkscape:window-x="0"
     inkscape:window-y="27"
     inkscape:window-maximized="1"
     inkscape:current-layer="svg836" /><path
     d="m 0,60.3 c 0,9.3 7.6,16.9 16.9,16.9 h 43.3 c 9.3,0 16.9,-7.6 16.9,-16.9 V 16.9 C 77.1,7.6 69.5,0 60.2,0 H 16.9 C 7.6,0 0,7.6 0,16.9 Z"
     id="path834"
     inkscape:connector-curvature="0"
     sodipodi:nodetypes="sssssssss" /><g
     transform="matrix(0.77819246,0,0,0.77819246,3.5343223,3.5818982)"
     id="g1497"
     style="fill:#ffffff"><g
       id="g1495"
       style="fill:#ffffff"><path
         inkscape:connector-curvature="0"
         d="m 75.28418,65.57422 c 1.33008,1.58984 1.12012,3.95996 -0.45996,5.29004 l -8.12988,6.81006 c -0.66992,0.56982 -1.53027,0.87988 -2.41016,0.87988 -1.11035,0 -2.16016,-0.48975 -2.87012,-1.33984 L 48.76465,62.13428 c -2.83008,1.02002 -5.79004,1.52979 -8.81055,1.52979 -7.74023,0 -15.04004,-3.3999 -20.00977,-9.31982 -4.48047,-5.3501 -6.62012,-12.12012 -6.00977,-19.06982 0.60938,-6.93994 3.88965,-13.24023 9.22949,-17.72021 4.7002,-3.93994 10.65039,-6.10986 16.77051,-6.10986 7.75,0 15.0498,3.3999 20.01953,9.31982 7.0498,8.3999 8.08984,20.26025 2.68066,29.72998 z M 28.04395,23.35449 c -7.83008,6.56982 -8.85938,18.27979 -2.29004,26.10986 3.53027,4.20996 8.70996,6.62012 14.20996,6.62012 4.34082,0 8.57031,-1.54004 11.90039,-4.33008 3.79004,-3.18018 6.12012,-7.6499 6.5498,-12.58008 0.43066,-4.93018 -1.08008,-9.74023 -4.26953,-13.52979 -3.53027,-4.21045 -8.7002,-6.62012 -14.2002,-6.62012 -4.33984,10e-6 -8.57031,1.54005 -11.90038,4.33009 z"
         id="path1493"
         style="fill:#ffffff" /></g></g><g
     transform="matrix(0.77819246,0,0,0.77819246,3.5343223,3.5818982)"
     id="g2054"
     style="fill:#ffffff"><g
       id="g2052"
       style="fill:#ffffff"><path
         inkscape:connector-curvature="0"
         id="path2050"
         d="m 75.28418,65.57422 c 1.33008,1.58984 1.12012,3.95996 -0.45996,5.29004 l -8.12988,6.81006 c -0.66992,0.56982 -1.53027,0.87988 -2.41016,0.87988 -1.11035,0 -2.16016,-0.48975 -2.87012,-1.33984 L 48.76465,62.13428 c -2.83008,1.02002 -5.79004,1.52979 -8.81055,1.52979 -7.74023,0 -15.04004,-3.3999 -20.00977,-9.31982 -4.48047,-5.3501 -6.62012,-12.12012 -6.00977,-19.06982 0.60938,-6.93994 3.88965,-13.24023 9.22949,-17.72021 4.7002,-3.93994 10.65039,-6.10986 16.77051,-6.10986 7.75,0 15.0498,3.3999 20.01953,9.31982 7.0498,8.3999 8.08984,20.26025 2.68066,29.72998 z M 28.04395,23.35449 c -7.83008,6.56982 -8.85938,18.27979 -2.29004,26.10986 3.53027,4.20996 8.70996,6.62012 14.20996,6.62012 4.34082,0 8.57031,-1.54004 11.90039,-4.33008 3.79004,-3.18018 6.12012,-7.6499 6.5498,-12.58008 0.43066,-4.93018 -1.08008,-9.74023 -4.26953,-13.52979 -3.53027,-4.21045 -8.7002,-6.62012 -14.2002,-6.62012 -4.33984,10e-6 -8.57031,1.54005 -11.90038,4.33009 z"
         style="fill:#ffffff" /></g></g></svg>