<?xml version="1.0" encoding="UTF-8" standalone="no"?>
<svg
   xmlns:dc="http://purl.org/dc/elements/1.1/"
   xmlns:cc="http://creativecommons.org/ns#"
   xmlns:rdf="http://www.w3.org/1999/02/22-rdf-syntax-ns#"
   xmlns:svg="http://www.w3.org/2000/svg"
   xmlns="http://www.w3.org/2000/svg"
   xmlns:sodipodi="http://sodipodi.sourceforge.net/DTD/sodipodi-0.dtd"
   xmlns:inkscape="http://www.inkscape.org/namespaces/inkscape"
   version="1.1"
   x="0px"
   y="0px"
   viewBox="0 0 100 100"
   enable-background="new 0 0 100 100"
   xml:space="preserve"
   id="svg4287"
   inkscape:version="0.91 r13725"
   sodipodi:docname="empty-set.svg"><metadata
     id="metadata4295"><rdf:RDF><cc:Work
         rdf:about=""><dc:format>image/svg+xml</dc:format><dc:type
           rdf:resource="http://purl.org/dc/dcmitype/StillImage" /></cc:Work></rdf:RDF></metadata><defs
     id="defs4293" /><sodipodi:namedview
     pagecolor="#ffffff"
     bordercolor="#666666"
     borderopacity="1"
     objecttolerance="10"
     gridtolerance="10"
     guidetolerance="10"
     inkscape:pageopacity="0"
     inkscape:pageshadow="2"
     inkscape:window-width="1920"
     inkscape:window-height="1016"
     id="namedview4291"
     showgrid="false"
     inkscape:zoom="2.36"
     inkscape:cx="-15.466102"
     inkscape:cy="51.271186"
     inkscape:window-x="0"
     inkscape:window-y="27"
     inkscape:window-maximized="1"
     inkscape:current-layer="svg4287" /><path
     d="m 69.355,23.05 4.29,-7.37 -5.72,-3.3 -4.18,7.37 c -4.18,-1.87 -8.8,-2.97 -13.64,-2.97 -18.26,0 -33.22,14.85 -33.22,33.22 0,11.11 5.5,20.9 13.86,26.95 l -4.29,7.37 5.72,3.3 4.18,-7.37 c 4.18,1.87 8.8,2.97 13.64,2.97 18.26,0 33.22,-14.85 33.22,-33.22 0,-11.11 -5.5,-20.9 -13.86,-26.95 z M 23.375,50 c 0,-14.63 11.88,-26.62 26.62,-26.62 3.63,0 7.15,0.77 10.34,2.09 l -26.4,45.65 C 27.555,66.28 23.375,58.69 23.375,50 Z m 26.62,26.62 c -3.63,0 -7.15,-0.77 -10.34,-2.09 l 26.4,-45.65 c 6.38,4.84 10.56,12.54 10.56,21.23 0,14.52 -11.99,26.51 -26.62,26.51 z"
     id="path4289"
     inkscape:connector-curvature="0" /></svg>