<svg xmlns="http://www.w3.org/2000/svg" xmlns:xlink="http://www.w3.org/1999/xlink" xml:space="preserve" version="1.1" style="shape-rendering:geometricPrecision;text-rendering:geometricPrecision;image-rendering:optimizeQuality;" viewBox="0 0 528 528" x="0px" y="0px" fill-rule="evenodd" clip-rule="evenodd"><defs><style type="text/css">
   
    .fil0 {fill:black}
   
  </style></defs><g><path class="fil0" d="M264 0c146,0 264,118 264,264 0,146 -118,264 -264,264 -146,0 -264,-118 -264,-264 0,-146 118,-264 264,-264zm-185 221l371 0c7,0 13,6 13,13l0 61c0,7 -6,13 -13,13l-371 0c-8,0 -14,-6 -14,-13l0 -61c0,-7 6,-13 14,-13z"></path></g></svg>