<?xml version="1.0" encoding="UTF-8" standalone="no"?>
<svg
   xmlns:dc="http://purl.org/dc/elements/1.1/"
   xmlns:cc="http://creativecommons.org/ns#"
   xmlns:rdf="http://www.w3.org/1999/02/22-rdf-syntax-ns#"
   xmlns:svg="http://www.w3.org/2000/svg"
   xmlns="http://www.w3.org/2000/svg"
   xmlns:sodipodi="http://sodipodi.sourceforge.net/DTD/sodipodi-0.dtd"
   xmlns:inkscape="http://www.inkscape.org/namespaces/inkscape"
   data-name="Layer 1"
   viewBox="0 0 99.998421 73.75"
   x="0px"
   y="0px"
   id="svg4418"
   version="1.1"
   inkscape:version="0.91 r13725"
   sodipodi:docname="email-templates.svg"
   width="99.998421"
   height="73.75">
  <metadata
     id="metadata4430">
    <rdf:RDF>
      <cc:Work
         rdf:about="">
        <dc:format>image/svg+xml</dc:format>
        <dc:type
           rdf:resource="http://purl.org/dc/dcmitype/StillImage" />
        <dc:title>mail50</dc:title>
      </cc:Work>
    </rdf:RDF>
  </metadata>
  <defs
     id="defs4428" />
  <sodipodi:namedview
     pagecolor="#ffffff"
     bordercolor="#666666"
     borderopacity="1"
     objecttolerance="10"
     gridtolerance="10"
     guidetolerance="10"
     inkscape:pageopacity="0"
     inkscape:pageshadow="2"
     inkscape:window-width="754"
     inkscape:window-height="480"
     id="namedview4426"
     showgrid="false"
     fit-margin-top="0"
     fit-margin-left="0"
     fit-margin-right="0"
     fit-margin-bottom="0"
     inkscape:zoom="2.36"
     inkscape:cx="50.002876"
     inkscape:cy="36.88"
     inkscape:window-x="0"
     inkscape:window-y="27"
     inkscape:window-maximized="0"
     inkscape:current-layer="svg4418" />
  <title
     id="title4420">mail50</title>
  <path
     d="m 0.2728765,73.74 0,-57.48 c 2.7,1.49 5,2.64 7.22,4 13.0699995,8.22 26.1499995,16.41 39.1099995,24.8 2.53,1.64 4.24,1.65 6.79,0 15.08,-9.66 30.29,-19.19 46.12,-29.11 l 0,57.8 -99.2399995,0 z"
     id="path4422"
     inkscape:connector-curvature="0" />
  <path
     d="M 0.5628765,0 99.432876,0 c 1.520004,5.45 0,8.94 -4.85,11.92 -14,8.62 -27.72,17.66 -41.44,26.7 -2.36,1.55 -4,1.53 -6.3,0 -13.73,-9.05 -27.45,-18.1 -41.4399995,-26.75 -4.85,-2.95 -6.35,-6.45 -4.84,-11.87 z"
     id="path4424"
     inkscape:connector-curvature="0" />
</svg>
