<?xml version="1.0" encoding="UTF-8" standalone="no"?>
<svg
   xmlns:dc="http://purl.org/dc/elements/1.1/"
   xmlns:cc="http://creativecommons.org/ns#"
   xmlns:rdf="http://www.w3.org/1999/02/22-rdf-syntax-ns#"
   xmlns:svg="http://www.w3.org/2000/svg"
   xmlns="http://www.w3.org/2000/svg"
   xmlns:sodipodi="http://sodipodi.sourceforge.net/DTD/sodipodi-0.dtd"
   xmlns:inkscape="http://www.inkscape.org/namespaces/inkscape"
   version="1.1"
   x="0px"
   y="0px"
   viewBox="0 0 932 978"
   enable-background="new 0 0 950 1000"
   xml:space="preserve"
   id="svg2"
   inkscape:version="0.91 r13725"
   sodipodi:docname="events.svg"><metadata
     id="metadata10"><rdf:RDF><cc:Work
         rdf:about=""><dc:format>image/svg+xml</dc:format><dc:type
           rdf:resource="http://purl.org/dc/dcmitype/StillImage" /></cc:Work></rdf:RDF></metadata><defs
     id="defs8" /><sodipodi:namedview
     pagecolor="#ffffff"
     bordercolor="#666666"
     borderopacity="1"
     objecttolerance="10"
     gridtolerance="10"
     guidetolerance="10"
     inkscape:pageopacity="0"
     inkscape:pageshadow="2"
     inkscape:window-width="758"
     inkscape:window-height="480"
     id="namedview6"
     showgrid="false"
     inkscape:zoom="0.24130879"
     inkscape:cx="466"
     inkscape:cy="480.71186"
     inkscape:window-x="0"
     inkscape:window-y="27"
     inkscape:window-maximized="0"
     inkscape:current-layer="svg2" /><path
     d="m 174.81836,0 c -15.65,0 -28.34961,17.527344 -28.34961,39.152344 l 0,84.830076 c 0,21.627 12.70061,39.15235 28.34961,39.15235 15.65,0 28.34961,-17.52535 28.34961,-39.15235 l 0,-84.830076 C 203.16797,17.527344 190.46836,0 174.81836,0 Z m 291.17969,0 c -15.648,0 -28.34866,17.527344 -28.34766,39.152344 l 0,84.830076 c 0,21.627 12.70066,39.15235 28.34766,39.15235 15.651,0 28.34961,-17.52535 28.34961,-39.15235 l 0,-84.830076 C 494.34766,17.527344 481.64905,0 465.99805,0 Z m 291.18164,0 c -15.647,0 -28.35056,17.527344 -28.35157,39.152344 l 0,84.830076 c 0,21.627 12.70557,39.15235 28.35157,39.15235 15.65,0 28.34961,-17.52535 28.34961,-39.15235 l 0.002,0 0,-84.830076 C 785.53125,17.527344 772.82869,0 757.17969,0 Z M 56.699219,68.572266 C 25.386219,68.572266 0,94.42736 0,126.31836 l 0,123.69531 932,0 0,-123.69531 c 0,-31.89 -25.38722,-57.746094 -56.69922,-57.746094 l -64.37109,0 0,63.666014 c 0,30.231 -24.066,54.74414 -53.75,54.74414 -29.694,0 -53.75,-24.51314 -53.75,-54.74414 l 0,-63.666014 -183.69336,0 0,63.666014 c 0,30.231 -24.05528,54.74414 -53.73828,54.74414 -29.682,0 -53.73633,-24.51314 -53.73633,-54.74414 l 0,-63.666014 -183.69141,0 0,63.666014 c 0,30.231 -24.05595,54.74414 -53.75195,54.74414 -29.682,0 -53.75,-24.51314 -53.75,-54.74414 l 0,-63.666014 -64.369141,0 z M 0,280.01367 0,923.45703 C 0,953.57203 25.386219,978 56.699219,978 l 818.601561,0 C 906.61378,978 932,953.57203 932,923.45703 l 0,-643.44336 -932,0 z m 64.941406,43.46094 804.023434,0 c 11.114,0 20.10157,8.5233 20.10157,19.0293 l 0,570.33007 -0.002,0 c 0,0.074 -0.041,0.15057 -0.041,0.22657 0,0.077 0.041,0.15051 0.041,0.22851 0,10.5 -8.98656,19.02735 -20.10156,19.02735 l -804.021484,0 c -11.117,0 -20.101562,-8.52735 -20.101562,-19.02735 0,-0.078 0.03906,-0.15151 0.03906,-0.22851 0,-0.075 -0.03906,-0.15157 -0.03906,-0.22657 l 0,-570.33007 c 0,-10.506 8.984562,-19.0293 20.101562,-19.0293 z m 40.302734,49.41406 0,137.29297 136.81836,0 0,-137.29297 -136.81836,0 z m 196.33398,0 0,137.29297 136.81641,0 0,-137.29297 -136.81641,0 z m 195.44532,0 0,137.29297 136.81836,0 0,-137.29297 -136.81836,0 z m 192.30859,0 0,137.29297 136.82031,0 0,-137.29297 -136.82031,0 z m -584.64844,184.42578 0,137.29297 136.81446,0 0,-137.29297 -136.81446,0 z m 196.33008,0 0,137.29297 136.81836,0 0,-137.29297 -136.81836,0 z m 195.44727,0 0,137.29297 136.81836,0 0,-137.29297 -136.81836,0 z m 192.31054,0 0,137.29297 136.81641,0 0,-137.29297 -136.81641,0 z m -584.08789,186.47461 0,137.29297 136.81446,0 0,-137.29297 -136.81446,0 z m 196.33008,0 0,137.29297 136.81836,0 0,-137.29297 -136.81836,0 z m 195.44727,0 0,137.29297 136.81836,0 0,-137.29297 -136.81836,0 z"
     id="path4"
     inkscape:connector-curvature="0" /></svg>