<?xml version="1.0" encoding="UTF-8" standalone="no"?>
<svg
   xmlns:dc="http://purl.org/dc/elements/1.1/"
   xmlns:cc="http://creativecommons.org/ns#"
   xmlns:rdf="http://www.w3.org/1999/02/22-rdf-syntax-ns#"
   xmlns:svg="http://www.w3.org/2000/svg"
   xmlns="http://www.w3.org/2000/svg"
   xmlns:sodipodi="http://sodipodi.sourceforge.net/DTD/sodipodi-0.dtd"
   xmlns:inkscape="http://www.inkscape.org/namespaces/inkscape"
   version="1.1"
   x="0px"
   y="0px"
   viewBox="0 0 88.491997 88.491997"
   enable-background="new 0 0 100 100"
   xml:space="preserve"
   id="svg4835"
   inkscape:version="0.91 r13725"
   sodipodi:docname="grids.svg"
   width="88.491997"
   height="88.491997"><metadata
     id="metadata4891"><rdf:RDF><cc:Work
         rdf:about=""><dc:format>image/svg+xml</dc:format><dc:type
           rdf:resource="http://purl.org/dc/dcmitype/StillImage" /><dc:title></dc:title></cc:Work></rdf:RDF></metadata><defs
     id="defs4889" /><sodipodi:namedview
     pagecolor="#ffffff"
     bordercolor="#666666"
     borderopacity="1"
     objecttolerance="10"
     gridtolerance="10"
     guidetolerance="10"
     inkscape:pageopacity="0"
     inkscape:pageshadow="2"
     inkscape:window-width="1920"
     inkscape:window-height="1016"
     id="namedview4887"
     showgrid="false"
     fit-margin-top="0"
     fit-margin-left="0"
     fit-margin-right="0"
     fit-margin-bottom="0"
     inkscape:zoom="2.36"
     inkscape:cx="-3.2116271"
     inkscape:cy="45.517185"
     inkscape:window-x="0"
     inkscape:window-y="27"
     inkscape:window-maximized="1"
     inkscape:current-layer="svg4835" /><path
     d="m 30.726,31.48 -27.0389999,0 c -0.417,0 -0.754,-0.338 -0.754,-0.754 l 0,-27.0389999 c 0,-0.416 0.338,-0.754 0.754,-0.754 l 27.0389999,0 c 0.417,0 0.754,0.338 0.754,0.754 l 0,27.0389999 c 0.001,0.416 -0.337,0.754 -0.754,0.754 z m -26.2849999,-1.507 25.5309999,0 0,-25.5319999 -25.5309999,0 0,25.5319999 z"
     id="path4837"
     inkscape:connector-curvature="0" /><path
     d="m 57.766,31.48 -27.04,0 c -0.417,0 -0.754,-0.338 -0.754,-0.754 l 0,-27.0389999 c 0,-0.416 0.337,-0.754 0.754,-0.754 l 27.04,0 c 0.417,0 0.754,0.338 0.754,0.754 l 0,27.0389999 c -0.001,0.416 -0.338,0.754 -0.754,0.754 z m -26.286,-1.507 25.531,0 0,-25.5319999 -25.531,0 0,25.5319999 z"
     id="path4839"
     inkscape:connector-curvature="0" /><path
     d="m 84.805,31.48 -27.039,0 c -0.417,0 -0.754,-0.338 -0.754,-0.754 l 0,-27.0389999 c 0,-0.416 0.338,-0.754 0.754,-0.754 l 27.039,0 c 0.417,0 0.754,0.338 0.754,0.754 l 0,27.0389999 c 0,0.416 -0.338,0.754 -0.754,0.754 z m -26.286,-1.507 25.531,0 0,-25.5319999 -25.531,0 0,25.5319999 z"
     id="path4841"
     inkscape:connector-curvature="0" /><path
     d="m 30.726,58.519 -27.0389999,0 c -0.417,0 -0.754,-0.337 -0.754,-0.754 l 0,-27.039 c 0,-0.417 0.338,-0.754 0.754,-0.754 l 27.0389999,0 c 0.417,0 0.754,0.337 0.754,0.754 l 0,27.04 c 0.001,0.417 -0.337,0.753 -0.754,0.753 z m -26.2849999,-1.507 25.5309999,0 0,-25.532 -25.5309999,0 0,25.532 z"
     id="path4843"
     inkscape:connector-curvature="0" /><path
     d="m 57.766,58.519 -27.04,0 c -0.417,0 -0.754,-0.337 -0.754,-0.754 l 0,-27.039 c 0,-0.417 0.337,-0.754 0.754,-0.754 l 27.04,0 c 0.417,0 0.754,0.337 0.754,0.754 l 0,27.04 c -0.001,0.417 -0.338,0.753 -0.754,0.753 z m -26.286,-1.507 25.531,0 0,-25.532 -25.531,0 0,25.532 z"
     id="path4845"
     inkscape:connector-curvature="0"
     style="fill:#000000" /><path
     d="m 84.805,58.519 -27.039,0 c -0.417,0 -0.754,-0.337 -0.754,-0.754 l 0,-27.039 c 0,-0.417 0.338,-0.754 0.754,-0.754 l 27.039,0 c 0.417,0 0.754,0.337 0.754,0.754 l 0,27.04 c 0,0.417 -0.338,0.753 -0.754,0.753 z m -26.286,-1.507 25.531,0 0,-25.532 -25.531,0 0,25.532 z"
     id="path4847"
     inkscape:connector-curvature="0"
     style="fill:#000000" /><path
     d="m 30.726,85.559 -27.0389999,0 c -0.417,0 -0.754,-0.338 -0.754,-0.754 l 0,-27.039 c 0,-0.416 0.338,-0.754 0.754,-0.754 l 27.0389999,0 c 0.417,0 0.754,0.338 0.754,0.754 l 0,27.039 c 0.001,0.416 -0.337,0.754 -0.754,0.754 z m -26.2849999,-1.508 25.5309999,0 0,-25.532 -25.5309999,0 0,25.532 z"
     id="path4849"
     inkscape:connector-curvature="0"
     style="fill:#000000" /><path
     d="m 57.766,85.559 -27.04,0 c -0.417,0 -0.754,-0.338 -0.754,-0.754 l 0,-27.039 c 0,-0.416 0.337,-0.754 0.754,-0.754 l 27.04,0 c 0.417,0 0.754,0.338 0.754,0.754 l 0,27.039 c -0.001,0.416 -0.338,0.754 -0.754,0.754 z m -26.286,-1.508 25.531,0 0,-25.532 -25.531,0 0,25.532 z"
     id="path4851"
     inkscape:connector-curvature="0"
     style="fill:#000000" /><path
     d="m 84.805,85.559 -27.039,0 c -0.417,0 -0.754,-0.338 -0.754,-0.754 l 0,-27.039 c 0,-0.416 0.338,-0.754 0.754,-0.754 l 27.039,0 c 0.417,0 0.754,0.338 0.754,0.754 l 0,27.039 c 0,0.416 -0.338,0.754 -0.754,0.754 z m -26.286,-1.508 25.531,0 0,-25.532 -25.531,0 0,25.532 z"
     id="path4853"
     inkscape:connector-curvature="0"
     style="fill:#000000" /><circle
     cx="30.726"
     cy="30.726"
     r="3.687"
     id="circle4855"
     style="fill:#000000" /><circle
     cx="3.687"
     cy="30.726"
     r="3.687"
     id="circle4857"
     style="fill:#000000" /><circle
     cx="57.765999"
     cy="30.726"
     r="3.687"
     id="circle4859"
     style="fill:#000000" /><circle
     cx="84.805"
     cy="30.726"
     r="3.687"
     id="circle4861"
     style="fill:#000000" /><circle
     cx="30.726"
     cy="3.687"
     r="3.687"
     id="circle4863"
     style="fill:#000000" /><circle
     cx="3.687"
     cy="3.687"
     r="3.687"
     id="circle4865"
     style="fill:#000000" /><circle
     cx="57.765999"
     cy="3.687"
     r="3.687"
     id="circle4867"
     style="fill:#000000" /><circle
     cx="84.805"
     cy="3.687"
     r="3.687"
     id="circle4869"
     style="fill:#000000" /><circle
     cx="30.726"
     cy="84.805"
     r="3.687"
     id="circle4871"
     style="fill:#000000" /><circle
     cx="3.687"
     cy="84.805"
     r="3.687"
     id="circle4873"
     style="fill:#000000" /><circle
     cx="57.765999"
     cy="84.805"
     r="3.687"
     id="circle4875"
     style="fill:#000000" /><circle
     cx="84.805"
     cy="84.805"
     r="3.687"
     id="circle4877"
     style="fill:#000000" /><circle
     cx="57.765999"
     cy="57.765999"
     r="3.687"
     id="circle4879"
     style="fill:#000000" /><circle
     cx="84.805"
     cy="57.765999"
     r="3.687"
     id="circle4881"
     style="fill:#000000" /><circle
     cx="30.726"
     cy="57.765999"
     r="3.687"
     id="circle4883"
     style="fill:#000000" /><circle
     cx="3.687"
     cy="57.765999"
     r="3.687"
     id="circle4885"
     style="fill:#000000" /></svg>