<?xml version="1.0" encoding="UTF-8" standalone="no"?>
<svg
   xmlns:dc="http://purl.org/dc/elements/1.1/"
   xmlns:cc="http://creativecommons.org/ns#"
   xmlns:rdf="http://www.w3.org/1999/02/22-rdf-syntax-ns#"
   xmlns:svg="http://www.w3.org/2000/svg"
   xmlns="http://www.w3.org/2000/svg"
   xmlns:sodipodi="http://sodipodi.sourceforge.net/DTD/sodipodi-0.dtd"
   xmlns:inkscape="http://www.inkscape.org/namespaces/inkscape"
   version="1.1"
   x="0px"
   y="0px"
   viewBox="0 0 74 53"
   xml:space="preserve"
   id="svg4921"
   inkscape:version="0.91 r13725"
   sodipodi:docname="images.svg"
   width="74"
   height="53"><metadata
     id="metadata4937"><rdf:RDF><cc:Work
         rdf:about=""><dc:format>image/svg+xml</dc:format><dc:type
           rdf:resource="http://purl.org/dc/dcmitype/StillImage" /><dc:title></dc:title></cc:Work></rdf:RDF></metadata><defs
     id="defs4935" /><sodipodi:namedview
     pagecolor="#ffffff"
     bordercolor="#666666"
     borderopacity="1"
     objecttolerance="10"
     gridtolerance="10"
     guidetolerance="10"
     inkscape:pageopacity="0"
     inkscape:pageshadow="2"
     inkscape:window-width="1920"
     inkscape:window-height="1016"
     id="namedview4933"
     showgrid="false"
     fit-margin-top="0"
     fit-margin-left="0"
     fit-margin-right="0"
     fit-margin-bottom="0"
     inkscape:zoom="2.36"
     inkscape:cx="38"
     inkscape:cy="31.271186"
     inkscape:window-x="0"
     inkscape:window-y="27"
     inkscape:window-maximized="1"
     inkscape:current-layer="svg4921" /><g
     id="g4923"
     transform="translate(-12,-27)"><polygon
       points="86,71 86,27 29,27 29,31 80,31 80,71 "
       id="polygon4925" /><circle
       cx="62.099998"
       cy="47.5"
       r="5.5"
       id="circle4927" /><polygon
       points="36.9,55.1 12,73.2 12,80 78,80 78,75.7 55.7,60.5 47.2,65.9 "
       id="polygon4929" /><path
       d="M 47.5,63.3 55.7,58.1 78,73.3 78,33 12,33 12,70.8 37.2,52.5 47.5,63.3 Z M 62.1,40 c 4.1,0 7.5,3.4 7.5,7.5 0,4.1 -3.4,7.5 -7.5,7.5 -4.1,0 -7.5,-3.4 -7.5,-7.5 0,-4.1 3.4,-7.5 7.5,-7.5 z"
       id="path4931"
       inkscape:connector-curvature="0" /></g></svg>