<?xml version="1.0" encoding="UTF-8" standalone="no"?>
<svg
   xmlns:dc="http://purl.org/dc/elements/1.1/"
   xmlns:cc="http://creativecommons.org/ns#"
   xmlns:rdf="http://www.w3.org/1999/02/22-rdf-syntax-ns#"
   xmlns:svg="http://www.w3.org/2000/svg"
   xmlns="http://www.w3.org/2000/svg"
   xmlns:sodipodi="http://sodipodi.sourceforge.net/DTD/sodipodi-0.dtd"
   xmlns:inkscape="http://www.inkscape.org/namespaces/inkscape"
   version="1.1"
   x="0px"
   y="0px"
   viewBox="0 0 56 88.096916"
   id="svg3988"
   inkscape:version="0.91 r13725"
   sodipodi:docname="look-and-feel.svg"
   width="56"
   height="88.096916">
  <metadata
     id="metadata3996">
    <rdf:RDF>
      <cc:Work
         rdf:about="">
        <dc:format>image/svg+xml</dc:format>
        <dc:type
           rdf:resource="http://purl.org/dc/dcmitype/StillImage" />
        <dc:title />
      </cc:Work>
    </rdf:RDF>
  </metadata>
  <defs
     id="defs3994" />
  <sodipodi:namedview
     pagecolor="#ffffff"
     bordercolor="#666666"
     borderopacity="1"
     objecttolerance="10"
     gridtolerance="10"
     guidetolerance="10"
     inkscape:pageopacity="0"
     inkscape:pageshadow="2"
     inkscape:window-width="1920"
     inkscape:window-height="1016"
     id="namedview3992"
     showgrid="false"
     fit-margin-top="0"
     fit-margin-left="0"
     fit-margin-right="0"
     fit-margin-bottom="0"
     inkscape:zoom="2.36"
     inkscape:cx="-118.3983"
     inkscape:cy="45.368101"
     inkscape:window-x="0"
     inkscape:window-y="27"
     inkscape:window-maximized="1"
     inkscape:current-layer="svg3988" />
  <path
     d="M 28,0 C 24.2445,0 21.071455,2.9710525 21,6.6875 15.418817,7.710025 10.474453,9.81739 6.75,12.875 2.643645,16.246134 -9.9999972e-7,20.83047 0,26 0,31.917908 3.385205,36.173616 8,38.84375 12.32445,41.345889 17.745801,42.780661 23.34375,44 L 26,85.875 l 0,0.25 a 2.0002,2.0002 0 0 0 4,0 l 0,-0.25 2.53125,-39.96875 c 5.206898,1.101676 10.061456,2.314548 13.53125,4.0625 C 49.963818,51.934088 52,54.132382 52,58 c 0,2.026764 -0.928292,3.961959 -2.75,5.75 -1.821708,1.788041 -4.519447,3.358325 -7.8125,4.34375 a 2.0002,2.0002 0 1 0 1.125,3.8125 c 3.808231,-1.139589 7.097029,-2.922688 9.5,-5.28125 C 54.465471,64.266438 56,61.261809 56,58 56,52.547637 52.494667,48.733465 47.875,46.40625 43.612708,44.259067 38.281582,42.988547 32.78125,41.84375 l 1.96875,-31 c 2.276334,0.59696 4.304995,1.466843 5.90625,2.53125 C 43.522754,15.28046 45,17.617005 45,20 c 0,2.663106 -1.670233,5.354557 -5,7.28125 a 2.0002,2.0002 0 1 0 2,3.4375 C 46.253151,28.257761 49,24.344078 49,20 49,15.963286 46.499071,12.47154 42.875,10.0625 40.649076,8.582854 37.979278,7.441317 35,6.75 34.963984,3.0036657 31.777033,0 28,0 Z m 0,4 c 1.45913,0 2.590762,0.918277 2.90625,2.125 C 30.294908,6.069578 29.689027,6.020116 29.0625,6 a 2.0002,2.0002 0 0 0 -0.1875,0 2.0002441,2.0002441 0 1 0 0.0625,4 c 0.628761,0.02019 1.235651,0.06416 1.84375,0.125 L 28,54.1875 25,6.8125 C 25,6.8024 24.999888,6.79133 25,6.78125 25.016773,5.271426 26.287157,4 28,4 Z m -6.8125,6.65625 c 0.01989,-0.004 0.04259,0.004 0.0625,0 l 1.84375,29.1875 C 18.047155,38.693075 13.368358,37.323943 10,35.375 6.139143,33.141096 4,30.510457 4,26 4,22.16869 5.878662,18.762123 9.28125,15.96875 c 2.977265,-2.444201 7.116756,-4.350242 11.90625,-5.3125 z"
     id="path3990"
     inkscape:connector-curvature="0" />
</svg>
