<svg xmlns="http://www.w3.org/2000/svg" xmlns:xlink="http://www.w3.org/1999/xlink" version="1.1" x="0px" y="0px" viewBox="0 0 100 100" enable-background="new 0 0 100 100" xml:space="preserve"><path d="M87.5,83h-8.783L66.762,42.822l-3.548-12.018l-0.011-0.055l-4.439-14.857l0.025-0.031L56.25,7.341  C55.891,6.096,55.131,5,53.75,5h-7.5c-1.381,0-2.032,0.92-2.5,2.333l-1.184,4.205c-0.021,0.059-0.046,0.377-0.063,0.427L22.485,83  H12.5c-1.381,0-2.5,0.619-2.5,2v7.5c0,1.381,1.119,2.5,2.5,2.5h75c1.381,0,2.5-1.119,2.5-2.5V85C90,83.619,88.881,83,87.5,83z   M60.975,32.026L34.954,47.663l5.959-21.074L56.535,17.2L60.975,32.026z M29.007,68.949l36.979-20.061l4.762,16.094L37.672,83  H25.104L29.007,68.949z"></path></svg>