<?xml version="1.0" encoding="UTF-8" standalone="no"?>
<svg
   xmlns:dc="http://purl.org/dc/elements/1.1/"
   xmlns:cc="http://creativecommons.org/ns#"
   xmlns:rdf="http://www.w3.org/1999/02/22-rdf-syntax-ns#"
   xmlns:svg="http://www.w3.org/2000/svg"
   xmlns="http://www.w3.org/2000/svg"
   xmlns:sodipodi="http://sodipodi.sourceforge.net/DTD/sodipodi-0.dtd"
   xmlns:inkscape="http://www.inkscape.org/namespaces/inkscape"
   version="1.1"
   x="0px"
   y="0px"
   viewBox="0 0 72 52"
   enable-background="new 0 0 100 100"
   xml:space="preserve"
   id="svg2"
   inkscape:version="0.91 r13725"
   sodipodi:docname="news.svg"
   width="72"
   height="52"><metadata
     id="metadata10"><rdf:RDF><cc:Work
         rdf:about=""><dc:format>image/svg+xml</dc:format><dc:type
           rdf:resource="http://purl.org/dc/dcmitype/StillImage" /><dc:title></dc:title></cc:Work></rdf:RDF></metadata><defs
     id="defs8" /><sodipodi:namedview
     pagecolor="#ffffff"
     bordercolor="#666666"
     borderopacity="1"
     objecttolerance="10"
     gridtolerance="10"
     guidetolerance="10"
     inkscape:pageopacity="0"
     inkscape:pageshadow="2"
     inkscape:window-width="1920"
     inkscape:window-height="1016"
     id="namedview6"
     showgrid="false"
     fit-margin-top="0"
     fit-margin-left="0"
     fit-margin-right="0"
     fit-margin-bottom="0"
     inkscape:zoom="2.36"
     inkscape:cx="-18.025424"
     inkscape:cy="26"
     inkscape:window-x="0"
     inkscape:window-y="27"
     inkscape:window-maximized="1"
     inkscape:current-layer="svg2" /><path
     d="M 65,6 63.9,6 C 63.4,2.6 60.5,0 57,0 L 7,0 C 3.1,0 0,3.1 0,7 l 0,38 c 0,3.9 3.1,7 7,7 l 58,0 c 3.9,0 7,-3.1 7,-7 L 72,13 C 72,9.1 68.9,6 65,6 Z M 61,48 7,48 C 5.3,48 4,46.7 4,45 L 4,7 C 4,5.3 5.3,4 7,4 l 50,0 c 1.7,0 3,1.3 3,3 l 0,38 c 0,1.457 1,3 1,3 z M 29,30 9,30 9,10 l 20,0 0,20 z m 6,-20 20,0 0,2 -20,0 0,-2 z m 0,6 20,0 0,2 -20,0 0,-2 z m 0,6 20,0 0,2 -20,0 0,-2 z m 0,6 20,0 0,2 -20,0 0,-2 z m -27,6 47,0 0,2 -47,0 0,-2 z m 0,6 47,0 0,2 -47,0 0,-2 z"
     id="path4"
     inkscape:connector-curvature="0" /></svg>