<svg xmlns="http://www.w3.org/2000/svg" data-name="Layer 1" viewBox="0 0 100 100" x="0px" y="0px"><title>web</title><g data-name="Go to Web"><path d="M47.09,1.35c1,0.13,2.1.25,3.14,0.39A43.61,43.61,0,0,1,75,13.69,43.37,43.37,0,0,1,86,59.62c0,0.1-.08.2-0.16,0.39l-12-5.14c1.52-.54,2.92-1.08,4.36-1.53a2,2,0,0,0,1.52-1.83,37.25,37.25,0,0,0-.07-13.11,2.09,2.09,0,0,0-.1-0.31L68.58,41a63.21,63.21,0,0,1-.3,11.52l-1.66-.7c-1.24-.53-2.48-1.08-3.73-1.58a0.75,0.75,0,0,1-.56-0.88c0.07-2.34.07-4.69,0.08-7a2,2,0,0,0,0-.36l-15,1.08V58.14c1.24,0,2.49,0,3.74,0,1,0,1-.07,1.23.89l1.35,5.12-6.33.29V77.86c3.55-1.25,6-3.78,8.16-6.8l4,15.17c-1.73.49-3.39,1.08-5.1,1.43-17,3.47-31.64-1-43.48-13.79A41.26,41.26,0,0,1,.54,52C0.32,50.63.18,49.26,0,47.9q0-2.84,0-5.68C0,42,.1,41.79.13,41.57,0.33,40,.44,38.51.74,37A43.07,43.07,0,0,1,15.55,11.78a43.45,43.45,0,0,1,22.65-10l3.07-.39h5.82ZM26.63,35.58a114.76,114.76,0,0,0,14.46,1.18V12.34l-0.3.08-0.57.21a15.4,15.4,0,0,0-5.59,4.27A33.88,33.88,0,0,0,28,29.86C27.49,31.71,27.11,33.6,26.63,35.58Zm20.74,1.21A128.6,128.6,0,0,0,61.7,35.72a2.46,2.46,0,0,0,0-.34,46,46,0,0,0-3.11-10.66A27.07,27.07,0,0,0,51.9,15a12.68,12.68,0,0,0-4.53-2.67V36.78ZM26,41.86c0,0.09,0,.27-0.05.44a60.4,60.4,0,0,0,1.07,14.25,0.76,0.76,0,0,0,.8.7c2.62,0.24,5.24.55,7.87,0.76,1.77,0.14,3.54.17,5.34,0.25V43.05ZM20.65,56a65.71,65.71,0,0,1-.78-15.15L9.1,37.3a0.12,0.12,0,1,1,0,0,37,37,0,0,0-.57,12.62,2.57,2.57,0,0,0,1.38,2,31.74,31.74,0,0,0,8.35,3.39C19,55.56,19.78,55.73,20.65,56ZM67.87,34.72A56.88,56.88,0,0,0,77.72,32,35.77,35.77,0,0,0,58.11,12.32a38.82,38.82,0,0,1,6.37,10.45A53.53,53.53,0,0,1,67.87,34.72ZM20.6,34.45c1.52-8.24,4.27-15.83,9.81-22.19A36,36,0,0,0,11.08,31.14,38.5,38.5,0,0,0,20.6,34.45Zm8.54,29.23a31.61,31.61,0,0,0,5.52,9.62,15.43,15.43,0,0,0,5.42,4.18c0.32,0.14.66,0.25,1,.39V64.48ZM11.32,59.52A35.38,35.38,0,0,0,19.15,70.6c3.25,3.12,9.23,7,11.29,7.26-0.4-.48-0.8-0.93-1.18-1.41a40.35,40.35,0,0,1-6.87-13.37,0.81,0.81,0,0,0-.72-0.65A57.63,57.63,0,0,1,11.32,59.52Z"></path><path d="M100,73.3L80.63,77.13,93.41,91.44l-3.41,3L77.21,80.11,71,98.62l-0.14,0-17-48.05L100,73.15Z"></path></g></svg>