<?xml version="1.0" encoding="UTF-8" standalone="no"?>
<svg
   xmlns:dc="http://purl.org/dc/elements/1.1/"
   xmlns:cc="http://creativecommons.org/ns#"
   xmlns:rdf="http://www.w3.org/1999/02/22-rdf-syntax-ns#"
   xmlns:svg="http://www.w3.org/2000/svg"
   xmlns="http://www.w3.org/2000/svg"
   xmlns:sodipodi="http://sodipodi.sourceforge.net/DTD/sodipodi-0.dtd"
   xmlns:inkscape="http://www.inkscape.org/namespaces/inkscape"
   version="1.1"
   x="0px"
   y="0px"
   viewBox="0 0 50.124092 34"
   xml:space="preserve"
   id="svg4026"
   inkscape:version="0.91 r13725"
   sodipodi:docname="cloud.svg"
   width="50.124092"
   height="34"><metadata
     id="metadata4044"><rdf:RDF><cc:Work
         rdf:about=""><dc:format>image/svg+xml</dc:format><dc:type
           rdf:resource="http://purl.org/dc/dcmitype/StillImage" /><dc:title></dc:title></cc:Work></rdf:RDF></metadata><defs
     id="defs4042" /><sodipodi:namedview
     pagecolor="#ffffff"
     bordercolor="#666666"
     borderopacity="1"
     objecttolerance="10"
     gridtolerance="10"
     guidetolerance="10"
     inkscape:pageopacity="0"
     inkscape:pageshadow="2"
     inkscape:window-width="1920"
     inkscape:window-height="1016"
     id="namedview4040"
     showgrid="false"
     fit-margin-top="0"
     fit-margin-left="0"
     fit-margin-right="0"
     fit-margin-bottom="0"
     inkscape:zoom="4.72"
     inkscape:cx="-12.817797"
     inkscape:cy="17.635593"
     inkscape:window-x="0"
     inkscape:window-y="27"
     inkscape:window-maximized="1"
     inkscape:current-layer="svg4026" /><g
     id="g4030"
     transform="translate(0,-8)"><path
       class="st0"
       d="m 41.5,24.5 c 0.6,-1.4 0.9,-2.9 0.9,-4.4 C 42.4,14 37.4,9 31.3,9 26,9 21.6,12.7 20.5,17.7 c -1.5,-1.8 -3.7,-3 -6.3,-3 -4.5,0 -8.1,3.6 -8.1,8.1 0,0.7 0.1,1.5 0.3,2.2 C 3.3,26.1 1,29.2 1,32.8 l 0,0 C 1,37.3 4.7,41 9.3,41 l 31.5,0 c 4.6,0 8.3,-3.7 8.3,-8.3 l 0,0 C 49,28.5 45.7,24.9 41.5,24.5 Z"
       id="path4032"
       inkscape:connector-curvature="0"/><g
       id="g4034"><line
         class="st0"
         x1="25"
         y1="23.4"
         x2="25"
         y2="36"
         id="line4036"/><polyline
         class="st0"
         points="30.6,30.4 25,36 19.4,30.4   "
         id="polyline4038"/></g></g></svg>
