<?xml version="1.0" encoding="UTF-8" standalone="no"?>
<svg
   xmlns:dc="http://purl.org/dc/elements/1.1/"
   xmlns:cc="http://creativecommons.org/ns#"
   xmlns:rdf="http://www.w3.org/1999/02/22-rdf-syntax-ns#"
   xmlns:svg="http://www.w3.org/2000/svg"
   xmlns="http://www.w3.org/2000/svg"
   xmlns:sodipodi="http://sodipodi.sourceforge.net/DTD/sodipodi-0.dtd"
   xmlns:inkscape="http://www.inkscape.org/namespaces/inkscape"
   version="1.1"
   x="0px"
   y="0px"
   viewBox="0 0 68.000015 88.002228"
   id="svg4102"
   inkscape:version="0.91 r13725"
   sodipodi:docname="special-pages.svg"
   width="68.000015"
   height="88.002228">
  <metadata
     id="metadata4112">
    <rdf:RDF>
      <cc:Work
         rdf:about="">
        <dc:format>image/svg+xml</dc:format>
        <dc:type
           rdf:resource="http://purl.org/dc/dcmitype/StillImage" />
        <dc:title />
      </cc:Work>
    </rdf:RDF>
  </metadata>
  <defs
     id="defs4110" />
  <sodipodi:namedview
     pagecolor="#ffffff"
     bordercolor="#666666"
     borderopacity="1"
     objecttolerance="10"
     gridtolerance="10"
     guidetolerance="10"
     inkscape:pageopacity="0"
     inkscape:pageshadow="2"
     inkscape:window-width="1920"
     inkscape:window-height="1016"
     id="namedview4108"
     showgrid="false"
     fit-margin-top="0"
     fit-margin-left="0"
     fit-margin-right="0"
     fit-margin-bottom="0"
     inkscape:zoom="5.6568542"
     inkscape:cx="14.939952"
     inkscape:cy="35.419976"
     inkscape:window-x="0"
     inkscape:window-y="27"
     inkscape:window-maximized="1"
     inkscape:current-layer="svg4102" />
  <g
     transform="translate(-15.999992,-958.36107)"
     id="g4104">
    <path
       d="m 17.812509,958.36327 a 2.0002,2.0002 0 0 0 -1.8125,2 l 0,84.00003 a 2.0002,2.0002 0 0 0 2,2 l 64,0 a 2.0002,2.0002 0 0 0 2,-2 l 0,-70.00003 a 2.0002,2.0002 0 0 0 -0.59375,-1.40625 l -14,-14 a 2.0002,2.0002 0 0 0 -1.40625,-0.59375 l -50,0 a 2.0002,2.0002 0 0 0 -0.1875,0 z m 2.1875,4 46,0 0,12 c 1.05e-4,1.04717 0.952831,1.9999 2,2 l 12,0 0,66.00003 -60,0 0,-80.00003 z m 50,2.8125 7.1875,7.1875 -7.1875,0 0,-7.1875 z"
       id="path4106"
       inkscape:connector-curvature="0" />
  </g>
  <g
     transform="matrix(0.56647512,0,0,0.56647512,5.6765525,15.677641)"
     id="g4144">
    <path
       inkscape:connector-curvature="0"
       d="M 96.889,39.261 C 96.625,38.451 95.925,37.86 95.081,37.738 L 65.318,33.413 52.008,6.438 C 51.631,5.673 50.853,5.189 50.001,5.189 c -0.852,0 -1.63,0.484 -2.007,1.249 L 34.682,33.413 4.917,37.738 c -0.842,0.122 -1.542,0.713 -1.806,1.523 -0.264,0.81 -0.044,1.7 0.566,2.294 l 21.537,20.993 -5.083,29.646 c -0.144,0.84 0.201,1.688 0.891,2.188 0.389,0.284 0.851,0.428 1.315,0.428 0.356,0 0.714,-0.085 1.042,-0.258 L 50,80.554 76.62,94.552 c 0.753,0.397 1.667,0.332 2.356,-0.17 0.689,-0.5 1.035,-1.349 0.891,-2.188 L 74.786,62.548 96.322,41.555 c 0.61,-0.595 0.829,-1.484 0.567,-2.294 z"
       id="path4146"
       sodipodi:nodetypes="ccccscccsccccscccccccc" />
  </g>
</svg>
