<?xml version="1.0" encoding="UTF-8" standalone="no"?>
<svg
   xmlns:dc="http://purl.org/dc/elements/1.1/"
   xmlns:cc="http://creativecommons.org/ns#"
   xmlns:rdf="http://www.w3.org/1999/02/22-rdf-syntax-ns#"
   xmlns:svg="http://www.w3.org/2000/svg"
   xmlns="http://www.w3.org/2000/svg"
   xmlns:sodipodi="http://sodipodi.sourceforge.net/DTD/sodipodi-0.dtd"
   xmlns:inkscape="http://www.inkscape.org/namespaces/inkscape"
   viewBox="0 0 50 60"
   version="1.1"
   x="0px"
   y="0px"
   id="svg4370"
   inkscape:version="0.91 r13725"
   sodipodi:docname="templates.svg">
  <metadata
     id="metadata4388">
    <rdf:RDF>
      <cc:Work
         rdf:about="">
        <dc:format>image/svg+xml</dc:format>
        <dc:type
           rdf:resource="http://purl.org/dc/dcmitype/StillImage" />
      </cc:Work>
    </rdf:RDF>
  </metadata>
  <defs
     id="defs4386" />
  <sodipodi:namedview
     pagecolor="#ffffff"
     bordercolor="#666666"
     borderopacity="1"
     objecttolerance="10"
     gridtolerance="10"
     guidetolerance="10"
     inkscape:pageopacity="0"
     inkscape:pageshadow="2"
     inkscape:window-width="754"
     inkscape:window-height="480"
     id="namedview4384"
     showgrid="false"
     inkscape:zoom="3.9333333"
     inkscape:cx="25"
     inkscape:cy="30"
     inkscape:window-x="0"
     inkscape:window-y="27"
     inkscape:window-maximized="0"
     inkscape:current-layer="svg4370" />
  <title
     id="title4372">2 -Leather Strap- (sewing, machine, tailoring, knit, )</title>
  <desc
     id="desc4374">Created with Sketch.</desc>
  <g
     id="g4376">
    <g
       transform="translate(-230,-402)"
       id="g4378">
      <g
         transform="translate(230,402)"
         id="g4380">
        <path
           d="m 45.4795,45.3608 c -0.435,1.061 -1.042,2.032 -1.806,2.887 -0.192,0.215 -0.464,0.334 -0.746,0.334 -0.069,0 -0.138,-0.008 -0.208,-0.022 -0.78,-0.166 -1.578,-0.297 -2.373,-0.389 -0.548,-0.063 -0.942,-0.56 -0.878,-1.108 0.064,-0.549 0.563,-0.946 1.109,-0.878 0.655,0.075 1.314,0.176 1.964,0.299 0.333,-0.429 0.62,-0.89 0.86,-1.377 -0.391,-0.543 -0.761,-1.112 -1.103,-1.698 -0.278,-0.477 -0.117,-1.089 0.36,-1.367 0.477,-0.278 1.089,-0.118 1.368,0.36 0.402,0.688 0.847,1.352 1.321,1.971 0.217,0.282 0.267,0.658 0.132,0.988 m -5.375,-12.695 c 0.553,-0.056 1.042,0.341 1.1,0.89 0.15,1.427 0.427,2.832 0.823,4.175 0.156,0.53 -0.147,1.086 -0.677,1.242 -0.094,0.028 -0.189,0.041 -0.283,0.041 -0.432,0 -0.831,-0.282 -0.959,-0.717 -0.43,-1.46 -0.731,-2.984 -0.894,-4.531 -0.057,-0.55 0.341,-1.042 0.89,-1.1 m 0.003,-8.962 c 0.157,-0.53 0.716,-0.832 1.243,-0.676 0.529,0.155 0.832,0.711 0.676,1.241 -0.396,1.344 -0.673,2.749 -0.822,4.175 -0.055,0.514 -0.489,0.896 -0.994,0.896 -0.035,0 -0.07,-0.002 -0.106,-0.005 -0.549,-0.058 -0.947,-0.55 -0.89,-1.099 0.163,-1.547 0.463,-3.072 0.893,-4.532 m 0.317,-9.767 c 0.75,-0.079 1.533,-0.219 2.327,-0.416 0.365,-0.09 0.747,0.03 0.994,0.313 0.73,0.835 1.313,1.779 1.734,2.805 0.135,0.329 0.085,0.706 -0.132,0.988 -0.474,0.619 -0.919,1.283 -1.321,1.972 -0.186,0.319 -0.521,0.496 -0.865,0.496 -0.171,0 -0.345,-0.044 -0.503,-0.136 -0.477,-0.279 -0.638,-0.891 -0.36,-1.368 0.342,-0.585 0.712,-1.154 1.103,-1.698 -0.223,-0.453 -0.487,-0.883 -0.792,-1.286 -0.67,0.144 -1.332,0.252 -1.975,0.319 -0.555,0.049 -1.042,-0.341 -1.1,-0.889 -0.057,-0.55 0.341,-1.042 0.89,-1.1 m -4.885,34.169 c -1.359,0.132 -2.663,0.402 -3.874,0.801 -0.104,0.035 -0.21,0.051 -0.313,0.051 -0.42,0 -0.811,-0.266 -0.95,-0.687 -0.173,-0.525 0.112,-1.09 0.637,-1.263 1.352,-0.446 2.8,-0.746 4.306,-0.892 0.552,-0.056 1.039,0.349 1.092,0.898 0.054,0.55 -0.349,1.039 -0.898,1.092 m -5.445,-36.712 c 0.367,-0.413 0.998,-0.449 1.412,-0.081 1.095,0.976 2.345,1.697 3.715,2.144 0.525,0.172 0.812,0.736 0.64,1.261 -0.137,0.422 -0.529,0.69 -0.95,0.69 -0.103,0 -0.207,-0.016 -0.31,-0.049 -1.635,-0.534 -3.123,-1.393 -4.426,-2.553 -0.412,-0.368 -0.448,-1 -0.081,-1.412 m -2.159,-2.986 c -0.498,0.237 -1.095,0.024 -1.331,-0.476 -0.284,-0.599 -0.537,-1.219 -0.755,-1.853 -0.562,-0.055 -1.137,-0.055 -1.699,0 -0.218,0.634 -0.471,1.255 -0.755,1.853 -0.171,0.361 -0.53,0.572 -0.904,0.572 -0.144,0 -0.29,-0.031 -0.428,-0.096 -0.499,-0.237 -0.712,-0.833 -0.476,-1.332 0.334,-0.703 0.62,-1.442 0.85,-2.195 0.11,-0.361 0.415,-0.629 0.787,-0.693 1.161,-0.2 2.388,-0.2 3.551,0 0.372,0.064 0.677,0.332 0.787,0.693 0.23,0.753 0.516,1.491 0.849,2.195 0.236,0.499 0.024,1.096 -0.476,1.332 m -0.455,42.633 c -0.626,0.456 -1.221,0.969 -1.771,1.523 -0.187,0.189 -0.443,0.296 -0.709,0.296 -0.267,0 -0.523,-0.107 -0.71,-0.296 -0.55,-0.554 -1.145,-1.067 -1.771,-1.523 -0.446,-0.326 -0.543,-0.951 -0.218,-1.398 0.326,-0.445 0.952,-0.543 1.398,-0.218 0.448,0.328 0.884,0.681 1.301,1.055 0.417,-0.374 0.852,-0.727 1.3,-1.055 0.446,-0.325 1.072,-0.227 1.398,0.218 0.325,0.447 0.228,1.072 -0.218,1.398 m -7.653,-38.239 c -1.301,1.161 -2.79,2.02 -4.424,2.555 -0.103,0.033 -0.208,0.049 -0.311,0.049 -0.421,0 -0.812,-0.268 -0.95,-0.69 -0.172,-0.524 0.115,-1.089 0.64,-1.261 1.37,-0.448 2.619,-1.169 3.714,-2.145 0.411,-0.369 1.044,-0.333 1.412,0.08 0.367,0.412 0.331,1.044 -0.081,1.412 m -0.227,35.47 c -0.139,0.421 -0.53,0.687 -0.95,0.687 -0.103,0 -0.209,-0.016 -0.313,-0.051 -1.212,-0.399 -2.515,-0.669 -3.873,-0.801 -0.55,-0.053 -0.952,-0.542 -0.899,-1.092 0.053,-0.549 0.543,-0.956 1.092,-0.898 1.506,0.146 2.954,0.446 4.306,0.892 0.525,0.173 0.81,0.738 0.637,1.263 m -9.705,-18.938 c -0.036,0.004 -0.071,0.006 -0.106,0.006 -0.505,0 -0.939,-0.382 -0.994,-0.896 -0.15,-1.427 -0.427,-2.832 -0.823,-4.175 -0.156,-0.53 0.147,-1.086 0.677,-1.241 0.529,-0.159 1.086,0.146 1.242,0.676 0.43,1.459 0.731,2.984 0.894,4.531 0.057,0.549 -0.341,1.041 -0.89,1.099 m -0.003,8.963 c -0.129,0.435 -0.527,0.717 -0.959,0.717 -0.094,0 -0.189,-0.013 -0.284,-0.041 -0.529,-0.156 -0.832,-0.712 -0.676,-1.242 0.396,-1.344 0.673,-2.749 0.822,-4.175 0.058,-0.549 0.541,-0.945 1.1,-0.89 0.549,0.057 0.947,0.549 0.89,1.099 -0.163,1.546 -0.463,3.071 -0.893,4.532 m -0.239,9.874 c -0.795,0.092 -1.593,0.223 -2.373,0.389 -0.07,0.014 -0.139,0.022 -0.208,0.022 -0.282,0 -0.554,-0.119 -0.746,-0.334 -0.764,-0.855 -1.371,-1.826 -1.806,-2.887 -0.135,-0.33 -0.085,-0.706 0.132,-0.988 0.474,-0.619 0.919,-1.283 1.321,-1.971 0.278,-0.479 0.891,-0.639 1.368,-0.36 0.477,0.278 0.638,0.89 0.36,1.367 -0.342,0.586 -0.712,1.155 -1.103,1.698 0.24,0.487 0.527,0.948 0.86,1.377 0.65,-0.123 1.309,-0.224 1.964,-0.299 0.553,-0.066 1.046,0.329 1.109,0.878 0.064,0.548 -0.33,1.045 -0.878,1.108 m -5.001,-30.544 c -0.217,-0.282 -0.267,-0.659 -0.132,-0.988 0.421,-1.026 1.004,-1.969 1.734,-2.805 0.246,-0.282 0.626,-0.403 0.993,-0.312 0.795,0.196 1.579,0.336 2.328,0.415 0.549,0.058 0.947,0.55 0.889,1.1 -0.057,0.548 -0.543,0.939 -1.099,0.889 -0.642,-0.067 -1.304,-0.175 -1.976,-0.319 -0.304,0.403 -0.568,0.833 -0.791,1.286 0.391,0.544 0.761,1.113 1.103,1.698 0.278,0.477 0.117,1.089 -0.36,1.368 -0.158,0.092 -0.332,0.136 -0.503,0.136 -0.344,0 -0.679,-0.177 -0.865,-0.496 -0.402,-0.689 -0.847,-1.353 -1.321,-1.972 m 45.055,25.666 c -6.204,-6.204 -6.204,-18.382 0,-24.586 0.236,-0.236 0.319,-0.672 0.253,-1 -0.68,-3.403 -2.584,-6.424 -5.36,-8.507 -0.272,-0.203 -0.628,-0.256 -0.946,-0.138 -3.509,1.293 -6.386,1.274 -8.548,-0.053 -3.491,-2.143 -4.107,-7.074 -4.113,-7.124 -0.043,-0.364 -0.282,-0.677 -0.622,-0.813 -3.464,-1.387 -7.279,-1.387 -10.743,0 -0.34,0.136 -0.579,0.449 -0.622,0.813 -0.006,0.05 -0.622,4.981 -4.113,7.124 -2.162,1.327 -5.038,1.345 -8.548,0.053 -0.319,-0.118 -0.674,-0.065 -0.946,0.138 -2.776,2.083 -4.68,5.104 -5.38,8.603 -0.066,0.328 0.037,0.667 0.273,0.904 6.204,6.204 6.204,18.382 0,24.586 -0.236,0.236 -0.319,0.672 -0.253,1.001 0.68,3.402 2.584,6.423 5.36,8.506 0.266,0.2 0.615,0.252 0.93,0.144 0.533,-0.185 13.12,-4.414 17.751,6.448 0.157,0.369 0.519,0.608 0.92,0.608 0.4,0 0.762,-0.239 0.919,-0.608 4.631,-10.863 17.217,-6.634 17.751,-6.448 0.314,0.108 0.663,0.056 0.93,-0.144 2.776,-2.083 4.68,-5.104 5.38,-8.603 0.066,-0.328 -0.037,-0.667 -0.273,-0.904"
           id="path4382"
           inkscape:connector-curvature="0" />
      </g>
    </g>
  </g>
</svg>
