<?xml version="1.0" encoding="UTF-8" standalone="no"?>
<svg
   xmlns:dc="http://purl.org/dc/elements/1.1/"
   xmlns:cc="http://creativecommons.org/ns#"
   xmlns:rdf="http://www.w3.org/1999/02/22-rdf-syntax-ns#"
   xmlns:svg="http://www.w3.org/2000/svg"
   xmlns="http://www.w3.org/2000/svg"
   xmlns:sodipodi="http://sodipodi.sourceforge.net/DTD/sodipodi-0.dtd"
   xmlns:inkscape="http://www.inkscape.org/namespaces/inkscape"
   version="1.1"
   x="0px"
   y="0px"
   viewBox="0 0 32 32"
   style="enable-background:new 0 0 32 32;"
   xml:space="preserve"
   id="svg2"
   inkscape:version="0.91 r13725"
   sodipodi:docname="contact.svg"><metadata
     id="metadata22"><rdf:RDF><cc:Work
         rdf:about=""><dc:format>image/svg+xml</dc:format><dc:type
           rdf:resource="http://purl.org/dc/dcmitype/StillImage" /></cc:Work></rdf:RDF></metadata><defs
     id="defs20" /><sodipodi:namedview
     pagecolor="#ffffff"
     bordercolor="#666666"
     borderopacity="1"
     objecttolerance="10"
     gridtolerance="10"
     guidetolerance="10"
     inkscape:pageopacity="0"
     inkscape:pageshadow="2"
     inkscape:window-width="1920"
     inkscape:window-height="1016"
     id="namedview18"
     showgrid="false"
     inkscape:zoom="7.375"
     inkscape:cx="16.271186"
     inkscape:cy="16.40678"
     inkscape:window-x="0"
     inkscape:window-y="27"
     inkscape:window-maximized="1"
     inkscape:current-layer="svg2" /><g id="g6"><g id="g8"><path
         d="M23.2,30.4c-2.8,1.2-5.1,1.6-8.4,1.6C7.2,32,0.5,26.5,0.5,17.5C0.5,8.1,7.3,0,17.7,0    c8.1,0,13.9,5.6,13.9,13.3c0,6.7-3.8,10.9-8.7,10.9c-2.2,0-3.7-1.1-4-3.5h-0.1c-1.4,2.3-3.5,3.5-5.9,3.5c-3,0-5.2-2.2-5.2-6    c0-5.6,4.1-10.7,10.8-10.7c2,0,4.3,0.5,5.5,1.1l-1.4,8.5c-0.5,2.7-0.1,4,1.1,4c2,0,4.5-2.5,4.5-7.8c0-6-3.9-10.6-11-10.6    C10.1,2.8,4,8.3,4,17.1c0,7.7,4.9,12,11.8,12c2.3,0,4.8-0.5,6.7-1.5L23.2,30.4z M19.1,11.4c-0.4-0.1-0.8-0.2-1.4-0.2    c-3,0-5.4,3-5.4,6.5c0,1.7,0.8,2.9,2.3,2.9c1.7,0,3.5-2.2,3.9-4.8L19.1,11.4z"
         id="path10" /></g></g><g
     id="g12"
     transform="matrix(0.85,0,0,0.85,2.4,2.4)"><g
       id="g14"><path
         d="M 17.7,0 C 7.3,0 0.5,8.1 0.5,17.5 c 0,9 6.7,14.5 14.4,14.5 3.3,0 5.7,-0.4 8.4,-1.6 l -0.8,-2.7 c -1.8,1 -4.3,1.5 -6.7,1.5 C 8.9,29.1 4,24.8 4,17.1 4,8.3 10.1,2.8 17.2,2.8 c 7.1,0 11,4.6 11,10.6 0,5.3 -2.5,7.8 -4.5,7.8 -1.3,0 -1.6,-1.3 -1.1,-4 L 24,8.7 C 22.9,8.1 20.5,7.5 18.5,7.5 11.9,7.5 7.7,12.6 7.7,18.2 c 0,3.8 2.2,6 5.1,6 2.4,0 4.5,-1.2 5.9,-3.5 l 0.1,0 c 0.2,2.4 1.8,3.5 4,3.5 5,0 8.7,-4.2 8.7,-10.9 C 31.5,5.6 25.8,0 17.7,0 Z m 0.8,15.7 c -0.4,2.7 -2.2,4.8 -3.9,4.8 -1.5,0 -2.3,-1.1 -2.3,-2.9 0,-3.5 2.4,-6.5 5.4,-6.5 0.6,0 1.1,0.1 1.4,0.2 l -0.6,4.4 z"
         id="path16"
         inkscape:connector-curvature="0" /></g></g></svg>
