<?xml version="1.0" encoding="UTF-8" standalone="no"?>
<svg
   xmlns:dc="http://purl.org/dc/elements/1.1/"
   xmlns:cc="http://creativecommons.org/ns#"
   xmlns:rdf="http://www.w3.org/1999/02/22-rdf-syntax-ns#"
   xmlns:svg="http://www.w3.org/2000/svg"
   xmlns="http://www.w3.org/2000/svg"
   xmlns:sodipodi="http://sodipodi.sourceforge.net/DTD/sodipodi-0.dtd"
   xmlns:inkscape="http://www.inkscape.org/namespaces/inkscape"
   version="1.1"
   x="0px"
   y="0px"
   viewBox="0 0 100 100"
   id="svg6759"
   inkscape:version="0.91 r13725"
   sodipodi:docname="languages.svg"
   width="100"
   height="100"
   xml:space="default">
  <metadata
     id="metadata6779">
    <rdf:RDF>
      <cc:Work
         rdf:about="">
        <dc:format>image/svg+xml</dc:format>
        <dc:type
           rdf:resource="http://purl.org/dc/dcmitype/StillImage" />
        <dc:title />
      </cc:Work>
    </rdf:RDF>
  </metadata>
  <defs
     id="defs6777" />
  <sodipodi:namedview
     pagecolor="#ffffff"
     bordercolor="#666666"
     borderopacity="1"
     objecttolerance="10"
     gridtolerance="10"
     guidetolerance="10"
     inkscape:pageopacity="0"
     inkscape:pageshadow="2"
     inkscape:window-width="1920"
     inkscape:window-height="1016"
     id="namedview6775"
     showgrid="false"
     inkscape:zoom="3.1281066"
     inkscape:cx="11.495271"
     inkscape:cy="10.548873"
     inkscape:window-x="1920"
     inkscape:window-y="27"
     inkscape:window-maximized="1"
     inkscape:current-layer="svg6759"
     fit-margin-top="0"
     fit-margin-left="0"
     fit-margin-right="0"
     fit-margin-bottom="0" />
  <path
     inkscape:connector-curvature="0"
     d="M 93.413537,49.400798 C 95.64583,29.313176 78.016901,10.742428 54.048803,7.923007 51.974989,7.6800055 49.929852,7.5547314 47.907355,7.5547314 26.541335,7.5547314 8.6301617,20.823217 6.5865342,39.172095 4.3542409,59.259716 21.975623,77.831973 45.94825,80.649885 c 2.057211,0.244511 4.088764,0.362238 6.09164,0.362238 2.211162,0 4.380064,-0.150932 6.502176,-0.422611 8.582029,9.338201 17.541388,11.855757 22.552351,11.855757 3.216374,0 4.805694,-1.038417 3.635967,-1.959106 -7.315704,-5.809396 -8.868801,-11.476915 -8.405437,-15.935465 9.404611,-5.622239 15.903769,-14.533301 17.08859,-25.1499 z m -34.836756,17.705904 -2.496425,-5.32943 c 6.27125,-1.563662 10.129087,-4.5476 10.129087,-9.360841 0,-1.738744 -0.585618,-5.847129 -6.272759,-7.691526 -2.316816,5.267548 -5.84562,10.166821 -9.957024,13.697135 0.211305,0.685234 1.557624,3.095627 1.818737,3.620873 l -5.427536,3.478997 c -0.265642,-0.528265 -1.605923,-2.93564 -1.817229,-3.566538 -2.635283,1.474612 -5.534699,2.422468 -8.48694,2.422468 -4.632122,0 -7.686998,-2.953751 -7.686998,-7.850005 0,-7.271933 5.586016,-13.014919 13.067745,-16.071304 -0.110181,-2.265498 -0.110181,-4.583823 -0.110181,-7.007801 -3.949906,0.107162 -8.216771,0.212815 -10.322281,0.158479 L 30.695,27.443121 c 2.423978,0.05283 6.846303,0.05283 10.752439,0.05283 0.101125,-2.263989 0.155461,-4.897763 0.256586,-7.111945 l 6.862905,0.525246 c -0.101125,0.525245 -0.274697,4.690985 -0.431667,6.376903 5.744495,-0.264133 12.959074,-0.947857 18.810731,-2.212673 l 0.575053,6.375394 c -5.791284,1.052 -13.380175,1.580264 -19.699724,1.79157 -0.05434,1.844396 -0.107162,3.635967 -0.107162,5.37622 2.211163,-0.528265 5.429046,-0.843714 7.901322,-0.686744 0.211306,-0.789377 0.369785,-1.581774 0.419593,-2.369642 l 6.484065,1.633091 c -0.159989,0.581091 -0.318468,1.160672 -0.419593,1.740253 7.635681,2.108529 11.007515,7.427394 11.007515,13.328859 0.0045,7.223635 -4.650233,12.444394 -14.530282,14.844222 z M 34.753578,55.314337 c 0,3.00205 2.263989,2.897906 2.949223,2.843571 1.631582,-0.0483 3.42617,-0.787869 5.270567,-1.999858 -0.585619,-2.792253 -0.952385,-6.061453 -1.215008,-9.641575 -4.161212,2.054193 -7.004782,5.266039 -7.004782,8.797862 z M 47.766987,44.409456 c 0.15697,2.633774 0.310922,5.057752 0.680707,7.163262 2.05872,-2.159846 3.85029,-4.899273 5.164913,-7.901322 -0.739569,-0.107163 -3.475978,0.104143 -5.84562,0.73806 z"
     id="path6767" />
</svg>
