<svg xmlns="http://www.w3.org/2000/svg" xmlns:xlink="http://www.w3.org/1999/xlink" version="1.1" x="0px" y="0px" viewBox="0 0 100 100" enable-background="new 0 0 100 100" xml:space="preserve"><g><path d="M74.1,70.6c8.3,0,15.1-6.8,15.1-15.1v0c0-8.3-6.8-15.1-15.1-15.1H53.3v-6.6h20.8c8.3,0,15.1-6.8,15.1-15.1v0   c0-8.3-6.8-15.1-15.1-15.1H25.9c-8.3,0-15.1,6.8-15.1,15.1v0c0,8.3,6.8,15.1,15.1,15.1h20.8v6.6H25.9c-8.3,0-15.1,6.8-15.1,15.1v0   c0,8.3,6.8,15.1,15.1,15.1h20.8v9c-2.1,0.9-3.8,2.6-4.7,4.7H25.7c-1.2-2.1-3.4-3.5-5.9-3.5c-3.7,0-6.8,3-6.8,6.8s3,6.8,6.8,6.8   c2.5,0,4.7-1.4,5.9-3.5h16.2c1.3,3.2,4.4,5.5,8.1,5.5s6.8-2.3,8.1-5.5h16.2c1.2,2.1,3.4,3.5,5.9,3.5c3.7,0,6.8-3,6.8-6.8   s-3-6.8-6.8-6.8c-2.5,0-4.7,1.4-5.9,3.5H58c-0.9-2.1-2.6-3.8-4.7-4.7v-9H74.1z M30.4,22.3c-2,0-3.6-1.6-3.6-3.6   c0-2,1.6-3.6,3.6-3.6c2,0,3.6,1.6,3.6,3.6C34.1,20.7,32.4,22.3,30.4,22.3z M42.1,22.3c-2,0-3.6-1.6-3.6-3.6c0-2,1.6-3.6,3.6-3.6   c2,0,3.6,1.6,3.6,3.6C45.8,20.7,44.1,22.3,42.1,22.3z M30.4,59.2c-2,0-3.6-1.6-3.6-3.6c0-2,1.6-3.6,3.6-3.6c2,0,3.6,1.6,3.6,3.6   C34.1,57.5,32.4,59.2,30.4,59.2z M42.1,59.2c-2,0-3.6-1.6-3.6-3.6c0-2,1.6-3.6,3.6-3.6c2,0,3.6,1.6,3.6,3.6   C45.8,57.5,44.1,59.2,42.1,59.2z M53.5,87.7c0,2-1.6,3.5-3.5,3.5s-3.5-1.6-3.5-3.5c0-2,1.6-3.5,3.5-3.5S53.5,85.8,53.5,87.7z"></path></g></svg>