<?xml version="1.0" encoding="UTF-8" standalone="no"?>
<svg
   xmlns:dc="http://purl.org/dc/elements/1.1/"
   xmlns:cc="http://creativecommons.org/ns#"
   xmlns:rdf="http://www.w3.org/1999/02/22-rdf-syntax-ns#"
   xmlns:svg="http://www.w3.org/2000/svg"
   xmlns="http://www.w3.org/2000/svg"
   xmlns:sodipodi="http://sodipodi.sourceforge.net/DTD/sodipodi-0.dtd"
   xmlns:inkscape="http://www.inkscape.org/namespaces/inkscape"
   version="1.1"
   x="0px"
   y="0px"
   viewBox="0 0 20 20"
   enable-background="new 0 0 20 20"
   xml:space="preserve"
   id="svg4865"
   inkscape:version="0.91 r13725"
   sodipodi:docname="type-woost-models-template-Template.svg"><metadata
     id="metadata4879"><rdf:RDF><cc:Work
         rdf:about=""><dc:format>image/svg+xml</dc:format><dc:type
           rdf:resource="http://purl.org/dc/dcmitype/StillImage" /></cc:Work></rdf:RDF></metadata><defs
     id="defs4877" /><sodipodi:namedview
     pagecolor="#ffffff"
     bordercolor="#666666"
     borderopacity="1"
     objecttolerance="10"
     gridtolerance="10"
     guidetolerance="10"
     inkscape:pageopacity="0"
     inkscape:pageshadow="2"
     inkscape:window-width="1920"
     inkscape:window-height="1016"
     id="namedview4875"
     showgrid="false"
     inkscape:zoom="11.8"
     inkscape:cx="9.9152542"
     inkscape:cy="10.254237"
     inkscape:window-x="1920"
     inkscape:window-y="27"
     inkscape:window-maximized="1"
     inkscape:current-layer="svg4865" /><g
     id="g4867"
     transform="matrix(0.8,0,0,0.8,2,2)"><path
       d="M 19,0 1,0 C 0.4,0 0,0.4 0,1 L 0,4.8 C 0,4.9 0.1,5 0.2,5 L 19.8,5 C 19.9,5 20,4.9 20,4.8 L 20,1 C 20,0.4 19.6,0 19,0 Z"
       id="path4869"
       inkscape:connector-curvature="0" /><path
       d="M 19.8,7 7.2,7 C 7.1,7 7,7.1 7,7.2 L 7,19.8 C 7,19.9 7.1,20 7.2,20 L 19,20 c 0.6,0 1,-0.4 1,-1 L 20,7.2 C 20,7.1 19.9,7 19.8,7 Z"
       id="path4871"
       inkscape:connector-curvature="0" /><path
       d="M 4.8,7 0.2,7 C 0.1,7 0,7.1 0,7.2 L 0,19 c 0,0.6 0.4,1 1,1 l 3.8,0 C 4.9,20 5,19.9 5,19.8 L 5,7.2 C 5,7.1 4.9,7 4.8,7 Z"
       id="path4873"
       inkscape:connector-curvature="0" /></g></svg>