<?xml version="1.0" encoding="UTF-8" standalone="no"?>
<svg
   xmlns:ns="http://ns.adobe.com/SaveForWeb/1.0/"
   xmlns:dc="http://purl.org/dc/elements/1.1/"
   xmlns:cc="http://creativecommons.org/ns#"
   xmlns:rdf="http://www.w3.org/1999/02/22-rdf-syntax-ns#"
   xmlns:svg="http://www.w3.org/2000/svg"
   xmlns="http://www.w3.org/2000/svg"
   xmlns:sodipodi="http://sodipodi.sourceforge.net/DTD/sodipodi-0.dtd"
   xmlns:inkscape="http://www.inkscape.org/namespaces/inkscape"
   version="1.1"
   x="0px"
   y="0px"
   viewBox="0 0 96.300003 55.703281"
   enable-background="new 0 0 100 100"
   xml:space="preserve"
   id="svg2"
   inkscape:version="0.91 r13725"
   sodipodi:docname="tree.svg"
   width="96.300003"
   height="55.703281"><defs
     id="defs10" /><sodipodi:namedview
     pagecolor="#ffffff"
     bordercolor="#666666"
     borderopacity="1"
     objecttolerance="10"
     gridtolerance="10"
     guidetolerance="10"
     inkscape:pageopacity="0"
     inkscape:pageshadow="2"
     inkscape:window-width="1920"
     inkscape:window-height="1016"
     id="namedview8"
     showgrid="false"
     fit-margin-top="0"
     fit-margin-left="0"
     fit-margin-right="0"
     fit-margin-bottom="0"
     inkscape:zoom="2.36"
     inkscape:cx="49.047458"
     inkscape:cy="29.174467"
     inkscape:window-x="0"
     inkscape:window-y="27"
     inkscape:window-maximized="1"
     inkscape:current-layer="svg2" /><metadata
     id="metadata4"><ns:sfw><ns:slices /><ns:sliceSourceBounds
         width="1447.7"
         height="1443.7"
         x="1.2"
         y="-1446.3"
         bottomLeftOrigin="true" /></ns:sfw><rdf:RDF><cc:Work
         rdf:about=""><dc:format>image/svg+xml</dc:format><dc:type
           rdf:resource="http://purl.org/dc/dcmitype/StillImage" /><dc:title></dc:title></cc:Work></rdf:RDF></metadata><path
     d="m 0,51 0,-8.2 c 0,-2.6 2.1,-4.7 4.7,-4.7 l 4.2,0 0,-8.3 c 0,-2.6 2.1,-4.7 4.7,-4.7 l 31.8,0 0,-7.5 -4.1,0 c -2.6,0 -4.7,-2.1 -4.7,-4.7 l 0,-8.2 C 36.6,2.1 38.7,0 41.3,0 L 55,0 c 2.6,0 4.7,2.1 4.7,4.7 l 0,8.1 c 0,2.6 -2.1,4.7 -4.7,4.7 l -4.2,0 0,7.5 31.9,0 c 2.6,0 4.7,2.1 4.7,4.7 l 0,8.3 4.2,0 c 2.6,0 4.7,2.1 4.7,4.7 l 0,8.2 c 0,2.6 -2.1,4.7 -4.7,4.7 l -13.7,0 c -2.6,0 -4.7,-2.1 -4.7,-4.7 l 0,-8.1 c 0,-2.6 2.1,-4.7 4.7,-4.7 l 4.2,0 0,-7.7 -31.3,0 0,7.7 4.2,0 c 2.6,0 4.7,2.1 4.7,4.7 l 0,8.2 c 0,2.6 -2.1,4.7 -4.7,4.7 l -13.7,0 c -2.6,0 -4.7,-2.1 -4.7,-4.7 l 0,-8.2 c 0,-2.6 2.1,-4.7 4.7,-4.7 l 4.1,0 0,-7.7 -31.1,0 0,7.7 4.2,0 c 2.6,0 4.7,2.1 4.7,4.7 l 0,8.2 c 0,2.6 -2.1,4.7 -4.7,4.7 l -13.8,0 C 2.1,55.8 0,53.6 0,51 Z"
     id="path6"
     inkscape:connector-curvature="0" /></svg>